<?xml version="1.0" encoding="UTF-8" standalone="no"?>
<!-- This is a Stata 17.0 generated SVG file (http://www.stata.com) -->

<svg version="1.1" width="5.50in" height="4.00in" viewBox="0 0 3960 2880" xmlns="http://www.w3.org/2000/svg" xmlns:xlink="http://www.w3.org/1999/xlink">
	<desc>Stata Graph - graph3</desc>
	<rect x="0" y="0" width="3960" height="2880" style="fill:#EAF2F3;stroke:none"/>
	<rect x="0.00" y="0.00" width="3959.88" height="2880.00" style="fill:#EAF2F3"/>
	<rect x="2.88" y="2.88" width="3954.12" height="2874.24" style="fill:none;stroke:#EAF2F3;stroke-width:5.76"/>
	<rect x="390.80" y="415.32" width="3468.22" height="2073.87" style="fill:#FFFFFF"/>
	<rect x="393.68" y="418.20" width="3462.46" height="2068.11" style="fill:none;stroke:#FFFFFF;stroke-width:5.76"/>
	<line x1="390.80" y1="2201.83" x2="3859.02" y2="2201.83" style="stroke:#EAF2F3;stroke-width:8.64"/>
	<line x1="390.80" y1="1340.25" x2="3859.02" y2="1340.25" style="stroke:#EAF2F3;stroke-width:8.64"/>
	<line x1="390.80" y1="478.68" x2="3859.02" y2="478.68" style="stroke:#EAF2F3;stroke-width:8.64"/>
	<circle cx="2517.82" cy="2000.11" r="26.35" style="fill:#1A476F"/>
	<circle cx="2517.82" cy="2000.11" r="22.03" style="fill:none;stroke:#1A476F;stroke-width:8.64"/>
	<circle cx="2051.28" cy="1399.78" r="26.35" style="fill:#1A476F"/>
	<circle cx="2051.28" cy="1399.78" r="22.03" style="fill:none;stroke:#1A476F;stroke-width:8.64"/>
	<circle cx="1838.06" cy="2180.05" r="26.35" style="fill:#1A476F"/>
	<circle cx="1838.06" cy="2180.05" r="22.03" style="fill:none;stroke:#1A476F;stroke-width:8.64"/>
	<circle cx="2738.34" cy="1459.06" r="26.35" style="fill:#1A476F"/>
	<circle cx="2738.34" cy="1459.06" r="22.03" style="fill:none;stroke:#1A476F;stroke-width:8.64"/>
	<circle cx="1749.95" cy="1932.79" r="26.35" style="fill:#1A476F"/>
	<circle cx="1749.95" cy="1932.79" r="22.03" style="fill:none;stroke:#1A476F;stroke-width:8.64"/>
	<circle cx="2342.09" cy="1453.12" r="26.35" style="fill:#1A476F"/>
	<circle cx="2342.09" cy="1453.12" r="22.03" style="fill:none;stroke:#1A476F;stroke-width:8.64"/>
	<circle cx="2873.60" cy="1861.26" r="26.35" style="fill:#1A476F"/>
	<circle cx="2873.60" cy="1861.26" r="22.03" style="fill:none;stroke:#1A476F;stroke-width:8.64"/>
	<circle cx="2523.63" cy="1583.93" r="26.35" style="fill:#1A476F"/>
	<circle cx="2523.63" cy="1583.93" r="22.03" style="fill:none;stroke:#1A476F;stroke-width:8.64"/>
	<circle cx="2859.74" cy="1451.01" r="26.35" style="fill:#1A476F"/>
	<circle cx="2859.74" cy="1451.01" r="22.03" style="fill:none;stroke:#1A476F;stroke-width:8.64"/>
	<circle cx="2333.68" cy="1971.15" r="26.35" style="fill:#1A476F"/>
	<circle cx="2333.68" cy="1971.15" r="22.03" style="fill:none;stroke:#1A476F;stroke-width:8.64"/>
	<circle cx="2783.26" cy="1523.78" r="26.35" style="fill:#1A476F"/>
	<circle cx="2783.26" cy="1523.78" r="22.03" style="fill:none;stroke:#1A476F;stroke-width:8.64"/>
	<circle cx="2802.07" cy="1530.71" r="26.35" style="fill:#1A476F"/>
	<circle cx="2802.07" cy="1530.71" r="22.03" style="fill:none;stroke:#1A476F;stroke-width:8.64"/>
	<circle cx="2629.56" cy="1144.35" r="26.35" style="fill:#1A476F"/>
	<circle cx="2629.56" cy="1144.35" r="22.03" style="fill:none;stroke:#1A476F;stroke-width:8.64"/>
	<circle cx="2552.96" cy="1708.42" r="26.35" style="fill:#1A476F"/>
	<circle cx="2552.96" cy="1708.42" r="22.03" style="fill:none;stroke:#1A476F;stroke-width:8.64"/>
	<circle cx="3293.36" cy="1000.92" r="26.35" style="fill:#1A476F"/>
	<circle cx="3293.36" cy="1000.92" r="22.03" style="fill:none;stroke:#1A476F;stroke-width:8.64"/>
	<circle cx="2781.53" cy="1517.59" r="26.35" style="fill:#1A476F"/>
	<circle cx="2781.53" cy="1517.59" r="22.03" style="fill:none;stroke:#1A476F;stroke-width:8.64"/>
	<circle cx="2959.98" cy="1334.56" r="26.35" style="fill:#1A476F"/>
	<circle cx="2959.98" cy="1334.56" r="22.03" style="fill:none;stroke:#1A476F;stroke-width:8.64"/>
	<circle cx="2512.99" cy="1790.97" r="26.35" style="fill:#1A476F"/>
	<circle cx="2512.99" cy="1790.97" r="22.03" style="fill:none;stroke:#1A476F;stroke-width:8.64"/>
	<circle cx="2707.40" cy="1455.96" r="26.35" style="fill:#1A476F"/>
	<circle cx="2707.40" cy="1455.96" r="22.03" style="fill:none;stroke:#1A476F;stroke-width:8.64"/>
	<circle cx="3124.93" cy="1373.17" r="26.35" style="fill:#1A476F"/>
	<circle cx="3124.93" cy="1373.17" r="22.03" style="fill:none;stroke:#1A476F;stroke-width:8.64"/>
	<circle cx="2946.86" cy="1538.76" r="26.35" style="fill:#1A476F"/>
	<circle cx="2946.86" cy="1538.76" r="22.03" style="fill:none;stroke:#1A476F;stroke-width:8.64"/>
	<circle cx="2707.90" cy="1467.60" r="26.35" style="fill:#1A476F"/>
	<circle cx="2707.90" cy="1467.60" r="22.03" style="fill:none;stroke:#1A476F;stroke-width:8.64"/>
	<circle cx="2744.40" cy="1510.79" r="26.35" style="fill:#1A476F"/>
	<circle cx="2744.40" cy="1510.79" r="22.03" style="fill:none;stroke:#1A476F;stroke-width:8.64"/>
	<circle cx="2443.44" cy="1703.60" r="26.35" style="fill:#1A476F"/>
	<circle cx="2443.44" cy="1703.60" r="22.03" style="fill:none;stroke:#1A476F;stroke-width:8.64"/>
	<circle cx="2907.75" cy="1401.14" r="26.35" style="fill:#1A476F"/>
	<circle cx="2907.75" cy="1401.14" r="22.03" style="fill:none;stroke:#1A476F;stroke-width:8.64"/>
	<circle cx="3059.47" cy="1217.49" r="26.35" style="fill:#1A476F"/>
	<circle cx="3059.47" cy="1217.49" r="22.03" style="fill:none;stroke:#1A476F;stroke-width:8.64"/>
	<circle cx="2768.29" cy="1524.28" r="26.35" style="fill:#1A476F"/>
	<circle cx="2768.29" cy="1524.28" r="22.03" style="fill:none;stroke:#1A476F;stroke-width:8.64"/>
	<circle cx="2738.46" cy="1508.19" r="26.35" style="fill:#1A476F"/>
	<circle cx="2738.46" cy="1508.19" r="22.03" style="fill:none;stroke:#1A476F;stroke-width:8.64"/>
	<circle cx="1627.93" cy="2074.98" r="26.35" style="fill:#1A476F"/>
	<circle cx="1627.93" cy="2074.98" r="22.03" style="fill:none;stroke:#1A476F;stroke-width:8.64"/>
	<circle cx="2889.81" cy="1350.40" r="26.35" style="fill:#1A476F"/>
	<circle cx="2889.81" cy="1350.40" r="22.03" style="fill:none;stroke:#1A476F;stroke-width:8.64"/>
	<circle cx="2909.86" cy="1309.19" r="26.35" style="fill:#1A476F"/>
	<circle cx="2909.86" cy="1309.19" r="22.03" style="fill:none;stroke:#1A476F;stroke-width:8.64"/>
	<circle cx="2796.50" cy="1490.37" r="26.35" style="fill:#1A476F"/>
	<circle cx="2796.50" cy="1490.37" r="22.03" style="fill:none;stroke:#1A476F;stroke-width:8.64"/>
	<circle cx="2189.39" cy="1627.61" r="26.35" style="fill:#1A476F"/>
	<circle cx="2189.39" cy="1627.61" r="22.03" style="fill:none;stroke:#1A476F;stroke-width:8.64"/>
	<circle cx="2405.08" cy="1921.65" r="26.35" style="fill:#1A476F"/>
	<circle cx="2405.08" cy="1921.65" r="22.03" style="fill:none;stroke:#1A476F;stroke-width:8.64"/>
	<circle cx="2821.75" cy="1441.36" r="26.35" style="fill:#1A476F"/>
	<circle cx="2821.75" cy="1441.36" r="22.03" style="fill:none;stroke:#1A476F;stroke-width:8.64"/>
	<circle cx="3058.73" cy="1223.68" r="26.35" style="fill:#1A476F"/>
	<circle cx="3058.73" cy="1223.68" r="22.03" style="fill:none;stroke:#1A476F;stroke-width:8.64"/>
	<circle cx="2559.03" cy="1762.50" r="26.35" style="fill:#1A476F"/>
	<circle cx="2559.03" cy="1762.50" r="22.03" style="fill:none;stroke:#1A476F;stroke-width:8.64"/>
	<circle cx="2560.26" cy="1486.28" r="26.35" style="fill:#1A476F"/>
	<circle cx="2560.26" cy="1486.28" r="22.03" style="fill:none;stroke:#1A476F;stroke-width:8.64"/>
	<circle cx="3162.06" cy="1104.26" r="26.35" style="fill:#1A476F"/>
	<circle cx="3162.06" cy="1104.26" r="22.03" style="fill:none;stroke:#1A476F;stroke-width:8.64"/>
	<circle cx="2559.64" cy="1752.48" r="26.35" style="fill:#1A476F"/>
	<circle cx="2559.64" cy="1752.48" r="22.03" style="fill:none;stroke:#1A476F;stroke-width:8.64"/>
	<circle cx="2627.95" cy="1863.36" r="26.35" style="fill:#1A476F"/>
	<circle cx="2627.95" cy="1863.36" r="22.03" style="fill:none;stroke:#1A476F;stroke-width:8.64"/>
	<circle cx="2304.10" cy="1775.87" r="26.35" style="fill:#1A476F"/>
	<circle cx="2304.10" cy="1775.87" r="22.03" style="fill:none;stroke:#1A476F;stroke-width:8.64"/>
	<circle cx="2873.47" cy="1166.63" r="26.35" style="fill:#1A476F"/>
	<circle cx="2873.47" cy="1166.63" r="22.03" style="fill:none;stroke:#1A476F;stroke-width:8.64"/>
	<circle cx="3127.41" cy="1165.64" r="26.35" style="fill:#1A476F"/>
	<circle cx="3127.41" cy="1165.64" r="22.03" style="fill:none;stroke:#1A476F;stroke-width:8.64"/>
	<circle cx="2585.63" cy="1707.06" r="26.35" style="fill:#1A476F"/>
	<circle cx="2585.63" cy="1707.06" r="22.03" style="fill:none;stroke:#1A476F;stroke-width:8.64"/>
	<circle cx="2754.43" cy="1560.29" r="26.35" style="fill:#1A476F"/>
	<circle cx="2754.43" cy="1560.29" r="22.03" style="fill:none;stroke:#1A476F;stroke-width:8.64"/>
	<circle cx="2411.52" cy="2107.90" r="26.35" style="fill:#1A476F"/>
	<circle cx="2411.52" cy="2107.90" r="22.03" style="fill:none;stroke:#1A476F;stroke-width:8.64"/>
	<circle cx="2370.18" cy="1552.00" r="26.35" style="fill:#1A476F"/>
	<circle cx="2370.18" cy="1552.00" r="22.03" style="fill:none;stroke:#1A476F;stroke-width:8.64"/>
	<circle cx="2926.19" cy="1358.94" r="26.35" style="fill:#1A476F"/>
	<circle cx="2926.19" cy="1358.94" r="22.03" style="fill:none;stroke:#1A476F;stroke-width:8.64"/>
	<circle cx="3130.38" cy="1448.91" r="26.35" style="fill:#1A476F"/>
	<circle cx="3130.38" cy="1448.91" r="22.03" style="fill:none;stroke:#1A476F;stroke-width:8.64"/>
	<circle cx="2491.95" cy="2037.98" r="26.35" style="fill:#1A476F"/>
	<circle cx="2491.95" cy="2037.98" r="22.03" style="fill:none;stroke:#1A476F;stroke-width:8.64"/>
	<circle cx="1957.72" cy="2376.32" r="26.35" style="fill:#1A476F"/>
	<circle cx="1957.72" cy="2376.32" r="22.03" style="fill:none;stroke:#1A476F;stroke-width:8.64"/>
	<circle cx="2284.05" cy="2127.08" r="26.35" style="fill:#1A476F"/>
	<circle cx="2284.05" cy="2127.08" r="22.03" style="fill:none;stroke:#1A476F;stroke-width:8.64"/>
	<circle cx="2888.32" cy="1416.12" r="26.35" style="fill:#1A476F"/>
	<circle cx="2888.32" cy="1416.12" r="22.03" style="fill:none;stroke:#1A476F;stroke-width:8.64"/>
	<circle cx="2816.05" cy="1498.04" r="26.35" style="fill:#1A476F"/>
	<circle cx="2816.05" cy="1498.04" r="22.03" style="fill:none;stroke:#1A476F;stroke-width:8.64"/>
	<circle cx="2814.07" cy="1475.76" r="26.35" style="fill:#1A476F"/>
	<circle cx="2814.07" cy="1475.76" r="22.03" style="fill:none;stroke:#1A476F;stroke-width:8.64"/>
	<circle cx="2629.81" cy="1698.89" r="26.35" style="fill:#1A476F"/>
	<circle cx="2629.81" cy="1698.89" r="22.03" style="fill:none;stroke:#1A476F;stroke-width:8.64"/>
	<circle cx="2659.51" cy="1905.44" r="26.35" style="fill:#1A476F"/>
	<circle cx="2659.51" cy="1905.44" r="22.03" style="fill:none;stroke:#1A476F;stroke-width:8.64"/>
	<circle cx="1746.11" cy="2187.10" r="26.35" style="fill:#1A476F"/>
	<circle cx="1746.11" cy="2187.10" r="22.03" style="fill:none;stroke:#1A476F;stroke-width:8.64"/>
	<circle cx="2899.96" cy="1397.18" r="26.35" style="fill:#1A476F"/>
	<circle cx="2899.96" cy="1397.18" r="22.03" style="fill:none;stroke:#1A476F;stroke-width:8.64"/>
	<circle cx="3256.48" cy="1039.04" r="26.35" style="fill:#1A476F"/>
	<circle cx="3256.48" cy="1039.04" r="22.03" style="fill:none;stroke:#1A476F;stroke-width:8.64"/>
	<circle cx="2937.08" cy="1300.16" r="26.35" style="fill:#1A476F"/>
	<circle cx="2937.08" cy="1300.16" r="22.03" style="fill:none;stroke:#1A476F;stroke-width:8.64"/>
	<circle cx="2546.90" cy="1845.67" r="26.35" style="fill:#1A476F"/>
	<circle cx="2546.90" cy="1845.67" r="22.03" style="fill:none;stroke:#1A476F;stroke-width:8.64"/>
	<circle cx="2490.34" cy="1468.71" r="26.35" style="fill:#1A476F"/>
	<circle cx="2490.34" cy="1468.71" r="22.03" style="fill:none;stroke:#1A476F;stroke-width:8.64"/>
	<circle cx="2314.74" cy="1853.83" r="26.35" style="fill:#1A476F"/>
	<circle cx="2314.74" cy="1853.83" r="22.03" style="fill:none;stroke:#1A476F;stroke-width:8.64"/>
	<circle cx="2614.34" cy="1888.11" r="26.35" style="fill:#1A476F"/>
	<circle cx="2614.34" cy="1888.11" r="22.03" style="fill:none;stroke:#1A476F;stroke-width:8.64"/>
	<circle cx="2116.62" cy="2256.90" r="26.35" style="fill:#1A476F"/>
	<circle cx="2116.62" cy="2256.90" r="22.03" style="fill:none;stroke:#1A476F;stroke-width:8.64"/>
	<circle cx="2754.18" cy="1577.49" r="26.35" style="fill:#1A476F"/>
	<circle cx="2754.18" cy="1577.49" r="22.03" style="fill:none;stroke:#1A476F;stroke-width:8.64"/>
	<circle cx="2948.34" cy="1384.56" r="26.35" style="fill:#1A476F"/>
	<circle cx="2948.34" cy="1384.56" r="22.03" style="fill:none;stroke:#1A476F;stroke-width:8.64"/>
	<circle cx="2918.03" cy="1387.53" r="26.35" style="fill:#1A476F"/>
	<circle cx="2918.03" cy="1387.53" r="22.03" style="fill:none;stroke:#1A476F;stroke-width:8.64"/>
	<circle cx="2845.76" cy="1474.90" r="26.35" style="fill:#1A476F"/>
	<circle cx="2845.76" cy="1474.90" r="22.03" style="fill:none;stroke:#1A476F;stroke-width:8.64"/>
	<circle cx="2886.84" cy="1423.29" r="26.35" style="fill:#1A476F"/>
	<circle cx="2886.84" cy="1423.29" r="22.03" style="fill:none;stroke:#1A476F;stroke-width:8.64"/>
	<circle cx="2538.48" cy="1796.91" r="26.35" style="fill:#1A476F"/>
	<circle cx="2538.48" cy="1796.91" r="22.03" style="fill:none;stroke:#1A476F;stroke-width:8.64"/>
	<circle cx="2396.91" cy="2047.26" r="26.35" style="fill:#1A476F"/>
	<circle cx="2396.91" cy="2047.26" r="22.03" style="fill:none;stroke:#1A476F;stroke-width:8.64"/>
	<circle cx="1854.77" cy="1768.07" r="26.35" style="fill:#1A476F"/>
	<circle cx="1854.77" cy="1768.07" r="22.03" style="fill:none;stroke:#1A476F;stroke-width:8.64"/>
	<circle cx="3236.06" cy="1053.15" r="26.35" style="fill:#1A476F"/>
	<circle cx="3236.06" cy="1053.15" r="22.03" style="fill:none;stroke:#1A476F;stroke-width:8.64"/>
	<circle cx="2430.20" cy="1936.01" r="26.35" style="fill:#1A476F"/>
	<circle cx="2430.20" cy="1936.01" r="22.03" style="fill:none;stroke:#1A476F;stroke-width:8.64"/>
	<circle cx="2427.36" cy="1915.59" r="26.35" style="fill:#1A476F"/>
	<circle cx="2427.36" cy="1915.59" r="22.03" style="fill:none;stroke:#1A476F;stroke-width:8.64"/>
	<circle cx="2602.09" cy="1578.98" r="26.35" style="fill:#1A476F"/>
	<circle cx="2602.09" cy="1578.98" r="22.03" style="fill:none;stroke:#1A476F;stroke-width:8.64"/>
	<circle cx="2438.49" cy="1532.44" r="26.35" style="fill:#1A476F"/>
	<circle cx="2438.49" cy="1532.44" r="22.03" style="fill:none;stroke:#1A476F;stroke-width:8.64"/>
	<circle cx="2673.62" cy="1777.85" r="26.35" style="fill:#1A476F"/>
	<circle cx="2673.62" cy="1777.85" r="22.03" style="fill:none;stroke:#1A476F;stroke-width:8.64"/>
	<circle cx="2584.02" cy="2047.26" r="26.35" style="fill:#1A476F"/>
	<circle cx="2584.02" cy="2047.26" r="22.03" style="fill:none;stroke:#1A476F;stroke-width:8.64"/>
	<circle cx="3043.88" cy="1581.57" r="26.35" style="fill:#1A476F"/>
	<circle cx="3043.88" cy="1581.57" r="22.03" style="fill:none;stroke:#1A476F;stroke-width:8.64"/>
	<circle cx="3247.32" cy="1044.36" r="26.35" style="fill:#1A476F"/>
	<circle cx="3247.32" cy="1044.36" r="22.03" style="fill:none;stroke:#1A476F;stroke-width:8.64"/>
	<circle cx="3287.42" cy="969.24" r="26.35" style="fill:#1A476F"/>
	<circle cx="3287.42" cy="969.24" r="22.03" style="fill:none;stroke:#1A476F;stroke-width:8.64"/>
	<circle cx="2610.63" cy="1715.72" r="26.35" style="fill:#1A476F"/>
	<circle cx="2610.63" cy="1715.72" r="22.03" style="fill:none;stroke:#1A476F;stroke-width:8.64"/>
	<circle cx="2442.21" cy="1904.08" r="26.35" style="fill:#1A476F"/>
	<circle cx="2442.21" cy="1904.08" r="22.03" style="fill:none;stroke:#1A476F;stroke-width:8.64"/>
	<circle cx="2914.56" cy="1391.98" r="26.35" style="fill:#1A476F"/>
	<circle cx="2914.56" cy="1391.98" r="22.03" style="fill:none;stroke:#1A476F;stroke-width:8.64"/>
	<circle cx="2119.71" cy="2279.92" r="26.35" style="fill:#1A476F"/>
	<circle cx="2119.71" cy="2279.92" r="22.03" style="fill:none;stroke:#1A476F;stroke-width:8.64"/>
	<circle cx="2941.17" cy="1365.87" r="26.35" style="fill:#1A476F"/>
	<circle cx="2941.17" cy="1365.87" r="22.03" style="fill:none;stroke:#1A476F;stroke-width:8.64"/>
	<circle cx="2847.12" cy="1447.30" r="26.35" style="fill:#1A476F"/>
	<circle cx="2847.12" cy="1447.30" r="22.03" style="fill:none;stroke:#1A476F;stroke-width:8.64"/>
	<circle cx="1487.72" cy="1973.26" r="26.35" style="fill:#1A476F"/>
	<circle cx="1487.72" cy="1973.26" r="22.03" style="fill:none;stroke:#1A476F;stroke-width:8.64"/>
	<circle cx="3046.35" cy="1522.42" r="26.35" style="fill:#1A476F"/>
	<circle cx="3046.35" cy="1522.42" r="22.03" style="fill:none;stroke:#1A476F;stroke-width:8.64"/>
	<circle cx="2553.21" cy="1833.29" r="26.35" style="fill:#1A476F"/>
	<circle cx="2553.21" cy="1833.29" r="22.03" style="fill:none;stroke:#1A476F;stroke-width:8.64"/>
	<circle cx="3039.55" cy="1284.57" r="26.35" style="fill:#1A476F"/>
	<circle cx="3039.55" cy="1284.57" r="22.03" style="fill:none;stroke:#1A476F;stroke-width:8.64"/>
	<circle cx="3201.66" cy="992.75" r="26.35" style="fill:#1A476F"/>
	<circle cx="3201.66" cy="992.75" r="22.03" style="fill:none;stroke:#1A476F;stroke-width:8.64"/>
	<circle cx="2798.24" cy="1507.69" r="26.35" style="fill:#1A476F"/>
	<circle cx="2798.24" cy="1507.69" r="22.03" style="fill:none;stroke:#1A476F;stroke-width:8.64"/>
	<circle cx="2639.96" cy="1671.54" r="26.35" style="fill:#1A476F"/>
	<circle cx="2639.96" cy="1671.54" r="22.03" style="fill:none;stroke:#1A476F;stroke-width:8.64"/>
	<circle cx="2793.66" cy="1433.94" r="26.35" style="fill:#1A476F"/>
	<circle cx="2793.66" cy="1433.94" r="22.03" style="fill:none;stroke:#1A476F;stroke-width:8.64"/>
	<circle cx="2474.13" cy="1850.74" r="26.35" style="fill:#1A476F"/>
	<circle cx="2474.13" cy="1850.74" r="22.03" style="fill:none;stroke:#1A476F;stroke-width:8.64"/>
	<circle cx="2328.48" cy="1869.05" r="26.35" style="fill:#1A476F"/>
	<circle cx="2328.48" cy="1869.05" r="22.03" style="fill:none;stroke:#1A476F;stroke-width:8.64"/>
	<circle cx="2747.99" cy="1433.44" r="26.35" style="fill:#1A476F"/>
	<circle cx="2747.99" cy="1433.44" r="22.03" style="fill:none;stroke:#1A476F;stroke-width:8.64"/>
	<circle cx="3165.65" cy="1117.37" r="26.35" style="fill:#1A476F"/>
	<circle cx="3165.65" cy="1117.37" r="22.03" style="fill:none;stroke:#1A476F;stroke-width:8.64"/>
	<circle cx="2197.68" cy="2180.05" r="26.35" style="fill:#1A476F"/>
	<circle cx="2197.68" cy="2180.05" r="22.03" style="fill:none;stroke:#1A476F;stroke-width:8.64"/>
	<circle cx="2575.11" cy="1737.01" r="26.35" style="fill:#1A476F"/>
	<circle cx="2575.11" cy="1737.01" r="22.03" style="fill:none;stroke:#1A476F;stroke-width:8.64"/>
	<circle cx="2635.50" cy="1552.49" r="26.35" style="fill:#1A476F"/>
	<circle cx="2635.50" cy="1552.49" r="22.03" style="fill:none;stroke:#1A476F;stroke-width:8.64"/>
	<circle cx="2528.09" cy="1530.84" r="26.35" style="fill:#1A476F"/>
	<circle cx="2528.09" cy="1530.84" r="22.03" style="fill:none;stroke:#1A476F;stroke-width:8.64"/>
	<circle cx="2722.87" cy="1927.84" r="26.35" style="fill:#1A476F"/>
	<circle cx="2722.87" cy="1927.84" r="22.03" style="fill:none;stroke:#1A476F;stroke-width:8.64"/>
	<circle cx="2824.84" cy="1435.67" r="26.35" style="fill:#1A476F"/>
	<circle cx="2824.84" cy="1435.67" r="22.03" style="fill:none;stroke:#1A476F;stroke-width:8.64"/>
	<circle cx="3080.26" cy="1118.98" r="26.35" style="fill:#1A476F"/>
	<circle cx="3080.26" cy="1118.98" r="22.03" style="fill:none;stroke:#1A476F;stroke-width:8.64"/>
	<circle cx="3101.92" cy="1183.83" r="26.35" style="fill:#1A476F"/>
	<circle cx="3101.92" cy="1183.83" r="22.03" style="fill:none;stroke:#1A476F;stroke-width:8.64"/>
	<circle cx="2598.50" cy="1715.72" r="26.35" style="fill:#1A476F"/>
	<circle cx="2598.50" cy="1715.72" r="22.03" style="fill:none;stroke:#1A476F;stroke-width:8.64"/>
	<circle cx="2519.67" cy="1799.13" r="26.35" style="fill:#1A476F"/>
	<circle cx="2519.67" cy="1799.13" r="22.03" style="fill:none;stroke:#1A476F;stroke-width:8.64"/>
	<circle cx="2980.39" cy="2103.44" r="26.35" style="fill:#1A476F"/>
	<circle cx="2980.39" cy="2103.44" r="22.03" style="fill:none;stroke:#1A476F;stroke-width:8.64"/>
	<circle cx="2262.15" cy="2246.50" r="26.35" style="fill:#1A476F"/>
	<circle cx="2262.15" cy="2246.50" r="22.03" style="fill:none;stroke:#1A476F;stroke-width:8.64"/>
	<circle cx="2590.21" cy="1708.42" r="26.35" style="fill:#1A476F"/>
	<circle cx="2590.21" cy="1708.42" r="22.03" style="fill:none;stroke:#1A476F;stroke-width:8.64"/>
	<circle cx="2184.81" cy="1590.61" r="26.35" style="fill:#1A476F"/>
	<circle cx="2184.81" cy="1590.61" r="22.03" style="fill:none;stroke:#1A476F;stroke-width:8.64"/>
	<circle cx="2783.51" cy="1510.54" r="26.35" style="fill:#1A476F"/>
	<circle cx="2783.51" cy="1510.54" r="22.03" style="fill:none;stroke:#1A476F;stroke-width:8.64"/>
	<circle cx="1941.14" cy="2007.54" r="26.35" style="fill:#1A476F"/>
	<circle cx="1941.14" cy="2007.54" r="22.03" style="fill:none;stroke:#1A476F;stroke-width:8.64"/>
	<circle cx="2683.02" cy="1586.15" r="26.35" style="fill:#1A476F"/>
	<circle cx="2683.02" cy="1586.15" r="22.03" style="fill:none;stroke:#1A476F;stroke-width:8.64"/>
	<circle cx="2092.98" cy="2166.81" r="26.35" style="fill:#1A476F"/>
	<circle cx="2092.98" cy="2166.81" r="22.03" style="fill:none;stroke:#1A476F;stroke-width:8.64"/>
	<circle cx="2968.14" cy="1332.71" r="26.35" style="fill:#1A476F"/>
	<circle cx="2968.14" cy="1332.71" r="22.03" style="fill:none;stroke:#1A476F;stroke-width:8.64"/>
	<circle cx="2347.17" cy="1864.48" r="26.35" style="fill:#1A476F"/>
	<circle cx="2347.17" cy="1864.48" r="22.03" style="fill:none;stroke:#1A476F;stroke-width:8.64"/>
	<circle cx="2673.37" cy="1629.84" r="26.35" style="fill:#1A476F"/>
	<circle cx="2673.37" cy="1629.84" r="22.03" style="fill:none;stroke:#1A476F;stroke-width:8.64"/>
	<circle cx="2549.62" cy="1650.88" r="26.35" style="fill:#1A476F"/>
	<circle cx="2549.62" cy="1650.88" r="22.03" style="fill:none;stroke:#1A476F;stroke-width:8.64"/>
	<circle cx="927.51" cy="2337.83" r="26.35" style="fill:#1A476F"/>
	<circle cx="927.51" cy="2337.83" r="22.03" style="fill:none;stroke:#1A476F;stroke-width:8.64"/>
	<circle cx="2710.12" cy="1561.77" r="26.35" style="fill:#1A476F"/>
	<circle cx="2710.12" cy="1561.77" r="22.03" style="fill:none;stroke:#1A476F;stroke-width:8.64"/>
	<circle cx="2815.68" cy="1410.18" r="26.35" style="fill:#1A476F"/>
	<circle cx="2815.68" cy="1410.18" r="22.03" style="fill:none;stroke:#1A476F;stroke-width:8.64"/>
	<circle cx="2312.64" cy="1861.26" r="26.35" style="fill:#1A476F"/>
	<circle cx="2312.64" cy="1861.26" r="22.03" style="fill:none;stroke:#1A476F;stroke-width:8.64"/>
	<circle cx="2049.05" cy="1698.40" r="26.35" style="fill:#1A476F"/>
	<circle cx="2049.05" cy="1698.40" r="22.03" style="fill:none;stroke:#1A476F;stroke-width:8.64"/>
	<circle cx="2396.67" cy="1897.27" r="26.35" style="fill:#1A476F"/>
	<circle cx="2396.67" cy="1897.27" r="22.03" style="fill:none;stroke:#1A476F;stroke-width:8.64"/>
	<circle cx="2775.84" cy="1558.18" r="26.35" style="fill:#1A476F"/>
	<circle cx="2775.84" cy="1558.18" r="22.03" style="fill:none;stroke:#1A476F;stroke-width:8.64"/>
	<circle cx="2686.86" cy="1766.22" r="26.35" style="fill:#1A476F"/>
	<circle cx="2686.86" cy="1766.22" r="22.03" style="fill:none;stroke:#1A476F;stroke-width:8.64"/>
	<circle cx="2580.56" cy="1569.94" r="26.35" style="fill:#1A476F"/>
	<circle cx="2580.56" cy="1569.94" r="22.03" style="fill:none;stroke:#1A476F;stroke-width:8.64"/>
	<circle cx="2192.36" cy="1870.17" r="26.35" style="fill:#1A476F"/>
	<circle cx="2192.36" cy="1870.17" r="22.03" style="fill:none;stroke:#1A476F;stroke-width:8.64"/>
	<circle cx="2123.43" cy="2227.32" r="26.35" style="fill:#1A476F"/>
	<circle cx="2123.43" cy="2227.32" r="22.03" style="fill:none;stroke:#1A476F;stroke-width:8.64"/>
	<circle cx="3058.11" cy="1215.63" r="26.35" style="fill:#1A476F"/>
	<circle cx="3058.11" cy="1215.63" r="22.03" style="fill:none;stroke:#1A476F;stroke-width:8.64"/>
	<circle cx="3006.01" cy="1293.23" r="26.35" style="fill:#1A476F"/>
	<circle cx="3006.01" cy="1293.23" r="22.03" style="fill:none;stroke:#1A476F;stroke-width:8.64"/>
	<circle cx="2253.12" cy="2053.82" r="26.35" style="fill:#1A476F"/>
	<circle cx="2253.12" cy="2053.82" r="22.03" style="fill:none;stroke:#1A476F;stroke-width:8.64"/>
	<circle cx="2243.46" cy="1969.17" r="26.35" style="fill:#1A476F"/>
	<circle cx="2243.46" cy="1969.17" r="22.03" style="fill:none;stroke:#1A476F;stroke-width:8.64"/>
	<circle cx="2740.07" cy="1567.96" r="26.35" style="fill:#1A476F"/>
	<circle cx="2740.07" cy="1567.96" r="22.03" style="fill:none;stroke:#1A476F;stroke-width:8.64"/>
	<circle cx="2790.93" cy="1577.99" r="26.35" style="fill:#1A476F"/>
	<circle cx="2790.93" cy="1577.99" r="22.03" style="fill:none;stroke:#1A476F;stroke-width:8.64"/>
	<circle cx="2023.44" cy="2292.66" r="26.35" style="fill:#1A476F"/>
	<circle cx="2023.44" cy="2292.66" r="22.03" style="fill:none;stroke:#1A476F;stroke-width:8.64"/>
	<circle cx="2525.24" cy="1791.71" r="26.35" style="fill:#1A476F"/>
	<circle cx="2525.24" cy="1791.71" r="22.03" style="fill:none;stroke:#1A476F;stroke-width:8.64"/>
	<path d=" M2846.62 1457.45 L2060.68 2268.04 L2700.84 1607.81 L2804.05 1501.51 L2707.65 1600.76 L2828.80 1475.89 L2346.55 1973.26 L2669.29 1640.36 L2546.65 1766.83 L1933.35 2399.34 L2734.88 1572.79 L3217.13 1075.42 L2236.66 2086.61 L2699.61 1609.05 L2081.60 2246.50 L2719.16 1589.00 L2676.71 1632.68 L2008.83 2321.50 L2625.23 1685.90 L2540.46 1773.27 L2941.29 1359.93 L2727.20 1580.71 L3205.12 1087.80 L2496.78 1818.32 L2785.61 1520.44 L2521.16 1793.19 L2815.19 1489.87 L2458.29 1858.04 L2592.56 1719.44 L2283.68 2037.98 L3167.63 1126.53 L2513.11 1801.36 L2352.49 1967.19 L2605.43 1706.19 L2747.13 1560.04 L2958.12 1342.48 L2428.97 1888.11 L2376.00 1942.94 L3111.20 1184.70 L3022.97 1275.65 L2869.14 1434.31 L2727.57 1580.34 L2895.87 1406.71 L2828.31 1476.38 L2619.05 1692.21 L3063.43 1233.95 L3019.75 1278.87 L2570.41 1742.33 L3004.77 1294.34 L2661.61 1648.40 L2562.37 1750.75 L2812.59 1492.60 L2617.07 1694.31 L2132.09 2194.40 L2600.73 1711.14 L2236.66 2086.61 L2390.48 1927.84 L2868.53 1434.93 L2737.97 1569.57 L2992.15 1307.46 L2614.59 1696.79 L2483.17 1832.42 L2805.91 1499.40 L2675.85 1633.55 L2597.64 1714.36 L2776.45 1529.85 L2796.26 1509.43 L2436.27 1880.69 L2739.70 1567.84 L2377.61 1941.20 L2327.37 1993.06 L3203.89 1089.03 L2633.65 1677.11 L2036.80 2292.66 L2539.84 1773.89 L2534.65 1779.21 L2158.94 2166.81 L2629.32 1681.57 L2740.57 1566.85 L2986.71 1313.03 L2124.66 2202.08 L2644.91 1665.60 L2254.97 2067.56 L1955.62 2376.32 L2379.34 1939.47 L2566.70 1746.17 L2132.09 2194.40 L2679.56 1629.84 L2331.82 1988.48 L2509.40 1805.32 L3353.62 934.59 L2778.93 1527.37 L3000.69 1298.55 L2356.32 1963.23 L2449.76 1866.70 L2831.77 1472.79 L2927.43 1374.16 L2918.77 1383.07 L2752.57 1554.47 L2872.73 1430.59 L2652.83 1657.44 L2756.90 1550.02 L3073.70 1223.31 L3025.81 1272.68 L2835.73 1468.83 L2867.66 1435.79 L2720.15 1587.89 L2399.51 1918.56 L3235.44 1056.49 L2836.60 1467.72 L2685.99 1623.16 L2187.28 2137.48 L2310.78 2010.13 L2596.28 1715.72 L2552.59 1760.65 L2286.65 2035.01 L2563.36 1749.51 L2108.70 2218.41 L2023.44 2306.52 L3098.70 1197.44 L2622.51 1688.62 L2158.94 2166.81 L2678.07 1631.32 L2713.22 1595.06 L2475.87 1839.85 L3044.62 1253.26 L2962.70 1337.78 L2367.34 1951.85 L2192.36 2132.16 L2577.09 1735.40 L2904.78 1397.43 L3209.33 1083.47 L2211.54 2112.48 L2707.28 1601.25 L2170.82 2154.43 L2244.21 2078.69 L2421.54 1895.91 L2523.26 1790.97 L2527.35 1786.76 L2791.30 1514.62 L2280.71 2041.07 L2626.72 1684.29 L3466.98 817.77 L3012.45 1286.55 L3057.61 1239.89 L2844.64 1459.55 L2268.34 2053.82 L3224.80 1067.50 L3169.61 1124.43 L3137.19 1157.84 L2707.03 1601.50 L2572.51 1740.23 L3019.62 1279.00 L3188.79 1104.63 L2871.00 1432.33 L2858.01 1445.82 L2868.40 1434.93 L2845.26 1458.93 L2810.98 1494.20 L2943.64 1357.46 L2528.71 1785.40 L2985.96 1313.77 L2597.64 1714.36 L2436.27 1880.69 L2925.08 1376.64 L2558.41 1754.71 L2433.91 1883.16 L2500.86 1814.11 L2365.48 1953.70 L2338.26 1981.79 L2839.07 1465.25 L2446.54 1870.17 L2023.44 2306.52 L2597.64 1714.36 L2562.86 1750.13 L2187.28 2137.48 L1992.99 2337.83 L2410.90 1906.92 L2608.40 1703.10 L2313.26 2007.54 L2418.94 1898.63 L2556.68 1756.56 L2813.46 1491.73 L2879.54 1423.54 L2572.02 1740.72 L2720.15 1587.89 L2354.34 1965.09 L2315.61 2005.06 L2791.06 1514.87 L2761.73 1545.07 L2620.90 1690.23 L2995.00 1304.49 L2669.66 1640.11 L2374.27 1944.67 L3029.03 1269.34 L2894.51 1408.07 L2365.48 1953.70 L2401.00 1917.07 L2008.83 2321.50 L2139.27 2187.10 L2100.16 2227.32 L2633.03 1677.85 L2441.96 1874.75 L2403.84 1914.10 L2271.55 2050.48 L2305.71 2015.33 L1907.61 2425.95 L2440.84 1875.98 L2023.44 2306.52 L2100.16 2227.32 L2108.70 2218.41 L2158.94 2166.81 L2320.44 2000.11 L2902.56 1399.78 L2146.07 2180.05 L2845.14 1459.06 L2385.78 1932.79 L2850.95 1453.12 L2455.08 1861.26 L2723.99 1583.93 L2852.93 1451.01 L2348.53 1971.15 L2782.39 1523.78 L2775.71 1530.71 L3150.18 1144.35 L2603.33 1708.42 L3289.40 1000.92 L2788.34 1517.59 L2965.79 1334.56 L2523.26 1790.97 L2848.11 1455.96 L2928.42 1373.17 L2767.79 1538.76 L2836.84 1467.60 L2794.89 1510.79 L2608.03 1703.60 L2901.20 1401.14 L3079.39 1217.49 L2781.90 1524.28 L2797.49 1508.19 L2247.92 2074.98 L2950.45 1350.40 L2990.42 1309.19 L2814.69 1490.37 L2681.66 1627.61 L2396.54 1921.65 L2862.21 1441.36 L3073.33 1223.68 L3432.33 853.53 L2550.86 1762.50 L2818.65 1486.28 L3189.16 1104.26 L2560.64 1752.48 L2452.97 1863.36 L2537.99 1775.87 L3128.77 1166.63 L3129.64 1165.64 L2604.57 1707.06 L2747.00 1560.29 L2215.99 2107.90 L2755.05 1552.00 L2942.16 1358.94 L2855.04 1448.91 L2283.68 2037.98 L1955.62 2376.32 L2197.43 2127.08 L2886.84 1416.12 L2807.39 1498.04 L2828.93 1475.76 L2612.61 1698.89 L2412.26 1905.44 L2139.27 2187.10 L2905.16 1397.18 L3252.40 1039.04 L2999.20 1300.16 L2470.17 1845.67 L2835.86 1468.71 L2462.38 1853.83 L2428.97 1888.11 L2071.45 2256.90 L2730.17 1577.49 L2917.28 1384.56 L2914.44 1387.53 L2829.79 1474.90 L2879.79 1423.29 L2517.57 1796.91 L2274.65 2047.26 L2545.41 1768.07 L3238.66 1053.15 L2382.56 1936.01 L2402.48 1915.59 L2728.81 1578.98 L2773.98 1532.44 L2536.01 1777.85 L2274.65 2047.26 L2726.34 1581.57 L3247.20 1044.36 L3320.09 969.24 L2596.28 1715.72 L2413.62 1904.08 L2910.11 1391.98 L2049.18 2279.92 L2935.47 1365.87 L2710.74 1597.66 L2856.52 1447.30 L2346.55 1973.26 L2783.63 1522.42 L2482.18 1833.29 L3014.30 1284.57 L3297.32 992.75 L2797.86 1507.69 L2639.09 1671.54 L2869.39 1433.94 L2465.35 1850.74 L2447.65 1869.05 L2870.01 1433.44 L3176.41 1117.37 L2146.07 2180.05 L2575.61 1737.01 L2754.55 1552.49 L2775.59 1530.84 L2390.48 1927.84 L2867.78 1435.67 L3174.93 1118.98 L3111.94 1183.83 L2596.28 1715.72 L2515.34 1799.13 L2220.32 2103.44 L1907.61 2425.95 L2403.84 1914.10 L2350.51 1969.17 L2611.37 1700.13 L2720.89 1587.27 L2457.18 1859.03 L2894.88 1407.70 L2060.68 2268.04 L2197.43 2127.08 L3261.18 1030.00 L3024.45 1274.17 L3644.93 634.24 L3160.33 1134.08 L2081.60 2246.50 L2603.33 1708.42 L2717.55 1590.61 L2795.14 1510.54 L2313.26 2007.54 L2721.88 1586.15 L2158.94 2166.81 L2967.65 1332.71 L2451.98 1864.48 L2679.56 1629.84 L2659.14 1650.88 L1992.99 2337.83 L2745.52 1561.77 L2892.53 1410.18 L2455.08 1861.26 L2612.98 1698.40 L2420.18 1897.27 L2748.98 1558.18 L2547.27 1766.22 L2737.60 1569.94 L1975.30 2356.03 L2446.54 1870.17 L2100.16 2227.32 L2091.13 2236.60 L3081.13 1215.63 L3005.89 1293.23 L2268.34 2053.82 L2350.51 1969.17 L2739.45 1567.96 L2729.80 1577.99 L2036.80 2292.66 L2522.52 1791.71" stroke-linejoin="round" style="fill:none;stroke:#90353B;stroke-width:8.64"/>
	<line x1="390.80" y1="2489.19" x2="390.80" y2="415.32" style="stroke:#000000;stroke-width:5.76"/>
	<line x1="390.80" y1="2201.83" x2="350.83" y2="2201.83" style="stroke:#000000;stroke-width:5.76"/>
	<text x="300.72" y="2201.83" style="font-family:'Helvetica';font-size:99.99px;fill:#000000" transform="rotate(-90 300.72,2201.83)" text-anchor="middle">10</text>
	<line x1="390.80" y1="1340.25" x2="350.83" y2="1340.25" style="stroke:#000000;stroke-width:5.76"/>
	<text x="300.72" y="1340.25" style="font-family:'Helvetica';font-size:99.99px;fill:#000000" transform="rotate(-90 300.72,1340.25)" text-anchor="middle">15</text>
	<line x1="390.80" y1="478.68" x2="350.83" y2="478.68" style="stroke:#000000;stroke-width:5.76"/>
	<text x="300.72" y="478.68" style="font-family:'Helvetica';font-size:99.99px;fill:#000000" transform="rotate(-90 300.72,478.68)" text-anchor="middle">20</text>
	<text x="190.71" y="1452.25" style="font-family:'Helvetica';font-size:99.99px;fill:#000000" transform="rotate(-90 190.71,1452.25)" text-anchor="middle">Source : Résumé</text>
	<line x1="390.80" y1="2489.19" x2="3859.02" y2="2489.19" style="stroke:#000000;stroke-width:5.76"/>
	<line x1="454.16" y1="2489.19" x2="454.16" y2="2529.16" style="stroke:#000000;stroke-width:5.76"/>
	<text x="454.16" y="2619.14" style="font-family:'Helvetica';font-size:99.99px;fill:#000000" text-anchor="middle">0</text>
	<line x1="1289.47" y1="2489.19" x2="1289.47" y2="2529.16" style="stroke:#000000;stroke-width:5.76"/>
	<text x="1289.47" y="2619.14" style="font-family:'Helvetica';font-size:99.99px;fill:#000000" text-anchor="middle">5</text>
	<line x1="2124.91" y1="2489.19" x2="2124.91" y2="2529.16" style="stroke:#000000;stroke-width:5.76"/>
	<text x="2124.91" y="2619.14" style="font-family:'Helvetica';font-size:99.99px;fill:#000000" text-anchor="middle">10</text>
	<line x1="2960.35" y1="2489.19" x2="2960.35" y2="2529.16" style="stroke:#000000;stroke-width:5.76"/>
	<text x="2960.35" y="2619.14" style="font-family:'Helvetica';font-size:99.99px;fill:#000000" text-anchor="middle">15</text>
	<line x1="3795.66" y1="2489.19" x2="3795.66" y2="2529.16" style="stroke:#000000;stroke-width:5.76"/>
	<text x="3795.66" y="2619.14" style="font-family:'Helvetica';font-size:99.99px;fill:#000000" text-anchor="middle">20</text>
	<text x="2124.91" y="2729.16" style="font-family:'Helvetica';font-size:99.99px;fill:#000000" text-anchor="middle">Sources : autres</text>
	<text x="2124.91" y="215.98" style="font-family:'Helvetica';font-size:139.96px;fill:#1E2D53" text-anchor="middle">Valeurs résumées VS Valeurs non résumées</text>
	<text x="2124.91" y="356.06" style="font-family:'Helvetica';font-size:139.96px;fill:#1E2D53" text-anchor="middle"> par partenaire et produit (Imports 1789)</text>
</svg>
