<?xml version="1.0" encoding="UTF-8" standalone="no"?>
<!-- This is a Stata 17.0 generated SVG file (http://www.stata.com) -->

<svg version="1.1" width="5.50in" height="4.00in" viewBox="0 0 3960 2880" xmlns="http://www.w3.org/2000/svg" xmlns:xlink="http://www.w3.org/1999/xlink">
	<desc>Stata Graph - graph3</desc>
	<rect x="0" y="0" width="3960" height="2880" style="fill:#EAF2F3;stroke:none"/>
	<rect x="0.00" y="0.00" width="3959.88" height="2880.00" style="fill:#EAF2F3"/>
	<rect x="2.88" y="2.88" width="3954.12" height="2874.24" style="fill:none;stroke:#EAF2F3;stroke-width:5.76"/>
	<rect x="390.80" y="415.32" width="3468.22" height="2073.87" style="fill:#FFFFFF"/>
	<rect x="393.68" y="418.20" width="3462.46" height="2068.11" style="fill:none;stroke:#FFFFFF;stroke-width:5.76"/>
	<line x1="390.80" y1="2425.82" x2="3859.02" y2="2425.82" style="stroke:#EAF2F3;stroke-width:8.64"/>
	<line x1="390.80" y1="1939.10" x2="3859.02" y2="1939.10" style="stroke:#EAF2F3;stroke-width:8.64"/>
	<line x1="390.80" y1="1452.25" x2="3859.02" y2="1452.25" style="stroke:#EAF2F3;stroke-width:8.64"/>
	<line x1="390.80" y1="965.53" x2="3859.02" y2="965.53" style="stroke:#EAF2F3;stroke-width:8.64"/>
	<line x1="390.80" y1="478.68" x2="3859.02" y2="478.68" style="stroke:#EAF2F3;stroke-width:8.64"/>
	<circle cx="2457.06" cy="1305.48" r="26.35" style="fill:#1A476F"/>
	<circle cx="2457.06" cy="1305.48" r="22.03" style="fill:none;stroke:#1A476F;stroke-width:8.64"/>
	<text x="2499.01" y="1333.49" style="font-family:'Helvetica';font-size:79.94px;fill:#1A476f">Articles manufacturés divers n.d.a</text>
	<circle cx="1672.23" cy="1752.97" r="26.35" style="fill:#1A476F"/>
	<circle cx="1672.23" cy="1752.97" r="22.03" style="fill:none;stroke:#1A476F;stroke-width:8.64"/>
	<text x="1714.18" y="1780.99" style="font-family:'Helvetica';font-size:79.94px;fill:#1A476f">Articles minéraux non métalliques manufacturés, n.d.a.</text>
	<circle cx="1539.57" cy="1772.40" r="26.35" style="fill:#1A476F"/>
	<circle cx="1539.57" cy="1772.40" r="22.03" style="fill:none;stroke:#1A476F;stroke-width:8.64"/>
	<text x="1581.53" y="1800.41" style="font-family:'Helvetica';font-size:79.94px;fill:#1A476f">Autres filés ou tissés</text>
	<circle cx="1838.43" cy="1133.21" r="26.35" style="fill:#1A476F"/>
	<circle cx="1838.43" cy="1133.21" r="22.03" style="fill:none;stroke:#1A476F;stroke-width:8.64"/>
	<text x="1880.38" y="1161.23" style="font-family:'Helvetica';font-size:79.94px;fill:#1A476f">Autres filés ou tissés mélangés de fibres végétales dont toiles</text>
	<circle cx="2570.66" cy="1187.67" r="26.35" style="fill:#1A476F"/>
	<circle cx="2570.66" cy="1187.67" r="22.03" style="fill:none;stroke:#1A476F;stroke-width:8.64"/>
	<text x="2612.61" y="1215.68" style="font-family:'Helvetica';font-size:79.94px;fill:#1A476f">Autres produits alimentaires et animaux</text>
	<circle cx="2886.34" cy="1010.08" r="26.35" style="fill:#1A476F"/>
	<circle cx="2886.34" cy="1010.08" r="22.03" style="fill:none;stroke:#1A476F;stroke-width:8.64"/>
	<text x="2928.30" y="1038.09" style="font-family:'Helvetica';font-size:79.94px;fill:#1A476f">Boissons et tabac</text>
	<circle cx="927.75" cy="1953.95" r="26.35" style="fill:#1A476F"/>
	<circle cx="927.75" cy="1953.95" r="22.03" style="fill:none;stroke:#1A476F;stroke-width:8.64"/>
	<text x="969.71" y="1981.96" style="font-family:'Helvetica';font-size:79.94px;fill:#1A476f">Combustibles</text>
	<circle cx="1858.35" cy="1614.12" r="26.35" style="fill:#1A476F"/>
	<circle cx="1858.35" cy="1614.12" r="22.03" style="fill:none;stroke:#1A476F;stroke-width:8.64"/>
	<text x="1900.31" y="1642.13" style="font-family:'Helvetica';font-size:79.94px;fill:#1A476f">Cuirs, peaux et produits dérivés hors sellerie</text>
	<circle cx="2254.60" cy="1334.19" r="26.35" style="fill:#1A476F"/>
	<circle cx="2254.60" cy="1334.19" r="22.03" style="fill:none;stroke:#1A476F;stroke-width:8.64"/>
	<text x="2296.55" y="1362.20" style="font-family:'Helvetica';font-size:79.94px;fill:#1A476f">Divers mélangés</text>
	<circle cx="2506.18" cy="1305.48" r="26.35" style="fill:#1A476F"/>
	<circle cx="2506.18" cy="1305.48" r="22.03" style="fill:none;stroke:#1A476F;stroke-width:8.64"/>
	<text x="2548.14" y="1333.49" style="font-family:'Helvetica';font-size:79.94px;fill:#1A476f">Filés ou tissés de coton</text>
	<circle cx="2562.61" cy="1582.44" r="26.35" style="fill:#1A476F"/>
	<circle cx="2562.61" cy="1582.44" r="22.03" style="fill:none;stroke:#1A476F;stroke-width:8.64"/>
	<text x="2604.57" y="1610.45" style="font-family:'Helvetica';font-size:79.94px;fill:#1A476f">Filés ou tissés de fibre végétale non mélangée (lin, chanvre, jute, etc.)</text>
	<circle cx="2552.22" cy="1193.73" r="26.35" style="fill:#1A476F"/>
	<circle cx="2552.22" cy="1193.73" r="22.03" style="fill:none;stroke:#1A476F;stroke-width:8.64"/>
	<text x="2594.17" y="1221.74" style="font-family:'Helvetica';font-size:79.94px;fill:#1A476f">Filés ou tissés de laine et de poil</text>
	<circle cx="2551.48" cy="1151.78" r="26.35" style="fill:#1A476F"/>
	<circle cx="2551.48" cy="1151.78" r="22.03" style="fill:none;stroke:#1A476F;stroke-width:8.64"/>
	<text x="2593.43" y="1179.79" style="font-family:'Helvetica';font-size:79.94px;fill:#1A476f">Filés ou tissés de soie et soie mélangée</text>
	<circle cx="1906.12" cy="1618.82" r="26.35" style="fill:#1A476F"/>
	<circle cx="1906.12" cy="1618.82" r="22.03" style="fill:none;stroke:#1A476F;stroke-width:8.64"/>
	<text x="1948.07" y="1646.84" style="font-family:'Helvetica';font-size:79.94px;fill:#1A476f">Huiles, graisses et cires d'origine animale et végétale</text>
	<circle cx="1488.71" cy="1913.11" r="26.35" style="fill:#1A476F"/>
	<circle cx="1488.71" cy="1913.11" r="22.03" style="fill:none;stroke:#1A476F;stroke-width:8.64"/>
	<text x="1530.66" y="1941.12" style="font-family:'Helvetica';font-size:79.94px;fill:#1A476f">Machines et moyens de transport y compris sellerie</text>
	<circle cx="2382.56" cy="1167.99" r="26.35" style="fill:#1A476F"/>
	<circle cx="2382.56" cy="1167.99" r="22.03" style="fill:none;stroke:#1A476F;stroke-width:8.64"/>
	<text x="2424.51" y="1196.00" style="font-family:'Helvetica';font-size:79.94px;fill:#1A476f">Matières brutes non-comestibles non transformées n.d.a.</text>
	<circle cx="816.13" cy="2324.35" r="26.35" style="fill:#1A476F"/>
	<circle cx="816.13" cy="2324.35" r="22.03" style="fill:none;stroke:#1A476F;stroke-width:8.64"/>
	<text x="858.08" y="2352.36" style="font-family:'Helvetica';font-size:79.94px;fill:#1A476f">Monnaies et métaux précieux</text>
	<circle cx="2047.69" cy="1512.64" r="26.35" style="fill:#1A476F"/>
	<circle cx="2047.69" cy="1512.64" r="22.03" style="fill:none;stroke:#1A476F;stroke-width:8.64"/>
	<text x="2089.64" y="1540.66" style="font-family:'Helvetica';font-size:79.94px;fill:#1A476f">Métaux, produits métalliques et outils</text>
	<circle cx="1538.21" cy="1809.41" r="26.35" style="fill:#1A476F"/>
	<circle cx="1538.21" cy="1809.41" r="22.03" style="fill:none;stroke:#1A476F;stroke-width:8.64"/>
	<text x="1580.16" y="1837.42" style="font-family:'Helvetica';font-size:79.94px;fill:#1A476f">Papier</text>
	<circle cx="3289.40" cy="770.49" r="26.35" style="fill:#1A476F"/>
	<circle cx="3289.40" cy="770.49" r="22.03" style="fill:none;stroke:#1A476F;stroke-width:8.64"/>
	<text x="3331.35" y="798.50" style="font-family:'Helvetica';font-size:79.94px;fill:#1A476f">Produits agricoles alimentaires des régions de colonisation européenne</text>
	<circle cx="2427.60" cy="1284.19" r="26.35" style="fill:#1A476F"/>
	<circle cx="2427.60" cy="1284.19" r="22.03" style="fill:none;stroke:#1A476F;stroke-width:8.64"/>
	<text x="2469.55" y="1312.21" style="font-family:'Helvetica';font-size:79.94px;fill:#1A476f">Produits chimiques transformés n.d.a.</text>
	<circle cx="1491.93" cy="2186.61" r="26.35" style="fill:#1A476F"/>
	<circle cx="1491.93" cy="2186.61" r="22.03" style="fill:none;stroke:#1A476F;stroke-width:8.64"/>
	<text x="1533.88" y="2214.62" style="font-family:'Helvetica';font-size:79.94px;fill:#1A476f">Produits du bois, liège, jonc</text>
	<path d=" M2376.74 1305.60 L1584.49 1767.21 L1608.75 1753.10 L1266.09 1952.84 L1575.46 1772.53 L2286.03 1358.45 L2672.51 1133.21 L2340.24 1326.77 L2578.95 1187.79 L3124.93 869.62 L2883.62 1010.20 L2348.90 1321.82 L1263.86 1954.07 L1896.35 1585.53 L1847.22 1614.12 L2027.27 1509.18 L2327.61 1334.19 L2145.08 1440.50 L2376.87 1305.48 L2228.99 1391.74 L1901.54 1582.44 L1687.83 1707.06 L2568.55 1193.73 L1248.39 1963.11 L2640.58 1151.90 L1668.77 1718.07 L1839.05 1618.95 L2625.11 1160.81 L1334.03 1913.11 L826.53 2208.88 L2612.73 1167.99 L3150.80 854.52 L628.28 2324.35 L2922.23 987.68 L2021.21 1512.77 L2510.02 1227.89 L1512.10 1809.41 L3294.97 770.49 L3432.58 690.30 L2413.25 1284.32 L2670.90 1134.20 L864.76 2186.61 L759.33 2247.99" stroke-linejoin="round" style="fill:none;stroke:#90353B;stroke-width:8.64"/>
	<line x1="390.80" y1="2489.19" x2="390.80" y2="415.32" style="stroke:#000000;stroke-width:5.76"/>
	<line x1="390.80" y1="2425.82" x2="350.83" y2="2425.82" style="stroke:#000000;stroke-width:5.76"/>
	<text x="300.72" y="2425.82" style="font-family:'Helvetica';font-size:99.99px;fill:#000000" transform="rotate(-90 300.72,2425.82)" text-anchor="middle">12</text>
	<line x1="390.80" y1="1939.10" x2="350.83" y2="1939.10" style="stroke:#000000;stroke-width:5.76"/>
	<text x="300.72" y="1939.10" style="font-family:'Helvetica';font-size:99.99px;fill:#000000" transform="rotate(-90 300.72,1939.10)" text-anchor="middle">14</text>
	<line x1="390.80" y1="1452.25" x2="350.83" y2="1452.25" style="stroke:#000000;stroke-width:5.76"/>
	<text x="300.72" y="1452.25" style="font-family:'Helvetica';font-size:99.99px;fill:#000000" transform="rotate(-90 300.72,1452.25)" text-anchor="middle">16</text>
	<line x1="390.80" y1="965.53" x2="350.83" y2="965.53" style="stroke:#000000;stroke-width:5.76"/>
	<text x="300.72" y="965.53" style="font-family:'Helvetica';font-size:99.99px;fill:#000000" transform="rotate(-90 300.72,965.53)" text-anchor="middle">18</text>
	<line x1="390.80" y1="478.68" x2="350.83" y2="478.68" style="stroke:#000000;stroke-width:5.76"/>
	<text x="300.72" y="478.68" style="font-family:'Helvetica';font-size:99.99px;fill:#000000" transform="rotate(-90 300.72,478.68)" text-anchor="middle">20</text>
	<text x="190.71" y="1452.25" style="font-family:'Helvetica';font-size:99.99px;fill:#000000" transform="rotate(-90 190.71,1452.25)" text-anchor="middle">Source Résumé</text>
	<line x1="390.80" y1="2489.19" x2="3859.02" y2="2489.19" style="stroke:#000000;stroke-width:5.76"/>
	<line x1="454.16" y1="2489.19" x2="454.16" y2="2529.16" style="stroke:#000000;stroke-width:5.76"/>
	<text x="454.16" y="2619.14" style="font-family:'Helvetica';font-size:99.99px;fill:#000000" text-anchor="middle">12</text>
	<line x1="1289.47" y1="2489.19" x2="1289.47" y2="2529.16" style="stroke:#000000;stroke-width:5.76"/>
	<text x="1289.47" y="2619.14" style="font-family:'Helvetica';font-size:99.99px;fill:#000000" text-anchor="middle">14</text>
	<line x1="2124.91" y1="2489.19" x2="2124.91" y2="2529.16" style="stroke:#000000;stroke-width:5.76"/>
	<text x="2124.91" y="2619.14" style="font-family:'Helvetica';font-size:99.99px;fill:#000000" text-anchor="middle">16</text>
	<line x1="2960.35" y1="2489.19" x2="2960.35" y2="2529.16" style="stroke:#000000;stroke-width:5.76"/>
	<text x="2960.35" y="2619.14" style="font-family:'Helvetica';font-size:99.99px;fill:#000000" text-anchor="middle">18</text>
	<line x1="3795.66" y1="2489.19" x2="3795.66" y2="2529.16" style="stroke:#000000;stroke-width:5.76"/>
	<text x="3795.66" y="2619.14" style="font-family:'Helvetica';font-size:99.99px;fill:#000000" text-anchor="middle">20</text>
	<text x="2124.91" y="2729.16" style="font-family:'Helvetica';font-size:99.99px;fill:#000000" text-anchor="middle">Sources : autres</text>
	<text x="2124.91" y="215.98" style="font-family:'Helvetica';font-size:139.96px;fill:#1E2D53" text-anchor="middle">Valeurs résumées VS Valeurs non résumées</text>
	<text x="2124.91" y="356.06" style="font-family:'Helvetica';font-size:139.96px;fill:#1E2D53" text-anchor="middle"> par produit (Exports 1789)</text>
</svg>
