<?xml version="1.0" encoding="UTF-8" standalone="no"?>
<!-- This is a Stata 17.0 generated SVG file (http://www.stata.com) -->

<svg version="1.1" width="5.50in" height="4.00in" viewBox="0 0 3960 2880" xmlns="http://www.w3.org/2000/svg" xmlns:xlink="http://www.w3.org/1999/xlink">
	<desc>Stata Graph - graph3</desc>
	<rect x="0" y="0" width="3960" height="2880" style="fill:#EAF2F3;stroke:none"/>
	<rect x="0.00" y="0.00" width="3959.88" height="2880.00" style="fill:#EAF2F3"/>
	<rect x="2.88" y="2.88" width="3954.12" height="2874.24" style="fill:none;stroke:#EAF2F3;stroke-width:5.76"/>
	<rect x="390.80" y="415.32" width="3468.22" height="2073.87" style="fill:#FFFFFF"/>
	<rect x="393.68" y="418.20" width="3462.46" height="2068.11" style="fill:none;stroke:#FFFFFF;stroke-width:5.76"/>
	<line x1="390.80" y1="2201.83" x2="3859.02" y2="2201.83" style="stroke:#EAF2F3;stroke-width:8.64"/>
	<line x1="390.80" y1="1340.25" x2="3859.02" y2="1340.25" style="stroke:#EAF2F3;stroke-width:8.64"/>
	<line x1="390.80" y1="478.68" x2="3859.02" y2="478.68" style="stroke:#EAF2F3;stroke-width:8.64"/>
	<circle cx="2091.87" cy="2000.11" r="26.35" style="fill:#1A476F"/>
	<circle cx="2091.87" cy="2000.11" r="22.03" style="fill:none;stroke:#1A476F;stroke-width:8.64"/>
	<circle cx="1469.78" cy="1399.78" r="26.35" style="fill:#1A476F"/>
	<circle cx="1469.78" cy="1399.78" r="22.03" style="fill:none;stroke:#1A476F;stroke-width:8.64"/>
	<circle cx="1185.53" cy="2180.05" r="26.35" style="fill:#1A476F"/>
	<circle cx="1185.53" cy="2180.05" r="22.03" style="fill:none;stroke:#1A476F;stroke-width:8.64"/>
	<circle cx="2385.90" cy="1459.06" r="26.35" style="fill:#1A476F"/>
	<circle cx="2385.90" cy="1459.06" r="22.03" style="fill:none;stroke:#1A476F;stroke-width:8.64"/>
	<circle cx="1068.09" cy="1932.79" r="26.35" style="fill:#1A476F"/>
	<circle cx="1068.09" cy="1932.79" r="22.03" style="fill:none;stroke:#1A476F;stroke-width:8.64"/>
	<circle cx="1857.49" cy="1453.12" r="26.35" style="fill:#1A476F"/>
	<circle cx="1857.49" cy="1453.12" r="22.03" style="fill:none;stroke:#1A476F;stroke-width:8.64"/>
	<circle cx="2566.33" cy="1861.26" r="26.35" style="fill:#1A476F"/>
	<circle cx="2566.33" cy="1861.26" r="22.03" style="fill:none;stroke:#1A476F;stroke-width:8.64"/>
	<circle cx="2099.67" cy="1583.93" r="26.35" style="fill:#1A476F"/>
	<circle cx="2099.67" cy="1583.93" r="22.03" style="fill:none;stroke:#1A476F;stroke-width:8.64"/>
	<circle cx="2547.76" cy="1451.01" r="26.35" style="fill:#1A476F"/>
	<circle cx="2547.76" cy="1451.01" r="22.03" style="fill:none;stroke:#1A476F;stroke-width:8.64"/>
	<circle cx="1846.35" cy="1971.15" r="26.35" style="fill:#1A476F"/>
	<circle cx="1846.35" cy="1971.15" r="22.03" style="fill:none;stroke:#1A476F;stroke-width:8.64"/>
	<circle cx="2445.80" cy="1523.78" r="26.35" style="fill:#1A476F"/>
	<circle cx="2445.80" cy="1523.78" r="22.03" style="fill:none;stroke:#1A476F;stroke-width:8.64"/>
	<circle cx="2470.79" cy="1530.71" r="26.35" style="fill:#1A476F"/>
	<circle cx="2470.79" cy="1530.71" r="22.03" style="fill:none;stroke:#1A476F;stroke-width:8.64"/>
	<circle cx="2240.86" cy="1144.35" r="26.35" style="fill:#1A476F"/>
	<circle cx="2240.86" cy="1144.35" r="22.03" style="fill:none;stroke:#1A476F;stroke-width:8.64"/>
	<circle cx="2132.83" cy="1708.42" r="26.35" style="fill:#1A476F"/>
	<circle cx="2132.83" cy="1708.42" r="22.03" style="fill:none;stroke:#1A476F;stroke-width:8.64"/>
	<circle cx="3125.93" cy="1000.92" r="26.35" style="fill:#1A476F"/>
	<circle cx="3125.93" cy="1000.92" r="22.03" style="fill:none;stroke:#1A476F;stroke-width:8.64"/>
	<circle cx="2443.44" cy="1517.59" r="26.35" style="fill:#1A476F"/>
	<circle cx="2443.44" cy="1517.59" r="22.03" style="fill:none;stroke:#1A476F;stroke-width:8.64"/>
	<circle cx="2681.41" cy="1334.56" r="26.35" style="fill:#1A476F"/>
	<circle cx="2681.41" cy="1334.56" r="22.03" style="fill:none;stroke:#1A476F;stroke-width:8.64"/>
	<circle cx="2085.56" cy="1790.97" r="26.35" style="fill:#1A476F"/>
	<circle cx="2085.56" cy="1790.97" r="22.03" style="fill:none;stroke:#1A476F;stroke-width:8.64"/>
	<circle cx="2344.69" cy="1455.96" r="26.35" style="fill:#1A476F"/>
	<circle cx="2344.69" cy="1455.96" r="22.03" style="fill:none;stroke:#1A476F;stroke-width:8.64"/>
	<circle cx="2901.57" cy="1373.17" r="26.35" style="fill:#1A476F"/>
	<circle cx="2901.57" cy="1373.17" r="22.03" style="fill:none;stroke:#1A476F;stroke-width:8.64"/>
	<circle cx="2663.97" cy="1538.76" r="26.35" style="fill:#1A476F"/>
	<circle cx="2663.97" cy="1538.76" r="22.03" style="fill:none;stroke:#1A476F;stroke-width:8.64"/>
	<circle cx="2345.19" cy="1467.60" r="26.35" style="fill:#1A476F"/>
	<circle cx="2345.19" cy="1467.60" r="22.03" style="fill:none;stroke:#1A476F;stroke-width:8.64"/>
	<circle cx="2394.07" cy="1510.79" r="26.35" style="fill:#1A476F"/>
	<circle cx="2394.07" cy="1510.79" r="22.03" style="fill:none;stroke:#1A476F;stroke-width:8.64"/>
	<circle cx="1992.75" cy="1703.60" r="26.35" style="fill:#1A476F"/>
	<circle cx="1992.75" cy="1703.60" r="22.03" style="fill:none;stroke:#1A476F;stroke-width:8.64"/>
	<circle cx="2611.87" cy="1401.14" r="26.35" style="fill:#1A476F"/>
	<circle cx="2611.87" cy="1401.14" r="22.03" style="fill:none;stroke:#1A476F;stroke-width:8.64"/>
	<circle cx="2814.07" cy="1217.49" r="26.35" style="fill:#1A476F"/>
	<circle cx="2814.07" cy="1217.49" r="22.03" style="fill:none;stroke:#1A476F;stroke-width:8.64"/>
	<circle cx="2425.87" cy="1524.28" r="26.35" style="fill:#1A476F"/>
	<circle cx="2425.87" cy="1524.28" r="22.03" style="fill:none;stroke:#1A476F;stroke-width:8.64"/>
	<circle cx="2386.15" cy="1508.19" r="26.35" style="fill:#1A476F"/>
	<circle cx="2386.15" cy="1508.19" r="22.03" style="fill:none;stroke:#1A476F;stroke-width:8.64"/>
	<circle cx="905.36" cy="2074.98" r="26.35" style="fill:#1A476F"/>
	<circle cx="905.36" cy="2074.98" r="22.03" style="fill:none;stroke:#1A476F;stroke-width:8.64"/>
	<circle cx="2587.86" cy="1350.40" r="26.35" style="fill:#1A476F"/>
	<circle cx="2587.86" cy="1350.40" r="22.03" style="fill:none;stroke:#1A476F;stroke-width:8.64"/>
	<circle cx="2614.47" cy="1309.19" r="26.35" style="fill:#1A476F"/>
	<circle cx="2614.47" cy="1309.19" r="22.03" style="fill:none;stroke:#1A476F;stroke-width:8.64"/>
	<circle cx="2463.49" cy="1490.37" r="26.35" style="fill:#1A476F"/>
	<circle cx="2463.49" cy="1490.37" r="22.03" style="fill:none;stroke:#1A476F;stroke-width:8.64"/>
	<circle cx="1653.92" cy="1627.61" r="26.35" style="fill:#1A476F"/>
	<circle cx="1653.92" cy="1627.61" r="22.03" style="fill:none;stroke:#1A476F;stroke-width:8.64"/>
	<circle cx="1941.51" cy="1921.65" r="26.35" style="fill:#1A476F"/>
	<circle cx="1941.51" cy="1921.65" r="22.03" style="fill:none;stroke:#1A476F;stroke-width:8.64"/>
	<circle cx="2497.03" cy="1441.36" r="26.35" style="fill:#1A476F"/>
	<circle cx="2497.03" cy="1441.36" r="22.03" style="fill:none;stroke:#1A476F;stroke-width:8.64"/>
	<circle cx="2813.09" cy="1223.68" r="26.35" style="fill:#1A476F"/>
	<circle cx="2813.09" cy="1223.68" r="22.03" style="fill:none;stroke:#1A476F;stroke-width:8.64"/>
	<circle cx="2146.82" cy="1762.50" r="26.35" style="fill:#1A476F"/>
	<circle cx="2146.82" cy="1762.50" r="22.03" style="fill:none;stroke:#1A476F;stroke-width:8.64"/>
	<circle cx="2148.42" cy="1486.28" r="26.35" style="fill:#1A476F"/>
	<circle cx="2148.42" cy="1486.28" r="22.03" style="fill:none;stroke:#1A476F;stroke-width:8.64"/>
	<circle cx="2950.94" cy="1104.26" r="26.35" style="fill:#1A476F"/>
	<circle cx="2950.94" cy="1104.26" r="22.03" style="fill:none;stroke:#1A476F;stroke-width:8.64"/>
	<circle cx="2147.68" cy="1752.48" r="26.35" style="fill:#1A476F"/>
	<circle cx="2147.68" cy="1752.48" r="22.03" style="fill:none;stroke:#1A476F;stroke-width:8.64"/>
	<circle cx="2238.64" cy="1863.36" r="26.35" style="fill:#1A476F"/>
	<circle cx="2238.64" cy="1863.36" r="22.03" style="fill:none;stroke:#1A476F;stroke-width:8.64"/>
	<circle cx="1807.00" cy="1775.87" r="26.35" style="fill:#1A476F"/>
	<circle cx="1807.00" cy="1775.87" r="22.03" style="fill:none;stroke:#1A476F;stroke-width:8.64"/>
	<circle cx="2558.66" cy="1166.63" r="26.35" style="fill:#1A476F"/>
	<circle cx="2558.66" cy="1166.63" r="22.03" style="fill:none;stroke:#1A476F;stroke-width:8.64"/>
	<circle cx="2904.78" cy="1165.64" r="26.35" style="fill:#1A476F"/>
	<circle cx="2904.78" cy="1165.64" r="22.03" style="fill:none;stroke:#1A476F;stroke-width:8.64"/>
	<circle cx="2182.33" cy="1707.06" r="26.35" style="fill:#1A476F"/>
	<circle cx="2182.33" cy="1707.06" r="22.03" style="fill:none;stroke:#1A476F;stroke-width:8.64"/>
	<circle cx="2407.31" cy="1560.29" r="26.35" style="fill:#1A476F"/>
	<circle cx="2407.31" cy="1560.29" r="22.03" style="fill:none;stroke:#1A476F;stroke-width:8.64"/>
	<circle cx="1950.18" cy="2107.90" r="26.35" style="fill:#1A476F"/>
	<circle cx="1950.18" cy="2107.90" r="22.03" style="fill:none;stroke:#1A476F;stroke-width:8.64"/>
	<circle cx="1894.98" cy="1552.00" r="26.35" style="fill:#1A476F"/>
	<circle cx="1894.98" cy="1552.00" r="22.03" style="fill:none;stroke:#1A476F;stroke-width:8.64"/>
	<circle cx="2641.57" cy="1358.94" r="26.35" style="fill:#1A476F"/>
	<circle cx="2641.57" cy="1358.94" r="22.03" style="fill:none;stroke:#1A476F;stroke-width:8.64"/>
	<circle cx="2908.62" cy="1448.91" r="26.35" style="fill:#1A476F"/>
	<circle cx="2908.62" cy="1448.91" r="22.03" style="fill:none;stroke:#1A476F;stroke-width:8.64"/>
	<circle cx="2057.34" cy="2037.98" r="26.35" style="fill:#1A476F"/>
	<circle cx="2057.34" cy="2037.98" r="22.03" style="fill:none;stroke:#1A476F;stroke-width:8.64"/>
	<circle cx="1345.04" cy="2376.32" r="26.35" style="fill:#1A476F"/>
	<circle cx="1345.04" cy="2376.32" r="22.03" style="fill:none;stroke:#1A476F;stroke-width:8.64"/>
	<circle cx="1780.14" cy="2127.08" r="26.35" style="fill:#1A476F"/>
	<circle cx="1780.14" cy="2127.08" r="22.03" style="fill:none;stroke:#1A476F;stroke-width:8.64"/>
	<circle cx="2585.88" cy="1416.12" r="26.35" style="fill:#1A476F"/>
	<circle cx="2585.88" cy="1416.12" r="22.03" style="fill:none;stroke:#1A476F;stroke-width:8.64"/>
	<circle cx="2489.60" cy="1498.04" r="26.35" style="fill:#1A476F"/>
	<circle cx="2489.60" cy="1498.04" r="22.03" style="fill:none;stroke:#1A476F;stroke-width:8.64"/>
	<circle cx="2486.88" cy="1475.76" r="26.35" style="fill:#1A476F"/>
	<circle cx="2486.88" cy="1475.76" r="22.03" style="fill:none;stroke:#1A476F;stroke-width:8.64"/>
	<circle cx="2241.11" cy="1698.89" r="26.35" style="fill:#1A476F"/>
	<circle cx="2241.11" cy="1698.89" r="22.03" style="fill:none;stroke:#1A476F;stroke-width:8.64"/>
	<circle cx="2280.84" cy="1905.44" r="26.35" style="fill:#1A476F"/>
	<circle cx="2280.84" cy="1905.44" r="22.03" style="fill:none;stroke:#1A476F;stroke-width:8.64"/>
	<circle cx="1062.89" cy="2187.10" r="26.35" style="fill:#1A476F"/>
	<circle cx="1062.89" cy="2187.10" r="22.03" style="fill:none;stroke:#1A476F;stroke-width:8.64"/>
	<circle cx="2601.35" cy="1397.18" r="26.35" style="fill:#1A476F"/>
	<circle cx="2601.35" cy="1397.18" r="22.03" style="fill:none;stroke:#1A476F;stroke-width:8.64"/>
	<circle cx="3076.67" cy="1039.04" r="26.35" style="fill:#1A476F"/>
	<circle cx="3076.67" cy="1039.04" r="22.03" style="fill:none;stroke:#1A476F;stroke-width:8.64"/>
	<circle cx="2650.85" cy="1300.16" r="26.35" style="fill:#1A476F"/>
	<circle cx="2650.85" cy="1300.16" r="22.03" style="fill:none;stroke:#1A476F;stroke-width:8.64"/>
	<circle cx="2130.60" cy="1845.67" r="26.35" style="fill:#1A476F"/>
	<circle cx="2130.60" cy="1845.67" r="22.03" style="fill:none;stroke:#1A476F;stroke-width:8.64"/>
	<circle cx="2055.24" cy="1468.71" r="26.35" style="fill:#1A476F"/>
	<circle cx="2055.24" cy="1468.71" r="22.03" style="fill:none;stroke:#1A476F;stroke-width:8.64"/>
	<circle cx="1821.11" cy="1853.83" r="26.35" style="fill:#1A476F"/>
	<circle cx="1821.11" cy="1853.83" r="22.03" style="fill:none;stroke:#1A476F;stroke-width:8.64"/>
	<circle cx="2220.57" cy="1888.11" r="26.35" style="fill:#1A476F"/>
	<circle cx="2220.57" cy="1888.11" r="22.03" style="fill:none;stroke:#1A476F;stroke-width:8.64"/>
	<circle cx="1557.02" cy="2256.90" r="26.35" style="fill:#1A476F"/>
	<circle cx="1557.02" cy="2256.90" r="22.03" style="fill:none;stroke:#1A476F;stroke-width:8.64"/>
	<circle cx="2407.06" cy="1577.49" r="26.35" style="fill:#1A476F"/>
	<circle cx="2407.06" cy="1577.49" r="22.03" style="fill:none;stroke:#1A476F;stroke-width:8.64"/>
	<circle cx="2665.82" cy="1384.56" r="26.35" style="fill:#1A476F"/>
	<circle cx="2665.82" cy="1384.56" r="22.03" style="fill:none;stroke:#1A476F;stroke-width:8.64"/>
	<circle cx="2625.48" cy="1387.53" r="26.35" style="fill:#1A476F"/>
	<circle cx="2625.48" cy="1387.53" r="22.03" style="fill:none;stroke:#1A476F;stroke-width:8.64"/>
	<circle cx="2529.08" cy="1474.90" r="26.35" style="fill:#1A476F"/>
	<circle cx="2529.08" cy="1474.90" r="22.03" style="fill:none;stroke:#1A476F;stroke-width:8.64"/>
	<circle cx="2583.90" cy="1423.29" r="26.35" style="fill:#1A476F"/>
	<circle cx="2583.90" cy="1423.29" r="22.03" style="fill:none;stroke:#1A476F;stroke-width:8.64"/>
	<circle cx="2119.34" cy="1796.91" r="26.35" style="fill:#1A476F"/>
	<circle cx="2119.34" cy="1796.91" r="22.03" style="fill:none;stroke:#1A476F;stroke-width:8.64"/>
	<circle cx="1930.62" cy="2047.26" r="26.35" style="fill:#1A476F"/>
	<circle cx="1930.62" cy="2047.26" r="22.03" style="fill:none;stroke:#1A476F;stroke-width:8.64"/>
	<circle cx="1207.80" cy="1768.07" r="26.35" style="fill:#1A476F"/>
	<circle cx="1207.80" cy="1768.07" r="22.03" style="fill:none;stroke:#1A476F;stroke-width:8.64"/>
	<circle cx="3049.45" cy="1053.15" r="26.35" style="fill:#1A476F"/>
	<circle cx="3049.45" cy="1053.15" r="22.03" style="fill:none;stroke:#1A476F;stroke-width:8.64"/>
	<circle cx="1975.05" cy="1936.01" r="26.35" style="fill:#1A476F"/>
	<circle cx="1975.05" cy="1936.01" r="22.03" style="fill:none;stroke:#1A476F;stroke-width:8.64"/>
	<circle cx="1971.21" cy="1915.59" r="26.35" style="fill:#1A476F"/>
	<circle cx="1971.21" cy="1915.59" r="22.03" style="fill:none;stroke:#1A476F;stroke-width:8.64"/>
	<circle cx="2204.36" cy="1578.98" r="26.35" style="fill:#1A476F"/>
	<circle cx="2204.36" cy="1578.98" r="22.03" style="fill:none;stroke:#1A476F;stroke-width:8.64"/>
	<circle cx="1986.06" cy="1532.44" r="26.35" style="fill:#1A476F"/>
	<circle cx="1986.06" cy="1532.44" r="22.03" style="fill:none;stroke:#1A476F;stroke-width:8.64"/>
	<circle cx="2299.65" cy="1777.85" r="26.35" style="fill:#1A476F"/>
	<circle cx="2299.65" cy="1777.85" r="22.03" style="fill:none;stroke:#1A476F;stroke-width:8.64"/>
	<circle cx="2180.23" cy="2047.26" r="26.35" style="fill:#1A476F"/>
	<circle cx="2180.23" cy="2047.26" r="22.03" style="fill:none;stroke:#1A476F;stroke-width:8.64"/>
	<circle cx="2793.28" cy="1581.57" r="26.35" style="fill:#1A476F"/>
	<circle cx="2793.28" cy="1581.57" r="22.03" style="fill:none;stroke:#1A476F;stroke-width:8.64"/>
	<circle cx="3064.55" cy="1044.36" r="26.35" style="fill:#1A476F"/>
	<circle cx="3064.55" cy="1044.36" r="22.03" style="fill:none;stroke:#1A476F;stroke-width:8.64"/>
	<circle cx="3118.01" cy="969.24" r="26.35" style="fill:#1A476F"/>
	<circle cx="3118.01" cy="969.24" r="22.03" style="fill:none;stroke:#1A476F;stroke-width:8.64"/>
	<circle cx="2215.74" cy="1715.72" r="26.35" style="fill:#1A476F"/>
	<circle cx="2215.74" cy="1715.72" r="22.03" style="fill:none;stroke:#1A476F;stroke-width:8.64"/>
	<circle cx="1991.01" cy="1904.08" r="26.35" style="fill:#1A476F"/>
	<circle cx="1991.01" cy="1904.08" r="22.03" style="fill:none;stroke:#1A476F;stroke-width:8.64"/>
	<circle cx="2620.90" cy="1391.98" r="26.35" style="fill:#1A476F"/>
	<circle cx="2620.90" cy="1391.98" r="22.03" style="fill:none;stroke:#1A476F;stroke-width:8.64"/>
	<circle cx="1560.98" cy="2279.92" r="26.35" style="fill:#1A476F"/>
	<circle cx="1560.98" cy="2279.92" r="22.03" style="fill:none;stroke:#1A476F;stroke-width:8.64"/>
	<circle cx="2656.42" cy="1365.87" r="26.35" style="fill:#1A476F"/>
	<circle cx="2656.42" cy="1365.87" r="22.03" style="fill:none;stroke:#1A476F;stroke-width:8.64"/>
	<circle cx="2530.81" cy="1447.30" r="26.35" style="fill:#1A476F"/>
	<circle cx="2530.81" cy="1447.30" r="22.03" style="fill:none;stroke:#1A476F;stroke-width:8.64"/>
	<circle cx="718.37" cy="1973.26" r="26.35" style="fill:#1A476F"/>
	<circle cx="718.37" cy="1973.26" r="22.03" style="fill:none;stroke:#1A476F;stroke-width:8.64"/>
	<circle cx="2796.50" cy="1522.42" r="26.35" style="fill:#1A476F"/>
	<circle cx="2796.50" cy="1522.42" r="22.03" style="fill:none;stroke:#1A476F;stroke-width:8.64"/>
	<circle cx="2139.02" cy="1833.29" r="26.35" style="fill:#1A476F"/>
	<circle cx="2139.02" cy="1833.29" r="22.03" style="fill:none;stroke:#1A476F;stroke-width:8.64"/>
	<circle cx="2787.59" cy="1284.57" r="26.35" style="fill:#1A476F"/>
	<circle cx="2787.59" cy="1284.57" r="22.03" style="fill:none;stroke:#1A476F;stroke-width:8.64"/>
	<circle cx="3003.66" cy="992.75" r="26.35" style="fill:#1A476F"/>
	<circle cx="3003.66" cy="992.75" r="22.03" style="fill:none;stroke:#1A476F;stroke-width:8.64"/>
	<circle cx="2465.72" cy="1507.69" r="26.35" style="fill:#1A476F"/>
	<circle cx="2465.72" cy="1507.69" r="22.03" style="fill:none;stroke:#1A476F;stroke-width:8.64"/>
	<circle cx="2254.60" cy="1671.54" r="26.35" style="fill:#1A476F"/>
	<circle cx="2254.60" cy="1671.54" r="22.03" style="fill:none;stroke:#1A476F;stroke-width:8.64"/>
	<circle cx="2459.66" cy="1433.94" r="26.35" style="fill:#1A476F"/>
	<circle cx="2459.66" cy="1433.94" r="22.03" style="fill:none;stroke:#1A476F;stroke-width:8.64"/>
	<circle cx="2033.58" cy="1850.74" r="26.35" style="fill:#1A476F"/>
	<circle cx="2033.58" cy="1850.74" r="22.03" style="fill:none;stroke:#1A476F;stroke-width:8.64"/>
	<circle cx="1839.42" cy="1869.05" r="26.35" style="fill:#1A476F"/>
	<circle cx="1839.42" cy="1869.05" r="22.03" style="fill:none;stroke:#1A476F;stroke-width:8.64"/>
	<circle cx="2396.67" cy="1433.44" r="26.35" style="fill:#1A476F"/>
	<circle cx="2396.67" cy="1433.44" r="22.03" style="fill:none;stroke:#1A476F;stroke-width:8.64"/>
	<circle cx="2955.64" cy="1117.37" r="26.35" style="fill:#1A476F"/>
	<circle cx="2955.64" cy="1117.37" r="22.03" style="fill:none;stroke:#1A476F;stroke-width:8.64"/>
	<circle cx="1664.93" cy="2180.05" r="26.35" style="fill:#1A476F"/>
	<circle cx="1664.93" cy="2180.05" r="22.03" style="fill:none;stroke:#1A476F;stroke-width:8.64"/>
	<circle cx="2168.22" cy="1737.01" r="26.35" style="fill:#1A476F"/>
	<circle cx="2168.22" cy="1737.01" r="22.03" style="fill:none;stroke:#1A476F;stroke-width:8.64"/>
	<circle cx="2248.78" cy="1552.49" r="26.35" style="fill:#1A476F"/>
	<circle cx="2248.78" cy="1552.49" r="22.03" style="fill:none;stroke:#1A476F;stroke-width:8.64"/>
	<circle cx="2113.53" cy="1530.84" r="26.35" style="fill:#1A476F"/>
	<circle cx="2113.53" cy="1530.84" r="22.03" style="fill:none;stroke:#1A476F;stroke-width:8.64"/>
	<circle cx="2365.23" cy="1927.84" r="26.35" style="fill:#1A476F"/>
	<circle cx="2365.23" cy="1927.84" r="22.03" style="fill:none;stroke:#1A476F;stroke-width:8.64"/>
	<circle cx="2501.11" cy="1435.67" r="26.35" style="fill:#1A476F"/>
	<circle cx="2501.11" cy="1435.67" r="22.03" style="fill:none;stroke:#1A476F;stroke-width:8.64"/>
	<circle cx="2841.92" cy="1118.98" r="26.35" style="fill:#1A476F"/>
	<circle cx="2841.92" cy="1118.98" r="22.03" style="fill:none;stroke:#1A476F;stroke-width:8.64"/>
	<circle cx="2870.63" cy="1183.83" r="26.35" style="fill:#1A476F"/>
	<circle cx="2870.63" cy="1183.83" r="22.03" style="fill:none;stroke:#1A476F;stroke-width:8.64"/>
	<circle cx="2199.41" cy="1715.72" r="26.35" style="fill:#1A476F"/>
	<circle cx="2199.41" cy="1715.72" r="22.03" style="fill:none;stroke:#1A476F;stroke-width:8.64"/>
	<circle cx="2094.34" cy="1799.13" r="26.35" style="fill:#1A476F"/>
	<circle cx="2094.34" cy="1799.13" r="22.03" style="fill:none;stroke:#1A476F;stroke-width:8.64"/>
	<circle cx="2708.64" cy="2103.44" r="26.35" style="fill:#1A476F"/>
	<circle cx="2708.64" cy="2103.44" r="22.03" style="fill:none;stroke:#1A476F;stroke-width:8.64"/>
	<circle cx="1750.94" cy="2246.50" r="26.35" style="fill:#1A476F"/>
	<circle cx="1750.94" cy="2246.50" r="22.03" style="fill:none;stroke:#1A476F;stroke-width:8.64"/>
	<circle cx="2188.27" cy="1708.42" r="26.35" style="fill:#1A476F"/>
	<circle cx="2188.27" cy="1708.42" r="22.03" style="fill:none;stroke:#1A476F;stroke-width:8.64"/>
	<circle cx="1647.86" cy="1590.61" r="26.35" style="fill:#1A476F"/>
	<circle cx="1647.86" cy="1590.61" r="22.03" style="fill:none;stroke:#1A476F;stroke-width:8.64"/>
	<circle cx="2446.17" cy="1510.54" r="26.35" style="fill:#1A476F"/>
	<circle cx="2446.17" cy="1510.54" r="22.03" style="fill:none;stroke:#1A476F;stroke-width:8.64"/>
	<circle cx="1323.01" cy="2007.54" r="26.35" style="fill:#1A476F"/>
	<circle cx="1323.01" cy="2007.54" r="22.03" style="fill:none;stroke:#1A476F;stroke-width:8.64"/>
	<circle cx="2312.14" cy="1586.15" r="26.35" style="fill:#1A476F"/>
	<circle cx="2312.14" cy="1586.15" r="22.03" style="fill:none;stroke:#1A476F;stroke-width:8.64"/>
	<circle cx="1525.34" cy="2166.81" r="26.35" style="fill:#1A476F"/>
	<circle cx="1525.34" cy="2166.81" r="22.03" style="fill:none;stroke:#1A476F;stroke-width:8.64"/>
	<circle cx="2692.43" cy="1332.71" r="26.35" style="fill:#1A476F"/>
	<circle cx="2692.43" cy="1332.71" r="22.03" style="fill:none;stroke:#1A476F;stroke-width:8.64"/>
	<circle cx="1864.29" cy="1864.48" r="26.35" style="fill:#1A476F"/>
	<circle cx="1864.29" cy="1864.48" r="22.03" style="fill:none;stroke:#1A476F;stroke-width:8.64"/>
	<circle cx="2299.15" cy="1629.84" r="26.35" style="fill:#1A476F"/>
	<circle cx="2299.15" cy="1629.84" r="22.03" style="fill:none;stroke:#1A476F;stroke-width:8.64"/>
	<circle cx="2134.32" cy="1650.88" r="26.35" style="fill:#1A476F"/>
	<circle cx="2134.32" cy="1650.88" r="22.03" style="fill:none;stroke:#1A476F;stroke-width:8.64"/>
	<circle cx="538.68" cy="2337.83" r="26.35" style="fill:#1A476F"/>
	<circle cx="538.68" cy="2337.83" r="22.03" style="fill:none;stroke:#1A476F;stroke-width:8.64"/>
	<circle cx="2348.40" cy="1561.77" r="26.35" style="fill:#1A476F"/>
	<circle cx="2348.40" cy="1561.77" r="22.03" style="fill:none;stroke:#1A476F;stroke-width:8.64"/>
	<circle cx="2489.11" cy="1410.18" r="26.35" style="fill:#1A476F"/>
	<circle cx="2489.11" cy="1410.18" r="22.03" style="fill:none;stroke:#1A476F;stroke-width:8.64"/>
	<circle cx="1818.26" cy="1861.26" r="26.35" style="fill:#1A476F"/>
	<circle cx="1818.26" cy="1861.26" r="22.03" style="fill:none;stroke:#1A476F;stroke-width:8.64"/>
	<circle cx="1466.93" cy="1698.40" r="26.35" style="fill:#1A476F"/>
	<circle cx="1466.93" cy="1698.40" r="22.03" style="fill:none;stroke:#1A476F;stroke-width:8.64"/>
	<circle cx="1930.38" cy="1897.27" r="26.35" style="fill:#1A476F"/>
	<circle cx="1930.38" cy="1897.27" r="22.03" style="fill:none;stroke:#1A476F;stroke-width:8.64"/>
	<circle cx="2435.89" cy="1558.18" r="26.35" style="fill:#1A476F"/>
	<circle cx="2435.89" cy="1558.18" r="22.03" style="fill:none;stroke:#1A476F;stroke-width:8.64"/>
	<circle cx="2317.22" cy="1766.22" r="26.35" style="fill:#1A476F"/>
	<circle cx="2317.22" cy="1766.22" r="22.03" style="fill:none;stroke:#1A476F;stroke-width:8.64"/>
	<circle cx="2175.53" cy="1569.94" r="26.35" style="fill:#1A476F"/>
	<circle cx="2175.53" cy="1569.94" r="22.03" style="fill:none;stroke:#1A476F;stroke-width:8.64"/>
	<circle cx="1657.88" cy="1870.17" r="26.35" style="fill:#1A476F"/>
	<circle cx="1657.88" cy="1870.17" r="22.03" style="fill:none;stroke:#1A476F;stroke-width:8.64"/>
	<circle cx="1566.06" cy="2227.32" r="26.35" style="fill:#1A476F"/>
	<circle cx="1566.06" cy="2227.32" r="22.03" style="fill:none;stroke:#1A476F;stroke-width:8.64"/>
	<circle cx="2812.22" cy="1215.63" r="26.35" style="fill:#1A476F"/>
	<circle cx="2812.22" cy="1215.63" r="22.03" style="fill:none;stroke:#1A476F;stroke-width:8.64"/>
	<circle cx="2742.80" cy="1293.23" r="26.35" style="fill:#1A476F"/>
	<circle cx="2742.80" cy="1293.23" r="22.03" style="fill:none;stroke:#1A476F;stroke-width:8.64"/>
	<circle cx="1738.81" cy="2053.82" r="26.35" style="fill:#1A476F"/>
	<circle cx="1738.81" cy="2053.82" r="22.03" style="fill:none;stroke:#1A476F;stroke-width:8.64"/>
	<circle cx="1726.07" cy="1969.17" r="26.35" style="fill:#1A476F"/>
	<circle cx="1726.07" cy="1969.17" r="22.03" style="fill:none;stroke:#1A476F;stroke-width:8.64"/>
	<circle cx="2388.13" cy="1567.96" r="26.35" style="fill:#1A476F"/>
	<circle cx="2388.13" cy="1567.96" r="22.03" style="fill:none;stroke:#1A476F;stroke-width:8.64"/>
	<circle cx="2456.07" cy="1577.99" r="26.35" style="fill:#1A476F"/>
	<circle cx="2456.07" cy="1577.99" r="22.03" style="fill:none;stroke:#1A476F;stroke-width:8.64"/>
	<circle cx="1432.78" cy="2292.66" r="26.35" style="fill:#1A476F"/>
	<circle cx="1432.78" cy="2292.66" r="22.03" style="fill:none;stroke:#1A476F;stroke-width:8.64"/>
	<circle cx="2101.65" cy="1791.71" r="26.35" style="fill:#1A476F"/>
	<circle cx="2101.65" cy="1791.71" r="22.03" style="fill:none;stroke:#1A476F;stroke-width:8.64"/>
	<path d=" M2494.68 1485.05 L1482.40 2268.04 L2403.47 1555.59 L2473.39 1501.51 L2345.06 1600.76 L2506.43 1475.89 L1863.43 1973.26 L2293.83 1640.36 L2130.36 1766.83 L1312.62 2399.34 L2381.20 1572.79 L3024.33 1075.42 L1716.91 2086.61 L2334.30 1609.05 L1510.24 2246.50 L2360.28 1589.00 L2303.73 1632.68 L1413.22 2321.50 L2235.05 1685.90 L2122.07 1773.27 L2656.54 1359.93 L2370.93 1580.71 L3008.36 1087.80 L2063.78 1818.32 L2448.89 1520.44 L2096.20 1793.19 L2488.36 1489.87 L2012.42 1858.04 L2191.61 1719.44 L1779.77 2037.98 L2958.24 1126.53 L2085.68 1801.36 L1871.35 1967.19 L2208.69 1706.19 L2397.66 1560.04 L2673.49 1346.69 L1973.44 1888.11 L2032.22 1842.82 L2883.00 1184.70 L2765.44 1275.65 L2560.39 1434.31 L2371.55 1580.34 L2596.03 1406.71 L2505.81 1476.38 L2226.76 1692.21 L2819.40 1233.95 L2761.11 1278.87 L2162.04 1742.33 L2741.19 1294.34 L2283.56 1648.40 L2151.15 1750.75 L2484.90 1492.60 L2224.16 1694.31 L1577.57 2194.40 L2184.06 1725.25 L1716.91 2086.61 L1976.78 1885.64 L2559.52 1434.93 L2385.41 1569.57 L2724.23 1307.46 L2220.94 1696.79 L2045.59 1832.42 L2475.99 1499.40 L2302.62 1633.55 L2198.30 1714.36 L2436.76 1529.85 L2463.12 1509.43 L1983.09 1880.69 L2387.63 1567.84 L1905.01 1941.20 L1837.93 1993.06 L3006.63 1089.03 L2246.43 1677.11 L1450.47 2292.66 L2121.20 1773.89 L2114.39 1779.21 L1613.33 2166.81 L2240.49 1681.57 L2388.99 1566.85 L2717.05 1313.03 L1567.66 2202.08 L2261.28 1665.60 L1741.41 2067.56 L1342.32 2376.32 L1907.23 1939.47 L2156.96 1746.17 L1577.57 2194.40 L2307.44 1629.84 L1843.88 1988.48 L2080.61 1805.32 L3206.36 934.59 L2439.98 1527.37 L2702.33 1324.41 L1876.55 1963.23 L2348.78 1597.91 L2510.52 1472.79 L2637.98 1374.16 L2626.47 1383.07 L2404.83 1554.47 L2565.09 1430.59 L2271.80 1657.44 L2410.65 1550.02 L2833.01 1223.31 L2769.28 1272.68 L2515.71 1468.83 L2558.28 1435.79 L2361.77 1587.89 L1934.21 1918.56 L3048.70 1056.49 L2516.95 1467.72 L2285.17 1647.04 L1651.20 2137.48 L1860.70 1975.36 L1815.78 2010.13 L2196.44 1715.72 L2138.28 1760.65 L1783.61 2035.01 L2152.63 1749.51 L1546.38 2218.41 L1432.65 2306.52 L2866.42 1197.44 L2231.46 1688.62 L1613.33 2166.81 L2305.59 1631.32 L2352.36 1595.06 L2035.93 1839.85 L2794.28 1253.26 L2685.13 1337.78 L1891.15 1951.85 L1658.00 2132.16 L2170.95 1735.40 L2607.91 1397.43 L3013.93 1083.47 L1683.49 2112.48 L2344.44 1601.25 L1629.17 2154.43 L1727.06 2078.69 L1963.42 1895.91 L2099.05 1790.97 L2104.62 1786.76 L2456.44 1514.62 L1775.81 2041.07 L2237.03 1684.29 L3357.46 817.77 L2751.33 1286.55 L2807.39 1243.23 L2527.59 1459.55 L2013.78 1856.93 L3034.47 1067.50 L2960.97 1124.43 L2917.78 1157.84 L2344.07 1601.50 L2164.76 1740.23 L2760.99 1279.00 L2986.46 1104.63 L2562.74 1432.33 L2545.41 1445.82 L2559.40 1434.93 L2528.46 1458.93 L2482.80 1494.20 L2659.64 1357.46 L2106.35 1785.40 L2716.07 1313.77 L2198.30 1714.36 L1983.09 1880.69 L2634.89 1376.64 L2145.95 1754.71 L1979.88 1883.16 L2069.22 1814.11 L1888.80 1953.70 L1852.41 1981.79 L2520.29 1465.25 L1996.83 1870.17 L1432.65 2306.52 L2198.30 1714.36 L2151.89 1750.13 L1651.20 2137.48 L1392.06 2337.83 L1949.31 1906.92 L2212.65 1703.10 L1819.00 2007.54 L1959.95 1898.63 L2143.72 1756.56 L2486.14 1491.73 L2574.12 1423.54 L2164.14 1740.72 L2361.77 1587.89 L1873.95 1965.09 L1822.34 2005.06 L2456.07 1514.87 L2417.09 1545.07 L2229.36 1690.23 L2728.19 1304.49 L2294.20 1640.11 L1900.43 1944.67 L2773.49 1269.34 L2594.17 1408.07 L1888.80 1953.70 L1936.07 1917.07 L1413.22 2321.50 L1587.09 2187.10 L1534.99 2227.32 L2245.44 1677.85 L1990.77 1874.75 L1939.90 1914.10 L1763.56 2050.48 L1808.98 2015.33 L1278.21 2425.95 L1989.28 1875.98 L1432.65 2306.52 L1534.99 2227.32 L1546.38 2218.41 L1613.33 2166.81 L1828.65 2000.11 L2604.81 1399.78 L1596.13 2180.05 L2528.21 1459.06 L1915.90 1932.79 L2536.01 1453.12 L2008.34 1861.26 L2366.84 1583.93 L2538.73 1451.01 L1866.15 1971.15 L2444.56 1523.78 L2435.65 1530.71 L2935.10 1144.35 L2205.84 1708.42 L3120.60 1000.92 L2452.48 1517.59 L2689.21 1334.56 L2099.05 1790.97 L2532.30 1455.96 L2639.34 1373.17 L2425.13 1538.76 L2517.32 1467.60 L2461.26 1510.79 L2212.16 1703.60 L2603.08 1401.14 L2840.68 1217.49 L2443.94 1524.28 L2464.73 1508.19 L1732.01 2074.98 L2668.67 1350.40 L2722.01 1309.19 L2487.75 1490.37 L2310.41 1627.61 L1930.25 1921.65 L2551.11 1441.36 L2832.64 1223.68 L3311.18 853.53 L2135.93 1762.50 L2493.07 1486.28 L2986.95 1104.26 L2148.92 1752.48 L2005.49 1863.36 L2118.72 1775.87 L2906.39 1166.63 L2907.75 1165.64 L2207.58 1707.06 L2397.41 1560.29 L1689.43 2107.90 L2408.18 1552.00 L2657.66 1358.94 L2541.45 1448.91 L1779.77 2037.98 L1342.32 2376.32 L1664.68 2127.08 L2583.90 1416.12 L2477.97 1498.04 L2506.56 1475.76 L2218.22 1698.89 L1951.04 1905.44 L1587.09 2187.10 L2608.28 1397.18 L3071.23 1039.04 L2733.76 1300.16 L2028.39 1845.67 L2515.84 1468.71 L2017.87 1853.83 L1973.44 1888.11 L1496.76 2256.90 L2375.13 1577.49 L2624.49 1384.56 L2620.65 1387.53 L2507.79 1474.90 L2574.49 1423.29 L2091.50 1796.91 L1767.64 2047.26 L2128.75 1768.07 L3053.04 1053.15 L1911.57 1936.01 L1938.05 1915.59 L2373.15 1578.98 L2433.42 1532.44 L2116.12 1777.85 L1767.64 2047.26 L2369.94 1581.57 L3064.42 1044.36 L3161.57 969.24 L2196.44 1715.72 L1952.90 1904.08 L2614.96 1391.98 L1466.93 2279.92 L2648.74 1365.87 L2349.02 1597.66 L2543.43 1447.30 L1863.43 1973.26 L2446.29 1522.42 L2044.47 1833.29 L2753.93 1284.57 L3131.25 992.75 L2465.35 1507.69 L2253.49 1671.54 L2560.64 1433.94 L2021.83 1850.74 L1998.19 1869.05 L2561.38 1433.44 L2970.00 1117.37 L1596.13 2180.05 L2168.97 1737.01 L2407.43 1552.49 L2435.52 1530.84 L1922.09 1927.84 L2558.41 1435.67 L2968.02 1118.98 L2884.12 1183.83 L2196.44 1715.72 L2088.53 1799.13 L1695.25 2103.44 L1278.21 2425.95 L1939.90 1914.10 L1868.75 1969.17 L2216.61 1700.13 L2362.64 1587.27 L2011.06 1859.03 L2594.67 1407.70 L1482.40 2268.04 L1664.68 2127.08 L3083.11 1030.00 L2767.42 1274.17 L3594.57 634.24 L2948.47 1134.08 L1510.24 2246.50 L2205.84 1708.42 L2358.30 1590.61 L2461.64 1510.54 L1819.00 2007.54 L2364.00 1586.15 L1613.33 2166.81 L2691.56 1332.71 L2004.01 1864.48 L2307.44 1629.84 L2280.22 1650.88 L1392.06 2337.83 L2395.43 1561.77 L2591.57 1410.18 L2008.34 1861.26 L2218.71 1698.40 L1961.68 1897.27 L2400.13 1558.18 L2131.10 1766.22 L2384.79 1569.94 L1368.55 2356.03 L1996.83 1870.17 L1534.99 2227.32 L1522.99 2236.60 L2843.03 1215.63 L2742.67 1293.23 L1759.35 2053.82 L1868.75 1969.17 L2387.39 1567.96 L2374.51 1577.99 L1450.47 2292.66 L2098.18 1791.71" stroke-linejoin="round" style="fill:none;stroke:#90353B;stroke-width:8.64"/>
	<line x1="390.80" y1="2489.19" x2="390.80" y2="415.32" style="stroke:#000000;stroke-width:5.76"/>
	<line x1="390.80" y1="2201.83" x2="350.83" y2="2201.83" style="stroke:#000000;stroke-width:5.76"/>
	<text x="300.72" y="2201.83" style="font-family:'Helvetica';font-size:99.99px;fill:#000000" transform="rotate(-90 300.72,2201.83)" text-anchor="middle">10</text>
	<line x1="390.80" y1="1340.25" x2="350.83" y2="1340.25" style="stroke:#000000;stroke-width:5.76"/>
	<text x="300.72" y="1340.25" style="font-family:'Helvetica';font-size:99.99px;fill:#000000" transform="rotate(-90 300.72,1340.25)" text-anchor="middle">15</text>
	<line x1="390.80" y1="478.68" x2="350.83" y2="478.68" style="stroke:#000000;stroke-width:5.76"/>
	<text x="300.72" y="478.68" style="font-family:'Helvetica';font-size:99.99px;fill:#000000" transform="rotate(-90 300.72,478.68)" text-anchor="middle">20</text>
	<text x="190.71" y="1452.25" style="font-family:'Helvetica';font-size:99.99px;fill:#000000" transform="rotate(-90 190.71,1452.25)" text-anchor="middle">Source : Résumé</text>
	<line x1="390.80" y1="2489.19" x2="3859.02" y2="2489.19" style="stroke:#000000;stroke-width:5.76"/>
	<line x1="454.16" y1="2489.19" x2="454.16" y2="2529.16" style="stroke:#000000;stroke-width:5.76"/>
	<text x="454.16" y="2619.14" style="font-family:'Helvetica';font-size:99.99px;fill:#000000" text-anchor="middle">5</text>
	<line x1="1568.04" y1="2489.19" x2="1568.04" y2="2529.16" style="stroke:#000000;stroke-width:5.76"/>
	<text x="1568.04" y="2619.14" style="font-family:'Helvetica';font-size:99.99px;fill:#000000" text-anchor="middle">10</text>
	<line x1="2681.91" y1="2489.19" x2="2681.91" y2="2529.16" style="stroke:#000000;stroke-width:5.76"/>
	<text x="2681.91" y="2619.14" style="font-family:'Helvetica';font-size:99.99px;fill:#000000" text-anchor="middle">15</text>
	<line x1="3795.66" y1="2489.19" x2="3795.66" y2="2529.16" style="stroke:#000000;stroke-width:5.76"/>
	<text x="3795.66" y="2619.14" style="font-family:'Helvetica';font-size:99.99px;fill:#000000" text-anchor="middle">20</text>
	<text x="2124.91" y="2729.16" style="font-family:'Helvetica';font-size:99.99px;fill:#000000" text-anchor="middle">Sources : autres</text>
	<text x="2124.91" y="215.98" style="font-family:'Helvetica';font-size:139.96px;fill:#1E2D53" text-anchor="middle">Valeurs résumées VS Valeurs non résumées</text>
	<text x="2124.91" y="356.06" style="font-family:'Helvetica';font-size:139.96px;fill:#1E2D53" text-anchor="middle"> par partenaire et produit (Imports 1789)</text>
</svg>
