<?xml version="1.0" encoding="UTF-8" standalone="no"?>
<!-- This is a Stata 17.0 generated SVG file (http://www.stata.com) -->

<svg version="1.1" width="5.50in" height="4.00in" viewBox="0 0 3960 2880" xmlns="http://www.w3.org/2000/svg" xmlns:xlink="http://www.w3.org/1999/xlink">
	<desc>Stata Graph - graph3</desc>
	<rect x="0" y="0" width="3960" height="2880" style="fill:#EAF2F3;stroke:none"/>
	<rect x="0.00" y="0.00" width="3959.88" height="2880.00" style="fill:#EAF2F3"/>
	<rect x="2.88" y="2.88" width="3954.12" height="2874.24" style="fill:none;stroke:#EAF2F3;stroke-width:5.76"/>
	<rect x="390.80" y="415.32" width="3468.22" height="2073.87" style="fill:#FFFFFF"/>
	<rect x="393.68" y="418.20" width="3462.46" height="2068.11" style="fill:none;stroke:#FFFFFF;stroke-width:5.76"/>
	<line x1="390.80" y1="2425.82" x2="3859.02" y2="2425.82" style="stroke:#EAF2F3;stroke-width:8.64"/>
	<line x1="390.80" y1="2037.73" x2="3859.02" y2="2037.73" style="stroke:#EAF2F3;stroke-width:8.64"/>
	<line x1="390.80" y1="1649.52" x2="3859.02" y2="1649.52" style="stroke:#EAF2F3;stroke-width:8.64"/>
	<line x1="390.80" y1="1261.42" x2="3859.02" y2="1261.42" style="stroke:#EAF2F3;stroke-width:8.64"/>
	<line x1="390.80" y1="873.21" x2="3859.02" y2="873.21" style="stroke:#EAF2F3;stroke-width:8.64"/>
	<line x1="390.80" y1="485.12" x2="3859.02" y2="485.12" style="stroke:#EAF2F3;stroke-width:8.64"/>
	<circle cx="2660.01" cy="1360.80" r="26.35" style="fill:#1A476F"/>
	<circle cx="2660.01" cy="1360.80" r="22.03" style="fill:none;stroke:#1A476F;stroke-width:8.64"/>
	<circle cx="2256.95" cy="1338.15" r="26.35" style="fill:#1A476F"/>
	<circle cx="2256.95" cy="1338.15" r="22.03" style="fill:none;stroke:#1A476F;stroke-width:8.64"/>
	<circle cx="2889.19" cy="994.49" r="26.35" style="fill:#1A476F"/>
	<circle cx="2889.19" cy="994.49" r="22.03" style="fill:none;stroke:#1A476F;stroke-width:8.64"/>
	<circle cx="2330.34" cy="1325.65" r="26.35" style="fill:#1A476F"/>
	<circle cx="2330.34" cy="1325.65" r="22.03" style="fill:none;stroke:#1A476F;stroke-width:8.64"/>
	<circle cx="2319.20" cy="1322.56" r="26.35" style="fill:#1A476F"/>
	<circle cx="2319.20" cy="1322.56" r="22.03" style="fill:none;stroke:#1A476F;stroke-width:8.64"/>
	<circle cx="2676.96" cy="1105.49" r="26.35" style="fill:#1A476F"/>
	<circle cx="2676.96" cy="1105.49" r="22.03" style="fill:none;stroke:#1A476F;stroke-width:8.64"/>
	<circle cx="2044.47" cy="1490.24" r="26.35" style="fill:#1A476F"/>
	<circle cx="2044.47" cy="1490.24" r="22.03" style="fill:none;stroke:#1A476F;stroke-width:8.64"/>
	<circle cx="2388.99" cy="1131.73" r="26.35" style="fill:#1A476F"/>
	<circle cx="2388.99" cy="1131.73" r="22.03" style="fill:none;stroke:#1A476F;stroke-width:8.64"/>
	<circle cx="1601.57" cy="1758.17" r="26.35" style="fill:#1A476F"/>
	<circle cx="1601.57" cy="1758.17" r="22.03" style="fill:none;stroke:#1A476F;stroke-width:8.64"/>
	<circle cx="2472.77" cy="1237.91" r="26.35" style="fill:#1A476F"/>
	<circle cx="2472.77" cy="1237.91" r="22.03" style="fill:none;stroke:#1A476F;stroke-width:8.64"/>
	<circle cx="1186.76" cy="2066.44" r="26.35" style="fill:#1A476F"/>
	<circle cx="1186.76" cy="2066.44" r="22.03" style="fill:none;stroke:#1A476F;stroke-width:8.64"/>
	<circle cx="1285.39" cy="1347.43" r="26.35" style="fill:#1A476F"/>
	<circle cx="1285.39" cy="1347.43" r="22.03" style="fill:none;stroke:#1A476F;stroke-width:8.64"/>
	<circle cx="953.49" cy="1479.48" r="26.35" style="fill:#1A476F"/>
	<circle cx="953.49" cy="1479.48" r="22.03" style="fill:none;stroke:#1A476F;stroke-width:8.64"/>
	<circle cx="2353.11" cy="1238.90" r="26.35" style="fill:#1A476F"/>
	<circle cx="2353.11" cy="1238.90" r="22.03" style="fill:none;stroke:#1A476F;stroke-width:8.64"/>
	<circle cx="1085.04" cy="784.35" r="26.35" style="fill:#1A476F"/>
	<circle cx="1085.04" cy="784.35" r="22.03" style="fill:none;stroke:#1A476F;stroke-width:8.64"/>
	<circle cx="1478.69" cy="610.48" r="26.35" style="fill:#1A476F"/>
	<circle cx="1478.69" cy="610.48" r="22.03" style="fill:none;stroke:#1A476F;stroke-width:8.64"/>
	<circle cx="1915.03" cy="747.72" r="26.35" style="fill:#1A476F"/>
	<circle cx="1915.03" cy="747.72" r="22.03" style="fill:none;stroke:#1A476F;stroke-width:8.64"/>
	<circle cx="1885.95" cy="969.36" r="26.35" style="fill:#1A476F"/>
	<circle cx="1885.95" cy="969.36" r="22.03" style="fill:none;stroke:#1A476F;stroke-width:8.64"/>
	<circle cx="1756.01" cy="478.80" r="26.35" style="fill:#1A476F"/>
	<circle cx="1756.01" cy="478.80" r="22.03" style="fill:none;stroke:#1A476F;stroke-width:8.64"/>
	<circle cx="1586.47" cy="987.56" r="26.35" style="fill:#1A476F"/>
	<circle cx="1586.47" cy="987.56" r="22.03" style="fill:none;stroke:#1A476F;stroke-width:8.64"/>
	<circle cx="740.89" cy="2056.54" r="26.35" style="fill:#1A476F"/>
	<circle cx="740.89" cy="2056.54" r="22.03" style="fill:none;stroke:#1A476F;stroke-width:8.64"/>
	<circle cx="2826.57" cy="1220.09" r="26.35" style="fill:#1A476F"/>
	<circle cx="2826.57" cy="1220.09" r="22.03" style="fill:none;stroke:#1A476F;stroke-width:8.64"/>
	<circle cx="3204.63" cy="782.99" r="26.35" style="fill:#1A476F"/>
	<circle cx="3204.63" cy="782.99" r="22.03" style="fill:none;stroke:#1A476F;stroke-width:8.64"/>
	<circle cx="2587.61" cy="1173.19" r="26.35" style="fill:#1A476F"/>
	<circle cx="2587.61" cy="1173.19" r="22.03" style="fill:none;stroke:#1A476F;stroke-width:8.64"/>
	<circle cx="2824.59" cy="1030.37" r="26.35" style="fill:#1A476F"/>
	<circle cx="2824.59" cy="1030.37" r="22.03" style="fill:none;stroke:#1A476F;stroke-width:8.64"/>
	<circle cx="2804.92" cy="1036.69" r="26.35" style="fill:#1A476F"/>
	<circle cx="2804.92" cy="1036.69" r="22.03" style="fill:none;stroke:#1A476F;stroke-width:8.64"/>
	<circle cx="2643.30" cy="1115.64" r="26.35" style="fill:#1A476F"/>
	<circle cx="2643.30" cy="1115.64" r="22.03" style="fill:none;stroke:#1A476F;stroke-width:8.64"/>
	<circle cx="2003.88" cy="1540.86" r="26.35" style="fill:#1A476F"/>
	<circle cx="2003.88" cy="1540.86" r="22.03" style="fill:none;stroke:#1A476F;stroke-width:8.64"/>
	<circle cx="3276.78" cy="778.04" r="26.35" style="fill:#1A476F"/>
	<circle cx="3276.78" cy="778.04" r="22.03" style="fill:none;stroke:#1A476F;stroke-width:8.64"/>
	<circle cx="1503.93" cy="1789.85" r="26.35" style="fill:#1A476F"/>
	<circle cx="1503.93" cy="1789.85" r="22.03" style="fill:none;stroke:#1A476F;stroke-width:8.64"/>
	<circle cx="2610.51" cy="1161.18" r="26.35" style="fill:#1A476F"/>
	<circle cx="2610.51" cy="1161.18" r="22.03" style="fill:none;stroke:#1A476F;stroke-width:8.64"/>
	<circle cx="2141.99" cy="1447.55" r="26.35" style="fill:#1A476F"/>
	<circle cx="2141.99" cy="1447.55" r="22.03" style="fill:none;stroke:#1A476F;stroke-width:8.64"/>
	<circle cx="1919.12" cy="1370.08" r="26.35" style="fill:#1A476F"/>
	<circle cx="1919.12" cy="1370.08" r="22.03" style="fill:none;stroke:#1A476F;stroke-width:8.64"/>
	<circle cx="2306.82" cy="826.55" r="26.35" style="fill:#1A476F"/>
	<circle cx="2306.82" cy="826.55" r="22.03" style="fill:none;stroke:#1A476F;stroke-width:8.64"/>
	<circle cx="2353.35" cy="1015.65" r="26.35" style="fill:#1A476F"/>
	<circle cx="2353.35" cy="1015.65" r="22.03" style="fill:none;stroke:#1A476F;stroke-width:8.64"/>
	<circle cx="2156.47" cy="1323.67" r="26.35" style="fill:#1A476F"/>
	<circle cx="2156.47" cy="1323.67" r="22.03" style="fill:none;stroke:#1A476F;stroke-width:8.64"/>
	<circle cx="2111.79" cy="1393.47" r="26.35" style="fill:#1A476F"/>
	<circle cx="2111.79" cy="1393.47" r="22.03" style="fill:none;stroke:#1A476F;stroke-width:8.64"/>
	<circle cx="2430.82" cy="1174.92" r="26.35" style="fill:#1A476F"/>
	<circle cx="2430.82" cy="1174.92" r="22.03" style="fill:none;stroke:#1A476F;stroke-width:8.64"/>
	<circle cx="2138.65" cy="1395.08" r="26.35" style="fill:#1A476F"/>
	<circle cx="2138.65" cy="1395.08" r="22.03" style="fill:none;stroke:#1A476F;stroke-width:8.64"/>
	<circle cx="2357.81" cy="1263.65" r="26.35" style="fill:#1A476F"/>
	<circle cx="2357.81" cy="1263.65" r="22.03" style="fill:none;stroke:#1A476F;stroke-width:8.64"/>
	<circle cx="1461.36" cy="1965.34" r="26.35" style="fill:#1A476F"/>
	<circle cx="1461.36" cy="1965.34" r="22.03" style="fill:none;stroke:#1A476F;stroke-width:8.64"/>
	<circle cx="2298.78" cy="1027.03" r="26.35" style="fill:#1A476F"/>
	<circle cx="2298.78" cy="1027.03" r="22.03" style="fill:none;stroke:#1A476F;stroke-width:8.64"/>
	<circle cx="1700.82" cy="1670.68" r="26.35" style="fill:#1A476F"/>
	<circle cx="1700.82" cy="1670.68" r="22.03" style="fill:none;stroke:#1A476F;stroke-width:8.64"/>
	<circle cx="2097.81" cy="1468.83" r="26.35" style="fill:#1A476F"/>
	<circle cx="2097.81" cy="1468.83" r="22.03" style="fill:none;stroke:#1A476F;stroke-width:8.64"/>
	<circle cx="2280.22" cy="1907.91" r="26.35" style="fill:#1A476F"/>
	<circle cx="2280.22" cy="1907.91" r="22.03" style="fill:none;stroke:#1A476F;stroke-width:8.64"/>
	<circle cx="1372.14" cy="1853.21" r="26.35" style="fill:#1A476F"/>
	<circle cx="1372.14" cy="1853.21" r="22.03" style="fill:none;stroke:#1A476F;stroke-width:8.64"/>
	<circle cx="2052.89" cy="1520.19" r="26.35" style="fill:#1A476F"/>
	<circle cx="2052.89" cy="1520.19" r="22.03" style="fill:none;stroke:#1A476F;stroke-width:8.64"/>
	<circle cx="1753.17" cy="1676.12" r="26.35" style="fill:#1A476F"/>
	<circle cx="1753.17" cy="1676.12" r="22.03" style="fill:none;stroke:#1A476F;stroke-width:8.64"/>
	<circle cx="1057.69" cy="2029.32" r="26.35" style="fill:#1A476F"/>
	<circle cx="1057.69" cy="2029.32" r="22.03" style="fill:none;stroke:#1A476F;stroke-width:8.64"/>
	<circle cx="2542.07" cy="1212.05" r="26.35" style="fill:#1A476F"/>
	<circle cx="2542.07" cy="1212.05" r="22.03" style="fill:none;stroke:#1A476F;stroke-width:8.64"/>
	<circle cx="1223.27" cy="1998.25" r="26.35" style="fill:#1A476F"/>
	<circle cx="1223.27" cy="1998.25" r="22.03" style="fill:none;stroke:#1A476F;stroke-width:8.64"/>
	<circle cx="1930.38" cy="1570.19" r="26.35" style="fill:#1A476F"/>
	<circle cx="1930.38" cy="1570.19" r="22.03" style="fill:none;stroke:#1A476F;stroke-width:8.64"/>
	<circle cx="2128.87" cy="1461.53" r="26.35" style="fill:#1A476F"/>
	<circle cx="2128.87" cy="1461.53" r="22.03" style="fill:none;stroke:#1A476F;stroke-width:8.64"/>
	<circle cx="703.64" cy="2290.19" r="26.35" style="fill:#1A476F"/>
	<circle cx="703.64" cy="2290.19" r="22.03" style="fill:none;stroke:#1A476F;stroke-width:8.64"/>
	<circle cx="2452.35" cy="1396.69" r="26.35" style="fill:#1A476F"/>
	<circle cx="2452.35" cy="1396.69" r="22.03" style="fill:none;stroke:#1A476F;stroke-width:8.64"/>
	<circle cx="2190.87" cy="1314.88" r="26.35" style="fill:#1A476F"/>
	<circle cx="2190.87" cy="1314.88" r="22.03" style="fill:none;stroke:#1A476F;stroke-width:8.64"/>
	<circle cx="2208.44" cy="1466.11" r="26.35" style="fill:#1A476F"/>
	<circle cx="2208.44" cy="1466.11" r="22.03" style="fill:none;stroke:#1A476F;stroke-width:8.64"/>
	<circle cx="2038.04" cy="1446.68" r="26.35" style="fill:#1A476F"/>
	<circle cx="2038.04" cy="1446.68" r="22.03" style="fill:none;stroke:#1A476F;stroke-width:8.64"/>
	<circle cx="2386.52" cy="1278.01" r="26.35" style="fill:#1A476F"/>
	<circle cx="2386.52" cy="1278.01" r="22.03" style="fill:none;stroke:#1A476F;stroke-width:8.64"/>
	<circle cx="2446.17" cy="1210.93" r="26.35" style="fill:#1A476F"/>
	<circle cx="2446.17" cy="1210.93" r="22.03" style="fill:none;stroke:#1A476F;stroke-width:8.64"/>
	<circle cx="2596.28" cy="1064.53" r="26.35" style="fill:#1A476F"/>
	<circle cx="2596.28" cy="1064.53" r="22.03" style="fill:none;stroke:#1A476F;stroke-width:8.64"/>
	<circle cx="2483.91" cy="1006.74" r="26.35" style="fill:#1A476F"/>
	<circle cx="2483.91" cy="1006.74" r="22.03" style="fill:none;stroke:#1A476F;stroke-width:8.64"/>
	<circle cx="2343.82" cy="1143.73" r="26.35" style="fill:#1A476F"/>
	<circle cx="2343.82" cy="1143.73" r="22.03" style="fill:none;stroke:#1A476F;stroke-width:8.64"/>
	<circle cx="1388.10" cy="1998.25" r="26.35" style="fill:#1A476F"/>
	<circle cx="1388.10" cy="1998.25" r="22.03" style="fill:none;stroke:#1A476F;stroke-width:8.64"/>
	<circle cx="1721.86" cy="1780.32" r="26.35" style="fill:#1A476F"/>
	<circle cx="1721.86" cy="1780.32" r="22.03" style="fill:none;stroke:#1A476F;stroke-width:8.64"/>
	<circle cx="1816.40" cy="1605.83" r="26.35" style="fill:#1A476F"/>
	<circle cx="1816.40" cy="1605.83" r="22.03" style="fill:none;stroke:#1A476F;stroke-width:8.64"/>
	<circle cx="2616.57" cy="1337.66" r="26.35" style="fill:#1A476F"/>
	<circle cx="2616.57" cy="1337.66" r="22.03" style="fill:none;stroke:#1A476F;stroke-width:8.64"/>
	<circle cx="1493.66" cy="1621.67" r="26.35" style="fill:#1A476F"/>
	<circle cx="1493.66" cy="1621.67" r="22.03" style="fill:none;stroke:#1A476F;stroke-width:8.64"/>
	<circle cx="1920.85" cy="2037.98" r="26.35" style="fill:#1A476F"/>
	<circle cx="1920.85" cy="2037.98" r="22.03" style="fill:none;stroke:#1A476F;stroke-width:8.64"/>
	<circle cx="2381.57" cy="1308.70" r="26.35" style="fill:#1A476F"/>
	<circle cx="2381.57" cy="1308.70" r="22.03" style="fill:none;stroke:#1A476F;stroke-width:8.64"/>
	<circle cx="1480.30" cy="1849.87" r="26.35" style="fill:#1A476F"/>
	<circle cx="1480.30" cy="1849.87" r="22.03" style="fill:none;stroke:#1A476F;stroke-width:8.64"/>
	<circle cx="1110.16" cy="1937.12" r="26.35" style="fill:#1A476F"/>
	<circle cx="1110.16" cy="1937.12" r="22.03" style="fill:none;stroke:#1A476F;stroke-width:8.64"/>
	<circle cx="1815.91" cy="1208.09" r="26.35" style="fill:#1A476F"/>
	<circle cx="1815.91" cy="1208.09" r="22.03" style="fill:none;stroke:#1A476F;stroke-width:8.64"/>
	<circle cx="2022.69" cy="1518.46" r="26.35" style="fill:#1A476F"/>
	<circle cx="2022.69" cy="1518.46" r="22.03" style="fill:none;stroke:#1A476F;stroke-width:8.64"/>
	<circle cx="1228.96" cy="2172.50" r="26.35" style="fill:#1A476F"/>
	<circle cx="1228.96" cy="2172.50" r="22.03" style="fill:none;stroke:#1A476F;stroke-width:8.64"/>
	<circle cx="1574.35" cy="2029.32" r="26.35" style="fill:#1A476F"/>
	<circle cx="1574.35" cy="2029.32" r="22.03" style="fill:none;stroke:#1A476F;stroke-width:8.64"/>
	<circle cx="1377.46" cy="2140.08" r="26.35" style="fill:#1A476F"/>
	<circle cx="1377.46" cy="2140.08" r="22.03" style="fill:none;stroke:#1A476F;stroke-width:8.64"/>
	<circle cx="1654.04" cy="1758.17" r="26.35" style="fill:#1A476F"/>
	<circle cx="1654.04" cy="1758.17" r="22.03" style="fill:none;stroke:#1A476F;stroke-width:8.64"/>
	<circle cx="1385.13" cy="2087.98" r="26.35" style="fill:#1A476F"/>
	<circle cx="1385.13" cy="2087.98" r="22.03" style="fill:none;stroke:#1A476F;stroke-width:8.64"/>
	<circle cx="1559.00" cy="1773.39" r="26.35" style="fill:#1A476F"/>
	<circle cx="1559.00" cy="1773.39" r="22.03" style="fill:none;stroke:#1A476F;stroke-width:8.64"/>
	<circle cx="1994.60" cy="1529.60" r="26.35" style="fill:#1A476F"/>
	<circle cx="1994.60" cy="1529.60" r="22.03" style="fill:none;stroke:#1A476F;stroke-width:8.64"/>
	<circle cx="1643.52" cy="1802.60" r="26.35" style="fill:#1A476F"/>
	<circle cx="1643.52" cy="1802.60" r="22.03" style="fill:none;stroke:#1A476F;stroke-width:8.64"/>
	<circle cx="1902.29" cy="1591.10" r="26.35" style="fill:#1A476F"/>
	<circle cx="1902.29" cy="1591.10" r="22.03" style="fill:none;stroke:#1A476F;stroke-width:8.64"/>
	<circle cx="1712.45" cy="1718.69" r="26.35" style="fill:#1A476F"/>
	<circle cx="1712.45" cy="1718.69" r="22.03" style="fill:none;stroke:#1A476F;stroke-width:8.64"/>
	<circle cx="1876.30" cy="1630.09" r="26.35" style="fill:#1A476F"/>
	<circle cx="1876.30" cy="1630.09" r="22.03" style="fill:none;stroke:#1A476F;stroke-width:8.64"/>
	<circle cx="2122.44" cy="1454.85" r="26.35" style="fill:#1A476F"/>
	<circle cx="2122.44" cy="1454.85" r="22.03" style="fill:none;stroke:#1A476F;stroke-width:8.64"/>
	<circle cx="1706.02" cy="1705.58" r="26.35" style="fill:#1A476F"/>
	<circle cx="1706.02" cy="1705.58" r="22.03" style="fill:none;stroke:#1A476F;stroke-width:8.64"/>
	<circle cx="1662.09" cy="1748.02" r="26.35" style="fill:#1A476F"/>
	<circle cx="1662.09" cy="1748.02" r="22.03" style="fill:none;stroke:#1A476F;stroke-width:8.64"/>
	<circle cx="1067.34" cy="2066.44" r="26.35" style="fill:#1A476F"/>
	<circle cx="1067.34" cy="2066.44" r="22.03" style="fill:none;stroke:#1A476F;stroke-width:8.64"/>
	<circle cx="2167.11" cy="2260.24" r="26.35" style="fill:#1A476F"/>
	<circle cx="2167.11" cy="2260.24" r="22.03" style="fill:none;stroke:#1A476F;stroke-width:8.64"/>
	<circle cx="2259.92" cy="1235.93" r="26.35" style="fill:#1A476F"/>
	<circle cx="2259.92" cy="1235.93" r="22.03" style="fill:none;stroke:#1A476F;stroke-width:8.64"/>
	<circle cx="2955.77" cy="1463.76" r="26.35" style="fill:#1A476F"/>
	<circle cx="2955.77" cy="1463.76" r="22.03" style="fill:none;stroke:#1A476F;stroke-width:8.64"/>
	<circle cx="2565.96" cy="1488.64" r="26.35" style="fill:#1A476F"/>
	<circle cx="2565.96" cy="1488.64" r="22.03" style="fill:none;stroke:#1A476F;stroke-width:8.64"/>
	<circle cx="2258.19" cy="2234.38" r="26.35" style="fill:#1A476F"/>
	<circle cx="2258.19" cy="2234.38" r="22.03" style="fill:none;stroke:#1A476F;stroke-width:8.64"/>
	<circle cx="2516.09" cy="1303.62" r="26.35" style="fill:#1A476F"/>
	<circle cx="2516.09" cy="1303.62" r="22.03" style="fill:none;stroke:#1A476F;stroke-width:8.64"/>
	<circle cx="1528.31" cy="2155.67" r="26.35" style="fill:#1A476F"/>
	<circle cx="1528.31" cy="2155.67" r="22.03" style="fill:none;stroke:#1A476F;stroke-width:8.64"/>
	<circle cx="1694.26" cy="1899.13" r="26.35" style="fill:#1A476F"/>
	<circle cx="1694.26" cy="1899.13" r="22.03" style="fill:none;stroke:#1A476F;stroke-width:8.64"/>
	<circle cx="1600.71" cy="2155.67" r="26.35" style="fill:#1A476F"/>
	<circle cx="1600.71" cy="2155.67" r="22.03" style="fill:none;stroke:#1A476F;stroke-width:8.64"/>
	<circle cx="1800.56" cy="1816.21" r="26.35" style="fill:#1A476F"/>
	<circle cx="1800.56" cy="1816.21" r="22.03" style="fill:none;stroke:#1A476F;stroke-width:8.64"/>
	<circle cx="2457.55" cy="1329.24" r="26.35" style="fill:#1A476F"/>
	<circle cx="2457.55" cy="1329.24" r="22.03" style="fill:none;stroke:#1A476F;stroke-width:8.64"/>
	<circle cx="1564.32" cy="1650.51" r="26.35" style="fill:#1A476F"/>
	<circle cx="1564.32" cy="1650.51" r="22.03" style="fill:none;stroke:#1A476F;stroke-width:8.64"/>
	<circle cx="2979.41" cy="947.58" r="26.35" style="fill:#1A476F"/>
	<circle cx="2979.41" cy="947.58" r="22.03" style="fill:none;stroke:#1A476F;stroke-width:8.64"/>
	<circle cx="2400.13" cy="1280.85" r="26.35" style="fill:#1A476F"/>
	<circle cx="2400.13" cy="1280.85" r="22.03" style="fill:none;stroke:#1A476F;stroke-width:8.64"/>
	<circle cx="1576.45" cy="1742.21" r="26.35" style="fill:#1A476F"/>
	<circle cx="1576.45" cy="1742.21" r="22.03" style="fill:none;stroke:#1A476F;stroke-width:8.64"/>
	<circle cx="2961.83" cy="935.58" r="26.35" style="fill:#1A476F"/>
	<circle cx="2961.83" cy="935.58" r="22.03" style="fill:none;stroke:#1A476F;stroke-width:8.64"/>
	<circle cx="3061.57" cy="906.50" r="26.35" style="fill:#1A476F"/>
	<circle cx="3061.57" cy="906.50" r="22.03" style="fill:none;stroke:#1A476F;stroke-width:8.64"/>
	<circle cx="1744.63" cy="1693.20" r="26.35" style="fill:#1A476F"/>
	<circle cx="1744.63" cy="1693.20" r="22.03" style="fill:none;stroke:#1A476F;stroke-width:8.64"/>
	<circle cx="2063.66" cy="1488.64" r="26.35" style="fill:#1A476F"/>
	<circle cx="2063.66" cy="1488.64" r="22.03" style="fill:none;stroke:#1A476F;stroke-width:8.64"/>
	<circle cx="2413.87" cy="1264.02" r="26.35" style="fill:#1A476F"/>
	<circle cx="2413.87" cy="1264.02" r="22.03" style="fill:none;stroke:#1A476F;stroke-width:8.64"/>
	<circle cx="1077.24" cy="1867.32" r="26.35" style="fill:#1A476F"/>
	<circle cx="1077.24" cy="1867.32" r="22.03" style="fill:none;stroke:#1A476F;stroke-width:8.64"/>
	<circle cx="2993.39" cy="769.01" r="26.35" style="fill:#1A476F"/>
	<circle cx="2993.39" cy="769.01" r="22.03" style="fill:none;stroke:#1A476F;stroke-width:8.64"/>
	<circle cx="2503.09" cy="1494.45" r="26.35" style="fill:#1A476F"/>
	<circle cx="2503.09" cy="1494.45" r="22.03" style="fill:none;stroke:#1A476F;stroke-width:8.64"/>
	<circle cx="2957.62" cy="998.20" r="26.35" style="fill:#1A476F"/>
	<circle cx="2957.62" cy="998.20" r="22.03" style="fill:none;stroke:#1A476F;stroke-width:8.64"/>
	<circle cx="2455.45" cy="1257.83" r="26.35" style="fill:#1A476F"/>
	<circle cx="2455.45" cy="1257.83" r="22.03" style="fill:none;stroke:#1A476F;stroke-width:8.64"/>
	<circle cx="1928.27" cy="1524.52" r="26.35" style="fill:#1A476F"/>
	<circle cx="1928.27" cy="1524.52" r="22.03" style="fill:none;stroke:#1A476F;stroke-width:8.64"/>
	<circle cx="2998.22" cy="991.14" r="26.35" style="fill:#1A476F"/>
	<circle cx="2998.22" cy="991.14" r="22.03" style="fill:none;stroke:#1A476F;stroke-width:8.64"/>
	<circle cx="2191.86" cy="1459.68" r="26.35" style="fill:#1A476F"/>
	<circle cx="2191.86" cy="1459.68" r="22.03" style="fill:none;stroke:#1A476F;stroke-width:8.64"/>
	<circle cx="1723.96" cy="1575.02" r="26.35" style="fill:#1A476F"/>
	<circle cx="1723.96" cy="1575.02" r="22.03" style="fill:none;stroke:#1A476F;stroke-width:8.64"/>
	<circle cx="2002.52" cy="1528.98" r="26.35" style="fill:#1A476F"/>
	<circle cx="2002.52" cy="1528.98" r="22.03" style="fill:none;stroke:#1A476F;stroke-width:8.64"/>
	<circle cx="2383.55" cy="1298.05" r="26.35" style="fill:#1A476F"/>
	<circle cx="2383.55" cy="1298.05" r="22.03" style="fill:none;stroke:#1A476F;stroke-width:8.64"/>
	<circle cx="1509.13" cy="1827.72" r="26.35" style="fill:#1A476F"/>
	<circle cx="1509.13" cy="1827.72" r="22.03" style="fill:none;stroke:#1A476F;stroke-width:8.64"/>
	<circle cx="1982.10" cy="1547.79" r="26.35" style="fill:#1A476F"/>
	<circle cx="1982.10" cy="1547.79" r="22.03" style="fill:none;stroke:#1A476F;stroke-width:8.64"/>
	<circle cx="1648.47" cy="1577.49" r="26.35" style="fill:#1A476F"/>
	<circle cx="1648.47" cy="1577.49" r="22.03" style="fill:none;stroke:#1A476F;stroke-width:8.64"/>
	<circle cx="2839.57" cy="1220.71" r="26.35" style="fill:#1A476F"/>
	<circle cx="2839.57" cy="1220.71" r="22.03" style="fill:none;stroke:#1A476F;stroke-width:8.64"/>
	<circle cx="2045.22" cy="1397.68" r="26.35" style="fill:#1A476F"/>
	<circle cx="2045.22" cy="1397.68" r="22.03" style="fill:none;stroke:#1A476F;stroke-width:8.64"/>
	<circle cx="1770.86" cy="1886.63" r="26.35" style="fill:#1A476F"/>
	<circle cx="1770.86" cy="1886.63" r="22.03" style="fill:none;stroke:#1A476F;stroke-width:8.64"/>
	<circle cx="2413.00" cy="1424.53" r="26.35" style="fill:#1A476F"/>
	<circle cx="2413.00" cy="1424.53" r="22.03" style="fill:none;stroke:#1A476F;stroke-width:8.64"/>
	<circle cx="1418.92" cy="2056.54" r="26.35" style="fill:#1A476F"/>
	<circle cx="1418.92" cy="2056.54" r="22.03" style="fill:none;stroke:#1A476F;stroke-width:8.64"/>
	<circle cx="1625.33" cy="1984.39" r="26.35" style="fill:#1A476F"/>
	<circle cx="1625.33" cy="1984.39" r="22.03" style="fill:none;stroke:#1A476F;stroke-width:8.64"/>
	<circle cx="2081.23" cy="1771.17" r="26.35" style="fill:#1A476F"/>
	<circle cx="2081.23" cy="1771.17" r="22.03" style="fill:none;stroke:#1A476F;stroke-width:8.64"/>
	<circle cx="1136.03" cy="1713.62" r="26.35" style="fill:#1A476F"/>
	<circle cx="1136.03" cy="1713.62" r="22.03" style="fill:none;stroke:#1A476F;stroke-width:8.64"/>
	<circle cx="2261.41" cy="1248.92" r="26.35" style="fill:#1A476F"/>
	<circle cx="2261.41" cy="1248.92" r="22.03" style="fill:none;stroke:#1A476F;stroke-width:8.64"/>
	<circle cx="1525.10" cy="1089.41" r="26.35" style="fill:#1A476F"/>
	<circle cx="1525.10" cy="1089.41" r="22.03" style="fill:none;stroke:#1A476F;stroke-width:8.64"/>
	<circle cx="2610.38" cy="892.02" r="26.35" style="fill:#1A476F"/>
	<circle cx="2610.38" cy="892.02" r="22.03" style="fill:none;stroke:#1A476F;stroke-width:8.64"/>
	<circle cx="1730.89" cy="1173.93" r="26.35" style="fill:#1A476F"/>
	<circle cx="1730.89" cy="1173.93" r="22.03" style="fill:none;stroke:#1A476F;stroke-width:8.64"/>
	<circle cx="1148.40" cy="1451.76" r="26.35" style="fill:#1A476F"/>
	<circle cx="1148.40" cy="1451.76" r="22.03" style="fill:none;stroke:#1A476F;stroke-width:8.64"/>
	<circle cx="2188.77" cy="1216.62" r="26.35" style="fill:#1A476F"/>
	<circle cx="2188.77" cy="1216.62" r="22.03" style="fill:none;stroke:#1A476F;stroke-width:8.64"/>
	<circle cx="1039.01" cy="1821.90" r="26.35" style="fill:#1A476F"/>
	<circle cx="1039.01" cy="1821.90" r="22.03" style="fill:none;stroke:#1A476F;stroke-width:8.64"/>
	<circle cx="1874.94" cy="1512.40" r="26.35" style="fill:#1A476F"/>
	<circle cx="1874.94" cy="1512.40" r="22.03" style="fill:none;stroke:#1A476F;stroke-width:8.64"/>
	<circle cx="1219.06" cy="1601.13" r="26.35" style="fill:#1A476F"/>
	<circle cx="1219.06" cy="1601.13" r="22.03" style="fill:none;stroke:#1A476F;stroke-width:8.64"/>
	<circle cx="1598.23" cy="1536.16" r="26.35" style="fill:#1A476F"/>
	<circle cx="1598.23" cy="1536.16" r="22.03" style="fill:none;stroke:#1A476F;stroke-width:8.64"/>
	<circle cx="717.25" cy="2021.15" r="26.35" style="fill:#1A476F"/>
	<circle cx="717.25" cy="2021.15" r="22.03" style="fill:none;stroke:#1A476F;stroke-width:8.64"/>
	<circle cx="2303.48" cy="1309.93" r="26.35" style="fill:#1A476F"/>
	<circle cx="2303.48" cy="1309.93" r="22.03" style="fill:none;stroke:#1A476F;stroke-width:8.64"/>
	<circle cx="1780.27" cy="1633.30" r="26.35" style="fill:#1A476F"/>
	<circle cx="1780.27" cy="1633.30" r="22.03" style="fill:none;stroke:#1A476F;stroke-width:8.64"/>
	<circle cx="1437.97" cy="1681.69" r="26.35" style="fill:#1A476F"/>
	<circle cx="1437.97" cy="1681.69" r="22.03" style="fill:none;stroke:#1A476F;stroke-width:8.64"/>
	<circle cx="553.53" cy="1998.25" r="26.35" style="fill:#1A476F"/>
	<circle cx="553.53" cy="1998.25" r="22.03" style="fill:none;stroke:#1A476F;stroke-width:8.64"/>
	<circle cx="1396.39" cy="1357.58" r="26.35" style="fill:#1A476F"/>
	<circle cx="1396.39" cy="1357.58" r="22.03" style="fill:none;stroke:#1A476F;stroke-width:8.64"/>
	<circle cx="1606.03" cy="1782.67" r="26.35" style="fill:#1A476F"/>
	<circle cx="1606.03" cy="1782.67" r="22.03" style="fill:none;stroke:#1A476F;stroke-width:8.64"/>
	<circle cx="1180.20" cy="1696.17" r="26.35" style="fill:#1A476F"/>
	<circle cx="1180.20" cy="1696.17" r="22.03" style="fill:none;stroke:#1A476F;stroke-width:8.64"/>
	<circle cx="1900.43" cy="1586.77" r="26.35" style="fill:#1A476F"/>
	<circle cx="1900.43" cy="1586.77" r="22.03" style="fill:none;stroke:#1A476F;stroke-width:8.64"/>
	<circle cx="2177.51" cy="1414.38" r="26.35" style="fill:#1A476F"/>
	<circle cx="2177.51" cy="1414.38" r="22.03" style="fill:none;stroke:#1A476F;stroke-width:8.64"/>
	<circle cx="1463.96" cy="1744.19" r="26.35" style="fill:#1A476F"/>
	<circle cx="1463.96" cy="1744.19" r="22.03" style="fill:none;stroke:#1A476F;stroke-width:8.64"/>
	<circle cx="774.43" cy="1797.40" r="26.35" style="fill:#1A476F"/>
	<circle cx="774.43" cy="1797.40" r="22.03" style="fill:none;stroke:#1A476F;stroke-width:8.64"/>
	<circle cx="2354.72" cy="1346.19" r="26.35" style="fill:#1A476F"/>
	<circle cx="2354.72" cy="1346.19" r="22.03" style="fill:none;stroke:#1A476F;stroke-width:8.64"/>
	<circle cx="2302.62" cy="1354.36" r="26.35" style="fill:#1A476F"/>
	<circle cx="2302.62" cy="1354.36" r="22.03" style="fill:none;stroke:#1A476F;stroke-width:8.64"/>
	<circle cx="1316.08" cy="1856.68" r="26.35" style="fill:#1A476F"/>
	<circle cx="1316.08" cy="1856.68" r="22.03" style="fill:none;stroke:#1A476F;stroke-width:8.64"/>
	<circle cx="1099.39" cy="2191.06" r="26.35" style="fill:#1A476F"/>
	<circle cx="1099.39" cy="2191.06" r="22.03" style="fill:none;stroke:#1A476F;stroke-width:8.64"/>
	<circle cx="2186.79" cy="1404.98" r="26.35" style="fill:#1A476F"/>
	<circle cx="2186.79" cy="1404.98" r="22.03" style="fill:none;stroke:#1A476F;stroke-width:8.64"/>
	<circle cx="1030.71" cy="2155.67" r="26.35" style="fill:#1A476F"/>
	<circle cx="1030.71" cy="2155.67" r="22.03" style="fill:none;stroke:#1A476F;stroke-width:8.64"/>
	<circle cx="1575.09" cy="2112.35" r="26.35" style="fill:#1A476F"/>
	<circle cx="1575.09" cy="2112.35" r="22.03" style="fill:none;stroke:#1A476F;stroke-width:8.64"/>
	<circle cx="1882.11" cy="1554.97" r="26.35" style="fill:#1A476F"/>
	<circle cx="1882.11" cy="1554.97" r="22.03" style="fill:none;stroke:#1A476F;stroke-width:8.64"/>
	<circle cx="1804.65" cy="1684.41" r="26.35" style="fill:#1A476F"/>
	<circle cx="1804.65" cy="1684.41" r="22.03" style="fill:none;stroke:#1A476F;stroke-width:8.64"/>
	<circle cx="1949.93" cy="1907.91" r="26.35" style="fill:#1A476F"/>
	<circle cx="1949.93" cy="1907.91" r="22.03" style="fill:none;stroke:#1A476F;stroke-width:8.64"/>
	<circle cx="1956.36" cy="1561.65" r="26.35" style="fill:#1A476F"/>
	<circle cx="1956.36" cy="1561.65" r="22.03" style="fill:none;stroke:#1A476F;stroke-width:8.64"/>
	<circle cx="1711.83" cy="1768.94" r="26.35" style="fill:#1A476F"/>
	<circle cx="1711.83" cy="1768.94" r="22.03" style="fill:none;stroke:#1A476F;stroke-width:8.64"/>
	<circle cx="1271.65" cy="1965.34" r="26.35" style="fill:#1A476F"/>
	<circle cx="1271.65" cy="1965.34" r="22.03" style="fill:none;stroke:#1A476F;stroke-width:8.64"/>
	<circle cx="1507.15" cy="1959.27" r="26.35" style="fill:#1A476F"/>
	<circle cx="1507.15" cy="1959.27" r="22.03" style="fill:none;stroke:#1A476F;stroke-width:8.64"/>
	<circle cx="1685.60" cy="1818.93" r="26.35" style="fill:#1A476F"/>
	<circle cx="1685.60" cy="1818.93" r="22.03" style="fill:none;stroke:#1A476F;stroke-width:8.64"/>
	<circle cx="725.30" cy="2172.50" r="26.35" style="fill:#1A476F"/>
	<circle cx="725.30" cy="2172.50" r="22.03" style="fill:none;stroke:#1A476F;stroke-width:8.64"/>
	<circle cx="2215.37" cy="1230.48" r="26.35" style="fill:#1A476F"/>
	<circle cx="2215.37" cy="1230.48" r="22.03" style="fill:none;stroke:#1A476F;stroke-width:8.64"/>
	<circle cx="2019.97" cy="1456.58" r="26.35" style="fill:#1A476F"/>
	<circle cx="2019.97" cy="1456.58" r="22.03" style="fill:none;stroke:#1A476F;stroke-width:8.64"/>
	<circle cx="2805.66" cy="1074.55" r="26.35" style="fill:#1A476F"/>
	<circle cx="2805.66" cy="1074.55" r="22.03" style="fill:none;stroke:#1A476F;stroke-width:8.64"/>
	<circle cx="2154.98" cy="1501.01" r="26.35" style="fill:#1A476F"/>
	<circle cx="2154.98" cy="1501.01" r="22.03" style="fill:none;stroke:#1A476F;stroke-width:8.64"/>
	<circle cx="1721.12" cy="1555.71" r="26.35" style="fill:#1A476F"/>
	<circle cx="1721.12" cy="1555.71" r="22.03" style="fill:none;stroke:#1A476F;stroke-width:8.64"/>
	<circle cx="2732.40" cy="1049.43" r="26.35" style="fill:#1A476F"/>
	<circle cx="2732.40" cy="1049.43" r="22.03" style="fill:none;stroke:#1A476F;stroke-width:8.64"/>
	<circle cx="2238.02" cy="1412.90" r="26.35" style="fill:#1A476F"/>
	<circle cx="2238.02" cy="1412.90" r="22.03" style="fill:none;stroke:#1A476F;stroke-width:8.64"/>
	<circle cx="1869.37" cy="1756.19" r="26.35" style="fill:#1A476F"/>
	<circle cx="1869.37" cy="1756.19" r="22.03" style="fill:none;stroke:#1A476F;stroke-width:8.64"/>
	<circle cx="1833.85" cy="1678.84" r="26.35" style="fill:#1A476F"/>
	<circle cx="1833.85" cy="1678.84" r="22.03" style="fill:none;stroke:#1A476F;stroke-width:8.64"/>
	<circle cx="2223.91" cy="1476.01" r="26.35" style="fill:#1A476F"/>
	<circle cx="2223.91" cy="1476.01" r="22.03" style="fill:none;stroke:#1A476F;stroke-width:8.64"/>
	<circle cx="1690.67" cy="1716.96" r="26.35" style="fill:#1A476F"/>
	<circle cx="1690.67" cy="1716.96" r="22.03" style="fill:none;stroke:#1A476F;stroke-width:8.64"/>
	<circle cx="1961.68" cy="1405.35" r="26.35" style="fill:#1A476F"/>
	<circle cx="1961.68" cy="1405.35" r="22.03" style="fill:none;stroke:#1A476F;stroke-width:8.64"/>
	<circle cx="1639.93" cy="1270.33" r="26.35" style="fill:#1A476F"/>
	<circle cx="1639.93" cy="1270.33" r="22.03" style="fill:none;stroke:#1A476F;stroke-width:8.64"/>
	<circle cx="2536.01" cy="1142.12" r="26.35" style="fill:#1A476F"/>
	<circle cx="2536.01" cy="1142.12" r="22.03" style="fill:none;stroke:#1A476F;stroke-width:8.64"/>
	<circle cx="2249.03" cy="1246.70" r="26.35" style="fill:#1A476F"/>
	<circle cx="2249.03" cy="1246.70" r="22.03" style="fill:none;stroke:#1A476F;stroke-width:8.64"/>
	<circle cx="1185.77" cy="1433.69" r="26.35" style="fill:#1A476F"/>
	<circle cx="1185.77" cy="1433.69" r="22.03" style="fill:none;stroke:#1A476F;stroke-width:8.64"/>
	<circle cx="2268.83" cy="1169.10" r="26.35" style="fill:#1A476F"/>
	<circle cx="2268.83" cy="1169.10" r="22.03" style="fill:none;stroke:#1A476F;stroke-width:8.64"/>
	<circle cx="1435.01" cy="1528.36" r="26.35" style="fill:#1A476F"/>
	<circle cx="1435.01" cy="1528.36" r="22.03" style="fill:none;stroke:#1A476F;stroke-width:8.64"/>
	<circle cx="1589.69" cy="1361.29" r="26.35" style="fill:#1A476F"/>
	<circle cx="1589.69" cy="1361.29" r="22.03" style="fill:none;stroke:#1A476F;stroke-width:8.64"/>
	<circle cx="1189.98" cy="1664.12" r="26.35" style="fill:#1A476F"/>
	<circle cx="1189.98" cy="1664.12" r="22.03" style="fill:none;stroke:#1A476F;stroke-width:8.64"/>
	<circle cx="2644.91" cy="1346.19" r="26.35" style="fill:#1A476F"/>
	<circle cx="2644.91" cy="1346.19" r="22.03" style="fill:none;stroke:#1A476F;stroke-width:8.64"/>
	<circle cx="1029.85" cy="1669.32" r="26.35" style="fill:#1A476F"/>
	<circle cx="1029.85" cy="1669.32" r="22.03" style="fill:none;stroke:#1A476F;stroke-width:8.64"/>
	<path d=" M2282.07 1360.80 L2320.81 1338.15 L2910.60 994.49 L2342.34 1325.65 L2347.66 1322.56 L2720.15 1105.49 L2059.82 1490.24 L2674.98 1131.73 L1599.96 1758.17 L2492.94 1237.91 L1070.93 2066.44 L2304.84 1347.43 L2078.26 1479.48 L2491.21 1238.90 L3271.21 784.35 L3569.69 610.48 L3334.07 747.72 L2953.79 969.36 L3795.66 478.80 L2922.60 987.56 L1088.01 2056.54 L2523.39 1220.09 L3273.68 782.99 L2603.95 1173.19 L2849.10 1030.37 L2838.21 1036.69 L2702.82 1115.64 L1972.95 1540.86 L3281.97 778.04 L1545.64 1789.85 L2624.49 1161.18 L2133.08 1447.55 L2265.99 1370.08 L3198.81 826.55 L2874.22 1015.65 L2345.80 1323.67 L2225.77 1393.47 L2600.85 1174.92 L2223.05 1395.08 L2448.64 1263.65 L1244.55 1965.34 L2854.79 1027.03 L1750.20 1670.68 L2096.45 1468.83 L1343.06 1907.91 L1436.86 1853.21 L2008.34 1520.19 L1740.91 1676.12 L1134.66 2029.32 L2537.25 1212.05 L1188.00 1998.25 L1922.58 1570.19 L2109.20 1461.53 L687.06 2290.19 L2220.32 1396.69 L2360.66 1314.88 L2101.28 1466.11 L2134.56 1446.68 L2424.01 1278.01 L2539.10 1210.93 L2790.44 1064.53 L2889.56 1006.74 L2654.56 1143.73 L1188.00 1998.25 L1562.10 1780.32 L1861.57 1605.83 L2321.67 1337.66 L1834.35 1621.67 L1119.81 2037.98 L2371.42 1308.70 L1442.68 1849.87 L1292.94 1937.12 L2543.93 1208.09 L2011.56 1518.46 L888.90 2172.50 L1134.66 2029.32 L944.58 2140.08 L1599.96 1758.17 L1033.93 2087.98 L1573.85 1773.39 L1992.25 1529.60 L1523.86 1802.60 L1886.69 1591.10 L1667.78 1718.69 L1819.87 1630.09 L2120.58 1454.85 L1690.30 1705.58 L1617.41 1748.02 L1070.93 2066.44 L738.42 2260.24 L2496.28 1235.93 L2105.24 1463.76 L2062.54 1488.64 L782.84 2234.38 L2380.21 1303.62 L917.98 2155.67 L1358.16 1899.13 L917.98 2155.67 L1500.47 1816.21 L2336.15 1329.24 L1784.72 1650.51 L2991.16 947.58 L2419.07 1280.85 L1627.44 1742.21 L3011.70 935.58 L3061.57 906.50 L1711.46 1693.20 L2062.54 1488.64 L2448.15 1264.02 L1412.61 1867.32 L3297.57 769.01 L2052.52 1494.45 L2904.16 998.20 L2458.54 1257.83 L2000.91 1524.52 L2916.29 991.14 L2112.16 1459.68 L1914.29 1575.02 L1993.37 1528.98 L2389.61 1298.05 L1480.67 1827.72 L1961.07 1547.79 L1910.08 1577.49 L2522.52 1220.71 L2218.59 1397.68 L1379.69 1886.63 L2172.55 1424.53 L1088.01 2056.54 L1211.76 1984.39 L1577.69 1771.17 L1676.44 1713.62 L2474.01 1248.92 L2747.62 1089.41 L3086.45 892.02 L2602.71 1173.93 L2125.78 1451.76 L2529.33 1216.62 L1490.69 1821.90 L2021.70 1512.40 L1869.62 1601.13 L1980.99 1536.16 L1148.77 2021.15 L2369.32 1309.93 L1814.30 1633.30 L1731.39 1681.69 L1188.00 1998.25 L2287.52 1357.58 L1558.01 1782.67 L1706.27 1696.17 L1894.24 1586.77 L2190.13 1414.38 L1624.10 1744.19 L1532.64 1797.40 L2306.95 1346.19 L2292.96 1354.36 L1431.05 1856.68 L857.22 2191.06 L2206.09 1404.98 L917.98 2155.67 L992.23 2112.35 L1948.69 1554.97 L1726.56 1684.41 L1343.06 1907.91 L1937.18 1561.65 L1581.53 1768.94 L1244.55 1965.34 L1254.83 1959.27 L1495.64 1818.93 L888.90 2172.50 L2505.69 1230.48 L2117.61 1456.58 L2773.11 1074.55 L2041.38 1501.01 L1947.45 1555.71 L2816.30 1049.43 L2192.48 1412.90 L1603.55 1756.19 L1736.21 1678.84 L2084.20 1476.01 L1670.62 1716.96 L2205.47 1405.35 L2437.26 1270.33 L2657.28 1142.12 L2477.85 1246.70 L2156.84 1433.69 L2611.00 1169.10 L1994.48 1528.36 L2281.08 1361.29 L1761.33 1664.12 L2306.95 1346.19 L1752.42 1669.32 L2555.93 1201.16 L3441.49 685.10 L2765.94 1078.76 L3123.20 870.61 L3367.73 728.17 L3340.51 744.01 L2736.24 1096.09 L3216.39 816.28 L2073.93 1481.95 L2650.60 1145.96 L3026.55 926.92 L2429.95 1274.54 L2503.34 1231.85 L2523.63 1219.97 L2525.37 1218.98 L1695.75 1702.36 L2145.21 1440.50 L2059.82 1490.24 L1772.22 1657.81 L2442.70 1267.12 L2845.63 1032.35 L2076.53 1480.47 L2863.08 1022.21 L1633.99 1738.37 L1162.38 2013.23 L2301.75 1349.29 L2876.45 1014.41 L2314.62 1341.74 L2667.80 1135.94 L3010.96 935.95 L2639.09 1152.77 L2699.85 1117.25 L3502.74 649.46 L3457.45 675.82 L3213.29 818.14 L2800.22 1058.84 L2341.60 1326.15 L2326.13 1335.06 L2796.63 1060.94 L2360.28 1315.13 L1673.60 1715.35 L2455.82 1259.44 L2590.09 1181.23 L1264.85 1953.45 L2326.99 1334.56 L3357.59 734.11 L2893.40 1004.51 L2601.10 1174.92 L1188.00 1998.25 L2345.43 1323.80 L1566.06 1777.97 L2461.02 1256.47 L3241.88 801.55 L2092.36 1471.31 L2624.99 1160.94 L2685.62 1125.54 L2604.44 1172.94 L1898.57 1584.17 L2225.77 1393.47 L1070.93 2066.44 L1912.93 1575.88 L1640.31 1734.66 L1914.29 1575.02 L2495.42 1236.42 L1301.85 1931.92 L1808.61 1636.64 L2324.15 1336.29 L2578.70 1187.91 L2018.73 1514.25 L2456.44 1259.20 L1778.54 1654.09 L1406.30 1871.03 L1988.91 1531.58 L1310.51 1926.85 L1778.54 1654.09 L2575.73 1189.65 L1726.56 1684.41 L1418.92 1863.73 L1649.71 1729.21 L2364.37 1312.78 L2401.86 1291.00 L1436.86 1853.21 L2539.60 1210.68 L1661.84 1722.16 L782.84 2234.38 L1013.76 2099.86 L2319.20 1339.14 L1832.61 1622.66 L1962.18 1547.17 L2722.01 1104.38 L2749.35 1088.42 L1792.89 1645.80 L1939.78 1560.17 L2433.42 1272.56 L2417.21 1281.97 L2310.41 1344.21 L1708.86 1694.69 L1162.38 2013.23 L2073.93 1481.95 L1365.46 1894.80 L3121.35 871.72 L2675.60 1131.48 L1958.59 1549.27 L2605.43 1172.32 L1033.93 2087.98 L2357.44 1316.86 L2670.40 1134.45 L3164.16 846.72 L1943.62 1557.94 L1148.77 2021.15 L1763.56 1662.88 L857.22 2191.06 L2571.65 1192.00 L3023.09 929.02 L1969.36 1542.96 L2480.69 1244.96 L2694.16 1120.59 L2059.82 1490.24 L2461.88 1255.98 L3087.93 891.15 L1761.33 1664.12 L944.58 2140.08 L2417.58 1281.84 L1418.92 1863.73 L2083.33 1476.51 L1510.00 1810.64 L2430.82 1274.05 L1774.33 1656.57 L1693.02 1703.97 L1902.90 1581.70 L969.21 2125.72 L1798.83 1642.34 L2185.18 1417.23 L2567.57 1194.35 L2562.00 1197.57 L2230.22 1390.99 L2376.37 1305.85 L2537.37 1211.92 L2414.11 1283.82 L1562.10 1780.32 L2375.38 1306.35 L1495.64 1818.93 L2093.23 1470.81 L1570.02 1775.62" stroke-linejoin="round" style="fill:none;stroke:#90353B;stroke-width:8.64"/>
	<line x1="390.80" y1="2489.19" x2="390.80" y2="415.32" style="stroke:#000000;stroke-width:5.76"/>
	<line x1="390.80" y1="2425.82" x2="350.83" y2="2425.82" style="stroke:#000000;stroke-width:5.76"/>
	<text x="300.72" y="2425.82" style="font-family:'Helvetica';font-size:99.99px;fill:#000000" transform="rotate(-90 300.72,2425.82)" text-anchor="middle">8</text>
	<line x1="390.80" y1="2037.73" x2="350.83" y2="2037.73" style="stroke:#000000;stroke-width:5.76"/>
	<text x="300.72" y="2037.73" style="font-family:'Helvetica';font-size:99.99px;fill:#000000" transform="rotate(-90 300.72,2037.73)" text-anchor="middle">10</text>
	<line x1="390.80" y1="1649.52" x2="350.83" y2="1649.52" style="stroke:#000000;stroke-width:5.76"/>
	<text x="300.72" y="1649.52" style="font-family:'Helvetica';font-size:99.99px;fill:#000000" transform="rotate(-90 300.72,1649.52)" text-anchor="middle">12</text>
	<line x1="390.80" y1="1261.42" x2="350.83" y2="1261.42" style="stroke:#000000;stroke-width:5.76"/>
	<text x="300.72" y="1261.42" style="font-family:'Helvetica';font-size:99.99px;fill:#000000" transform="rotate(-90 300.72,1261.42)" text-anchor="middle">14</text>
	<line x1="390.80" y1="873.21" x2="350.83" y2="873.21" style="stroke:#000000;stroke-width:5.76"/>
	<text x="300.72" y="873.21" style="font-family:'Helvetica';font-size:99.99px;fill:#000000" transform="rotate(-90 300.72,873.21)" text-anchor="middle">16</text>
	<line x1="390.80" y1="485.12" x2="350.83" y2="485.12" style="stroke:#000000;stroke-width:5.76"/>
	<text x="300.72" y="485.12" style="font-family:'Helvetica';font-size:99.99px;fill:#000000" transform="rotate(-90 300.72,485.12)" text-anchor="middle">18</text>
	<text x="190.71" y="1452.25" style="font-family:'Helvetica';font-size:99.99px;fill:#000000" transform="rotate(-90 190.71,1452.25)" text-anchor="middle">Source : Résumé</text>
	<line x1="390.80" y1="2489.19" x2="3859.02" y2="2489.19" style="stroke:#000000;stroke-width:5.76"/>
	<line x1="454.16" y1="2489.19" x2="454.16" y2="2529.16" style="stroke:#000000;stroke-width:5.76"/>
	<text x="454.16" y="2619.14" style="font-family:'Helvetica';font-size:99.99px;fill:#000000" text-anchor="middle">8</text>
	<line x1="1120.31" y1="2489.19" x2="1120.31" y2="2529.16" style="stroke:#000000;stroke-width:5.76"/>
	<text x="1120.31" y="2619.14" style="font-family:'Helvetica';font-size:99.99px;fill:#000000" text-anchor="middle">10</text>
	<line x1="1786.33" y1="2489.19" x2="1786.33" y2="2529.16" style="stroke:#000000;stroke-width:5.76"/>
	<text x="1786.33" y="2619.14" style="font-family:'Helvetica';font-size:99.99px;fill:#000000" text-anchor="middle">12</text>
	<line x1="2452.48" y1="2489.19" x2="2452.48" y2="2529.16" style="stroke:#000000;stroke-width:5.76"/>
	<text x="2452.48" y="2619.14" style="font-family:'Helvetica';font-size:99.99px;fill:#000000" text-anchor="middle">14</text>
	<line x1="3118.62" y1="2489.19" x2="3118.62" y2="2529.16" style="stroke:#000000;stroke-width:5.76"/>
	<text x="3118.62" y="2619.14" style="font-family:'Helvetica';font-size:99.99px;fill:#000000" text-anchor="middle">16</text>
	<line x1="3784.77" y1="2489.19" x2="3784.77" y2="2529.16" style="stroke:#000000;stroke-width:5.76"/>
	<text x="3784.77" y="2619.14" style="font-family:'Helvetica';font-size:99.99px;fill:#000000" text-anchor="middle">18</text>
	<text x="2124.91" y="2729.16" style="font-family:'Helvetica';font-size:99.99px;fill:#000000" text-anchor="middle">Sources : Autres</text>
	<text x="2124.91" y="215.98" style="font-family:'Helvetica';font-size:139.96px;fill:#1E2D53" text-anchor="middle">Comparaison des sources</text>
	<text x="2124.91" y="356.06" style="font-family:'Helvetica';font-size:139.96px;fill:#1E2D53" text-anchor="middle"> par partenaire et produit (Exports 1789)</text>
</svg>
