<?xml version="1.0" encoding="UTF-8" standalone="no"?>
<!-- This is a Stata 17.0 generated SVG file (http://www.stata.com) -->

<svg version="1.1" width="5.500in" height="4.000in" viewBox="0 0 3960 2880" xmlns="http://www.w3.org/2000/svg" xmlns:xlink="http://www.w3.org/1999/xlink">
	<desc>Stata Graph - graph3</desc>
	<rect x="0" y="0" width="3960" height="2880" style="fill:#EAF2F3;stroke:none"/>
	<rect x="0.00" y="0.00" width="3959.88" height="2880.00" style="fill:#EAF2F3"/>
	<rect x="2.88" y="2.88" width="3954.12" height="2874.24" style="fill:none;stroke:#EAF2F3;stroke-width:5.76"/>
	<rect x="390.80" y="415.32" width="3468.22" height="2073.87" style="fill:#FFFFFF"/>
	<rect x="393.68" y="418.20" width="3462.46" height="2068.11" style="fill:none;stroke:#FFFFFF;stroke-width:5.76"/>
	<line x1="390.80" y1="2366.55" x2="3859.02" y2="2366.55" style="stroke:#EAF2F3;stroke-width:8.64"/>
	<line x1="390.80" y1="2007.66" x2="3859.02" y2="2007.66" style="stroke:#EAF2F3;stroke-width:8.64"/>
	<line x1="390.80" y1="1648.65" x2="3859.02" y2="1648.65" style="stroke:#EAF2F3;stroke-width:8.64"/>
	<line x1="390.80" y1="1289.64" x2="3859.02" y2="1289.64" style="stroke:#EAF2F3;stroke-width:8.64"/>
	<line x1="390.80" y1="930.63" x2="3859.02" y2="930.63" style="stroke:#EAF2F3;stroke-width:8.64"/>
	<line x1="390.80" y1="571.74" x2="3859.02" y2="571.74" style="stroke:#EAF2F3;stroke-width:8.64"/>
	<circle cx="2050.41" cy="1277.63" r="26.35" style="fill:#1A476F"/>
	<circle cx="2050.41" cy="1277.63" r="22.03" style="fill:none;stroke:#1A476F;stroke-width:8.64"/>
	<text x="2092.36" y="1305.65" style="font-family:'Helvetica';font-size:79.94px;fill:#1A476f">Allemagne</text>
	<circle cx="1984.83" cy="1155.98" r="26.35" style="fill:#1A476F"/>
	<circle cx="1984.83" cy="1155.98" r="22.03" style="fill:none;stroke:#1A476F;stroke-width:8.64"/>
	<text x="2026.78" y="1184.00" style="font-family:'Helvetica';font-size:79.94px;fill:#1A476f">Angleterre</text>
	<circle cx="2442.33" cy="1098.93" r="26.35" style="fill:#1A476F"/>
	<circle cx="2442.33" cy="1098.93" r="22.03" style="fill:none;stroke:#1A476F;stroke-width:8.64"/>
	<text x="2484.28" y="1126.95" style="font-family:'Helvetica';font-size:79.94px;fill:#1A476f">Espagne</text>
	<circle cx="1796.36" cy="1234.82" r="26.35" style="fill:#1A476F"/>
	<circle cx="1796.36" cy="1234.82" r="22.03" style="fill:none;stroke:#1A476F;stroke-width:8.64"/>
	<text x="1838.31" y="1262.83" style="font-family:'Helvetica';font-size:79.94px;fill:#1A476f">Flandre et autres états de l'Empereur</text>
	<circle cx="1571.75" cy="1081.36" r="26.35" style="fill:#1A476F"/>
	<circle cx="1571.75" cy="1081.36" r="22.03" style="fill:none;stroke:#1A476F;stroke-width:8.64"/>
	<text x="1613.70" y="1109.37" style="font-family:'Helvetica';font-size:79.94px;fill:#1A476f">Hollande</text>
	<circle cx="2271.18" cy="1030.99" r="26.35" style="fill:#1A476F"/>
	<circle cx="2271.18" cy="1030.99" r="22.03" style="fill:none;stroke:#1A476F;stroke-width:8.64"/>
	<text x="2313.14" y="1059.01" style="font-family:'Helvetica';font-size:79.94px;fill:#1A476f">Italie</text>
	<circle cx="1849.94" cy="1357.58" r="26.35" style="fill:#1A476F"/>
	<circle cx="1849.94" cy="1357.58" r="22.03" style="fill:none;stroke:#1A476F;stroke-width:8.64"/>
	<text x="1891.89" y="1385.59" style="font-family:'Helvetica';font-size:79.94px;fill:#1A476f">Levant et Barbarie</text>
	<circle cx="2056.11" cy="806.63" r="26.35" style="fill:#1A476F"/>
	<circle cx="2056.11" cy="806.63" r="22.03" style="fill:none;stroke:#1A476F;stroke-width:8.64"/>
	<text x="2098.06" y="834.64" style="font-family:'Helvetica';font-size:79.94px;fill:#1A476f">Nord</text>
	<circle cx="2871.99" cy="852.42" r="26.35" style="fill:#1A476F"/>
	<circle cx="2871.99" cy="852.42" r="22.03" style="fill:none;stroke:#1A476F;stroke-width:8.64"/>
	<text x="2913.94" y="880.43" style="font-family:'Helvetica';font-size:79.94px;fill:#1A476f">Outre-mers</text>
	<circle cx="709.95" cy="2025.85" r="26.35" style="fill:#1A476F"/>
	<circle cx="709.95" cy="2025.85" r="22.03" style="fill:none;stroke:#1A476F;stroke-width:8.64"/>
	<text x="751.91" y="2053.86" style="font-family:'Helvetica';font-size:79.94px;fill:#1A476f">Portugal</text>
	<circle cx="1794.75" cy="1356.47" r="26.35" style="fill:#1A476F"/>
	<circle cx="1794.75" cy="1356.47" r="22.03" style="fill:none;stroke:#1A476F;stroke-width:8.64"/>
	<text x="1836.70" y="1384.48" style="font-family:'Helvetica';font-size:79.94px;fill:#1A476f">Suisse</text>
	<circle cx="454.16" cy="2355.04" r="26.35" style="fill:#1A476F"/>
	<circle cx="454.16" cy="2355.04" r="22.03" style="fill:none;stroke:#1A476F;stroke-width:8.64"/>
	<text x="496.11" y="2383.05" style="font-family:'Helvetica';font-size:79.94px;fill:#1A476f">États-Unis d'Amérique</text>
	<path d=" M2050.41 1368.72 L1434.88 1776.24 L1984.70 1412.16 L2631.05 984.09 L2442.33 1109.08 L2196.81 1271.69 L1796.36 1536.90 L2295.19 1206.48 L1571.75 1685.65 L2398.15 1138.29 L2271.06 1222.44 L2744.78 908.85 L1849.82 1501.51 L2436.51 1112.92 L2055.98 1365.01 L2381.20 1149.55 L2871.99 824.57 L3394.09 478.80 L709.83 2256.53 L1446.89 1768.32 L1794.62 1538.01 L1283.04 1876.85 L454.04 2425.95 L1830.88 1514.00" stroke-linejoin="round" style="fill:none;stroke:#90353B;stroke-width:8.64"/>
	<line x1="390.80" y1="2489.19" x2="390.80" y2="415.32" style="stroke:#000000;stroke-width:5.76"/>
	<line x1="390.80" y1="2366.55" x2="350.83" y2="2366.55" style="stroke:#000000;stroke-width:5.76"/>
	<text x="300.72" y="2366.55" style="font-family:'Helvetica';font-size:99.99px;fill:#000000" transform="rotate(-90 300.72,2366.55)" text-anchor="middle">14</text>
	<line x1="390.80" y1="2007.66" x2="350.83" y2="2007.66" style="stroke:#000000;stroke-width:5.76"/>
	<text x="300.72" y="2007.66" style="font-family:'Helvetica';font-size:99.99px;fill:#000000" transform="rotate(-90 300.72,2007.66)" text-anchor="middle">15</text>
	<line x1="390.80" y1="1648.65" x2="350.83" y2="1648.65" style="stroke:#000000;stroke-width:5.76"/>
	<text x="300.72" y="1648.65" style="font-family:'Helvetica';font-size:99.99px;fill:#000000" transform="rotate(-90 300.72,1648.65)" text-anchor="middle">16</text>
	<line x1="390.80" y1="1289.64" x2="350.83" y2="1289.64" style="stroke:#000000;stroke-width:5.76"/>
	<text x="300.72" y="1289.64" style="font-family:'Helvetica';font-size:99.99px;fill:#000000" transform="rotate(-90 300.72,1289.64)" text-anchor="middle">17</text>
	<line x1="390.80" y1="930.63" x2="350.83" y2="930.63" style="stroke:#000000;stroke-width:5.76"/>
	<text x="300.72" y="930.63" style="font-family:'Helvetica';font-size:99.99px;fill:#000000" transform="rotate(-90 300.72,930.63)" text-anchor="middle">18</text>
	<line x1="390.80" y1="571.74" x2="350.83" y2="571.74" style="stroke:#000000;stroke-width:5.76"/>
	<text x="300.72" y="571.74" style="font-family:'Helvetica';font-size:99.99px;fill:#000000" transform="rotate(-90 300.72,571.74)" text-anchor="middle">19</text>
	<text x="190.71" y="1452.25" style="font-family:'Helvetica';font-size:99.99px;fill:#000000" transform="rotate(-90 190.71,1452.25)" text-anchor="middle">Source : Résumé</text>
	<line x1="390.80" y1="2489.19" x2="3859.02" y2="2489.19" style="stroke:#000000;stroke-width:5.76"/>
	<line x1="543.63" y1="2489.19" x2="543.63" y2="2529.16" style="stroke:#000000;stroke-width:5.76"/>
	<text x="543.63" y="2619.14" style="font-family:'Helvetica';font-size:99.99px;fill:#000000" text-anchor="middle">14</text>
	<line x1="1085.66" y1="2489.19" x2="1085.66" y2="2529.16" style="stroke:#000000;stroke-width:5.76"/>
	<text x="1085.66" y="2619.14" style="font-family:'Helvetica';font-size:99.99px;fill:#000000" text-anchor="middle">15</text>
	<line x1="1627.68" y1="2489.19" x2="1627.68" y2="2529.16" style="stroke:#000000;stroke-width:5.76"/>
	<text x="1627.68" y="2619.14" style="font-family:'Helvetica';font-size:99.99px;fill:#000000" text-anchor="middle">16</text>
	<line x1="2169.71" y1="2489.19" x2="2169.71" y2="2529.16" style="stroke:#000000;stroke-width:5.76"/>
	<text x="2169.71" y="2619.14" style="font-family:'Helvetica';font-size:99.99px;fill:#000000" text-anchor="middle">17</text>
	<line x1="2711.73" y1="2489.19" x2="2711.73" y2="2529.16" style="stroke:#000000;stroke-width:5.76"/>
	<text x="2711.73" y="2619.14" style="font-family:'Helvetica';font-size:99.99px;fill:#000000" text-anchor="middle">18</text>
	<line x1="3253.76" y1="2489.19" x2="3253.76" y2="2529.16" style="stroke:#000000;stroke-width:5.76"/>
	<text x="3253.76" y="2619.14" style="font-family:'Helvetica';font-size:99.99px;fill:#000000" text-anchor="middle">19</text>
	<text x="2124.91" y="2729.16" style="font-family:'Helvetica';font-size:99.99px;fill:#000000" text-anchor="middle">Sources : Autres</text>
	<text x="2124.91" y="215.98" style="font-family:'Helvetica';font-size:139.96px;fill:#1E2D53" text-anchor="middle">Comparaison des sources</text>
	<text x="2124.91" y="356.06" style="font-family:'Helvetica';font-size:139.96px;fill:#1E2D53" text-anchor="middle"> par partenaire (Exports 1789)</text>
</svg>
