<?xml version="1.0" encoding="UTF-8" standalone="no"?>
<!-- This is a Stata 17.0 generated SVG file (http://www.stata.com) -->

<svg version="1.1" width="5.50in" height="4.00in" viewBox="0 0 3960 2880" xmlns="http://www.w3.org/2000/svg" xmlns:xlink="http://www.w3.org/1999/xlink">
	<desc>Stata Graph - graph3</desc>
	<rect x="0" y="0" width="3960" height="2880" style="fill:#EAF2F3;stroke:none"/>
	<rect x="0.00" y="0.00" width="3959.88" height="2880.00" style="fill:#EAF2F3"/>
	<rect x="2.88" y="2.88" width="3954.12" height="2874.24" style="fill:none;stroke:#EAF2F3;stroke-width:5.76"/>
	<rect x="390.80" y="415.32" width="3468.22" height="2073.87" style="fill:#FFFFFF"/>
	<rect x="393.68" y="418.20" width="3462.46" height="2068.11" style="fill:none;stroke:#FFFFFF;stroke-width:5.76"/>
	<line x1="390.80" y1="2425.82" x2="3859.02" y2="2425.82" style="stroke:#EAF2F3;stroke-width:8.64"/>
	<line x1="390.80" y1="1939.10" x2="3859.02" y2="1939.10" style="stroke:#EAF2F3;stroke-width:8.64"/>
	<line x1="390.80" y1="1452.25" x2="3859.02" y2="1452.25" style="stroke:#EAF2F3;stroke-width:8.64"/>
	<line x1="390.80" y1="965.53" x2="3859.02" y2="965.53" style="stroke:#EAF2F3;stroke-width:8.64"/>
	<line x1="390.80" y1="478.68" x2="3859.02" y2="478.68" style="stroke:#EAF2F3;stroke-width:8.64"/>
	<circle cx="2675.85" cy="1767.21" r="26.35" style="fill:#1A476F"/>
	<circle cx="2675.85" cy="1767.21" r="22.03" style="fill:none;stroke:#1A476F;stroke-width:8.64"/>
	<text x="2717.80" y="1795.22" style="font-family:'Helvetica';font-size:79.94px;fill:#1A476f">Articles manufacturés divers n.d.a</text>
	<circle cx="2594.79" cy="1952.71" r="26.35" style="fill:#1A476F"/>
	<circle cx="2594.79" cy="1952.71" r="22.03" style="fill:none;stroke:#1A476F;stroke-width:8.64"/>
	<text x="2636.74" y="1980.72" style="font-family:'Helvetica';font-size:79.94px;fill:#1A476f">Articles minéraux non métalliques manufacturés, n.d.a.</text>
	<circle cx="2437.88" cy="1358.45" r="26.35" style="fill:#1A476F"/>
	<circle cx="2437.88" cy="1358.45" r="22.03" style="fill:none;stroke:#1A476F;stroke-width:8.64"/>
	<text x="2479.83" y="1386.46" style="font-family:'Helvetica';font-size:79.94px;fill:#1A476f">Autres filés ou tissés</text>
	<circle cx="2884.12" cy="1326.77" r="26.35" style="fill:#1A476F"/>
	<circle cx="2884.12" cy="1326.77" r="22.03" style="fill:none;stroke:#1A476F;stroke-width:8.64"/>
	<text x="2926.07" y="1354.78" style="font-family:'Helvetica';font-size:79.94px;fill:#1A476f">Autres filés ou tissés mélangés de fibres végétales dont toiles</text>
	<circle cx="3430.47" cy="869.62" r="26.35" style="fill:#1A476F"/>
	<circle cx="3430.47" cy="869.62" r="22.03" style="fill:none;stroke:#1A476F;stroke-width:8.64"/>
	<text x="3472.43" y="897.63" style="font-family:'Helvetica';font-size:79.94px;fill:#1A476f">Autres produits alimentaires et animaux</text>
	<circle cx="2961.71" cy="1321.69" r="26.35" style="fill:#1A476F"/>
	<circle cx="2961.71" cy="1321.69" r="22.03" style="fill:none;stroke:#1A476F;stroke-width:8.64"/>
	<text x="3003.66" y="1349.70" style="font-family:'Helvetica';font-size:79.94px;fill:#1A476f">Boissons et tabac</text>
	<circle cx="2747.13" cy="1585.41" r="26.35" style="fill:#1A476F"/>
	<circle cx="2747.13" cy="1585.41" r="22.03" style="fill:none;stroke:#1A476F;stroke-width:8.64"/>
	<text x="2789.08" y="1613.42" style="font-family:'Helvetica';font-size:79.94px;fill:#1A476f">Combustibles</text>
	<circle cx="2826.82" cy="1509.18" r="26.35" style="fill:#1A476F"/>
	<circle cx="2826.82" cy="1509.18" r="22.03" style="fill:none;stroke:#1A476F;stroke-width:8.64"/>
	<text x="2868.77" y="1537.19" style="font-family:'Helvetica';font-size:79.94px;fill:#1A476f">Cuirs, peaux et produits dérivés hors sellerie</text>
	<circle cx="2567.19" cy="1440.50" r="26.35" style="fill:#1A476F"/>
	<circle cx="2567.19" cy="1440.50" r="22.03" style="fill:none;stroke:#1A476F;stroke-width:8.64"/>
	<text x="2609.14" y="1468.51" style="font-family:'Helvetica';font-size:79.94px;fill:#1A476f">Divers mélangés</text>
	<circle cx="3076.80" cy="1391.61" r="26.35" style="fill:#1A476F"/>
	<circle cx="3076.80" cy="1391.61" r="22.03" style="fill:none;stroke:#1A476F;stroke-width:8.64"/>
	<text x="3118.75" y="1419.62" style="font-family:'Helvetica';font-size:79.94px;fill:#1A476f">Filés ou tissés de coton</text>
	<circle cx="3010.22" cy="1706.94" r="26.35" style="fill:#1A476F"/>
	<circle cx="3010.22" cy="1706.94" r="22.03" style="fill:none;stroke:#1A476F;stroke-width:8.64"/>
	<text x="3052.17" y="1734.95" style="font-family:'Helvetica';font-size:79.94px;fill:#1A476f">Filés ou tissés de fibre végétale non mélangée (lin, chanvre, jute, etc.)</text>
	<circle cx="2931.64" cy="1962.98" r="26.35" style="fill:#1A476F"/>
	<circle cx="2931.64" cy="1962.98" r="22.03" style="fill:none;stroke:#1A476F;stroke-width:8.64"/>
	<text x="2973.59" y="1991.00" style="font-family:'Helvetica';font-size:79.94px;fill:#1A476f">Filés ou tissés de laine et de poil</text>
	<circle cx="2857.39" cy="1718.07" r="26.35" style="fill:#1A476F"/>
	<circle cx="2857.39" cy="1718.07" r="22.03" style="fill:none;stroke:#1A476F;stroke-width:8.64"/>
	<text x="2899.34" y="1746.09" style="font-family:'Helvetica';font-size:79.94px;fill:#1A476f">Filés ou tissés de soie et soie mélangée</text>
	<circle cx="3169.36" cy="1160.81" r="26.35" style="fill:#1A476F"/>
	<circle cx="3169.36" cy="1160.81" r="22.03" style="fill:none;stroke:#1A476F;stroke-width:8.64"/>
	<text x="3211.31" y="1188.82" style="font-family:'Helvetica';font-size:79.94px;fill:#1A476f">Huiles, graisses et cires d'origine animale et végétale</text>
	<circle cx="2502.60" cy="2208.76" r="26.35" style="fill:#1A476F"/>
	<circle cx="2502.60" cy="2208.76" r="22.03" style="fill:none;stroke:#1A476F;stroke-width:8.64"/>
	<text x="2544.55" y="2236.77" style="font-family:'Helvetica';font-size:79.94px;fill:#1A476f">Machines et moyens de transport y compris sellerie</text>
	<circle cx="3400.28" cy="854.52" r="26.35" style="fill:#1A476F"/>
	<circle cx="3400.28" cy="854.52" r="22.03" style="fill:none;stroke:#1A476F;stroke-width:8.64"/>
	<text x="3442.23" y="882.53" style="font-family:'Helvetica';font-size:79.94px;fill:#1A476f">Matières brutes non-comestibles non transformées n.d.a.</text>
	<circle cx="2593.43" cy="987.68" r="26.35" style="fill:#1A476F"/>
	<circle cx="2593.43" cy="987.68" r="22.03" style="fill:none;stroke:#1A476F;stroke-width:8.64"/>
	<text x="2635.38" y="1015.69" style="font-family:'Helvetica';font-size:79.94px;fill:#1A476f">Monnaies et métaux précieux</text>
	<circle cx="3098.82" cy="1227.89" r="26.35" style="fill:#1A476F"/>
	<circle cx="3098.82" cy="1227.89" r="22.03" style="fill:none;stroke:#1A476F;stroke-width:8.64"/>
	<text x="3140.78" y="1255.90" style="font-family:'Helvetica';font-size:79.94px;fill:#1A476f">Métaux, produits métalliques et outils</text>
	<circle cx="3601.00" cy="690.30" r="26.35" style="fill:#1A476F"/>
	<circle cx="3601.00" cy="690.30" r="22.03" style="fill:none;stroke:#1A476F;stroke-width:8.64"/>
	<text x="3642.95" y="718.31" style="font-family:'Helvetica';font-size:79.94px;fill:#1A476f">Produits agricoles alimentaires des régions de colonisation européenne</text>
	<circle cx="3175.55" cy="1134.08" r="26.35" style="fill:#1A476F"/>
	<circle cx="3175.55" cy="1134.08" r="22.03" style="fill:none;stroke:#1A476F;stroke-width:8.64"/>
	<text x="3217.50" y="1162.09" style="font-family:'Helvetica';font-size:79.94px;fill:#1A476f">Produits chimiques transformés n.d.a.</text>
	<circle cx="2788.46" cy="2247.99" r="26.35" style="fill:#1A476F"/>
	<circle cx="2788.46" cy="2247.99" r="22.03" style="fill:none;stroke:#1A476F;stroke-width:8.64"/>
	<text x="2830.41" y="2276.00" style="font-family:'Helvetica';font-size:79.94px;fill:#1A476f">Produits du bois, liège, jonc</text>
	<path d=" M3053.90 1289.27 L2616.32 1767.21 L2629.32 1753.10 L2446.54 1952.84 L2469.43 1927.84 L2990.54 1358.45 L3196.59 1133.21 L3019.50 1326.77 L3146.72 1187.79 L3437.90 869.62 L3309.32 1010.20 L3024.08 1321.82 L2445.30 1954.07 L2782.64 1585.53 L2756.53 1614.12 L2852.56 1509.18 L3012.69 1334.19 L2915.43 1440.50 L3038.93 1305.48 L2960.10 1391.74 L2785.49 1582.44 L2671.51 1707.06 L3141.27 1193.73 L2437.13 1963.11 L3179.63 1151.90 L2661.37 1718.07 L2752.08 1618.95 L3171.34 1160.81 L2482.80 1913.11 L2212.16 2208.88 L3164.78 1167.99 L3451.76 854.52 L2106.35 2324.35 L3329.86 987.68 L2849.34 1512.77 L3109.96 1227.89 L2577.71 1809.41 L3528.61 770.49 L3601.99 690.30 L3058.36 1284.32 L3195.84 1134.20 L2232.45 2186.61 L2176.27 2247.99" stroke-linejoin="round" style="fill:none;stroke:#90353B;stroke-width:8.64"/>
	<line x1="390.80" y1="2489.19" x2="390.80" y2="415.32" style="stroke:#000000;stroke-width:5.76"/>
	<line x1="390.80" y1="2425.82" x2="350.83" y2="2425.82" style="stroke:#000000;stroke-width:5.76"/>
	<text x="300.72" y="2425.82" style="font-family:'Helvetica';font-size:99.99px;fill:#000000" transform="rotate(-90 300.72,2425.82)" text-anchor="middle">12</text>
	<line x1="390.80" y1="1939.10" x2="350.83" y2="1939.10" style="stroke:#000000;stroke-width:5.76"/>
	<text x="300.72" y="1939.10" style="font-family:'Helvetica';font-size:99.99px;fill:#000000" transform="rotate(-90 300.72,1939.10)" text-anchor="middle">14</text>
	<line x1="390.80" y1="1452.25" x2="350.83" y2="1452.25" style="stroke:#000000;stroke-width:5.76"/>
	<text x="300.72" y="1452.25" style="font-family:'Helvetica';font-size:99.99px;fill:#000000" transform="rotate(-90 300.72,1452.25)" text-anchor="middle">16</text>
	<line x1="390.80" y1="965.53" x2="350.83" y2="965.53" style="stroke:#000000;stroke-width:5.76"/>
	<text x="300.72" y="965.53" style="font-family:'Helvetica';font-size:99.99px;fill:#000000" transform="rotate(-90 300.72,965.53)" text-anchor="middle">18</text>
	<line x1="390.80" y1="478.68" x2="350.83" y2="478.68" style="stroke:#000000;stroke-width:5.76"/>
	<text x="300.72" y="478.68" style="font-family:'Helvetica';font-size:99.99px;fill:#000000" transform="rotate(-90 300.72,478.68)" text-anchor="middle">20</text>
	<text x="190.71" y="1452.25" style="font-family:'Helvetica';font-size:99.99px;fill:#000000" transform="rotate(-90 190.71,1452.25)" text-anchor="middle">Sources : Résumés</text>
	<line x1="390.80" y1="2489.19" x2="3859.02" y2="2489.19" style="stroke:#000000;stroke-width:5.76"/>
	<line x1="454.16" y1="2489.19" x2="454.16" y2="2529.16" style="stroke:#000000;stroke-width:5.76"/>
	<text x="454.16" y="2619.14" style="font-family:'Helvetica';font-size:99.99px;fill:#000000" text-anchor="middle">5</text>
	<line x1="1568.04" y1="2489.19" x2="1568.04" y2="2529.16" style="stroke:#000000;stroke-width:5.76"/>
	<text x="1568.04" y="2619.14" style="font-family:'Helvetica';font-size:99.99px;fill:#000000" text-anchor="middle">10</text>
	<line x1="2681.91" y1="2489.19" x2="2681.91" y2="2529.16" style="stroke:#000000;stroke-width:5.76"/>
	<text x="2681.91" y="2619.14" style="font-family:'Helvetica';font-size:99.99px;fill:#000000" text-anchor="middle">15</text>
	<line x1="3795.66" y1="2489.19" x2="3795.66" y2="2529.16" style="stroke:#000000;stroke-width:5.76"/>
	<text x="3795.66" y="2619.14" style="font-family:'Helvetica';font-size:99.99px;fill:#000000" text-anchor="middle">20</text>
	<text x="2124.91" y="2729.16" style="font-family:'Helvetica';font-size:99.99px;fill:#000000" text-anchor="middle">Source : autre</text>
	<text x="2124.91" y="215.98" style="font-family:'Helvetica';font-size:139.96px;fill:#1E2D53" text-anchor="middle">Valeurs résumées VS Valeurs non résumées</text>
	<text x="2124.91" y="356.06" style="font-family:'Helvetica';font-size:139.96px;fill:#1E2D53" text-anchor="middle"> par produit (Imports 1789)</text>
</svg>
