<?xml version="1.0" encoding="UTF-8" standalone="no"?>
<!-- This is a Stata 17.0 generated SVG file (http://www.stata.com) -->

<svg version="1.1" width="5.50in" height="4.00in" viewBox="0 0 3960 2880" xmlns="http://www.w3.org/2000/svg" xmlns:xlink="http://www.w3.org/1999/xlink">
	<desc>Stata Graph - graph3</desc>
	<rect x="0" y="0" width="3960" height="2880" style="fill:#EAF2F3;stroke:none"/>
	<rect x="0.00" y="0.00" width="3959.88" height="2880.00" style="fill:#EAF2F3"/>
	<rect x="2.88" y="2.88" width="3954.12" height="2874.24" style="fill:none;stroke:#EAF2F3;stroke-width:5.76"/>
	<rect x="390.80" y="415.32" width="3468.22" height="2073.87" style="fill:#FFFFFF"/>
	<rect x="393.68" y="418.20" width="3462.46" height="2068.11" style="fill:none;stroke:#FFFFFF;stroke-width:5.76"/>
	<line x1="390.80" y1="2201.83" x2="3859.02" y2="2201.83" style="stroke:#EAF2F3;stroke-width:8.64"/>
	<line x1="390.80" y1="1340.25" x2="3859.02" y2="1340.25" style="stroke:#EAF2F3;stroke-width:8.64"/>
	<line x1="390.80" y1="478.68" x2="3859.02" y2="478.68" style="stroke:#EAF2F3;stroke-width:8.64"/>
	<circle cx="2636.49" cy="1600.76" r="26.35" style="fill:#1A476F"/>
	<circle cx="2636.49" cy="1600.76" r="22.03" style="fill:none;stroke:#1A476F;stroke-width:8.64"/>
	<circle cx="2375.63" cy="1580.71" r="26.35" style="fill:#1A476F"/>
	<circle cx="2375.63" cy="1580.71" r="22.03" style="fill:none;stroke:#1A476F;stroke-width:8.64"/>
	<circle cx="2784.87" cy="1275.65" r="26.35" style="fill:#1A476F"/>
	<circle cx="2784.87" cy="1275.65" r="22.03" style="fill:none;stroke:#1A476F;stroke-width:8.64"/>
	<circle cx="2423.03" cy="1569.57" r="26.35" style="fill:#1A476F"/>
	<circle cx="2423.03" cy="1569.57" r="22.03" style="fill:none;stroke:#1A476F;stroke-width:8.64"/>
	<circle cx="2415.97" cy="1566.85" r="26.35" style="fill:#1A476F"/>
	<circle cx="2415.97" cy="1566.85" r="22.03" style="fill:none;stroke:#1A476F;stroke-width:8.64"/>
	<circle cx="2647.51" cy="1374.16" r="26.35" style="fill:#1A476F"/>
	<circle cx="2647.51" cy="1374.16" r="22.03" style="fill:none;stroke:#1A476F;stroke-width:8.64"/>
	<circle cx="2238.14" cy="1715.72" r="26.35" style="fill:#1A476F"/>
	<circle cx="2238.14" cy="1715.72" r="22.03" style="fill:none;stroke:#1A476F;stroke-width:8.64"/>
	<circle cx="2461.14" cy="1397.43" r="26.35" style="fill:#1A476F"/>
	<circle cx="2461.14" cy="1397.43" r="22.03" style="fill:none;stroke:#1A476F;stroke-width:8.64"/>
	<circle cx="1951.41" cy="1953.70" r="26.35" style="fill:#1A476F"/>
	<circle cx="1951.41" cy="1953.70" r="22.03" style="fill:none;stroke:#1A476F;stroke-width:8.64"/>
	<circle cx="2515.22" cy="1491.73" r="26.35" style="fill:#1A476F"/>
	<circle cx="2515.22" cy="1491.73" r="22.03" style="fill:none;stroke:#1A476F;stroke-width:8.64"/>
	<circle cx="1682.88" cy="2227.32" r="26.35" style="fill:#1A476F"/>
	<circle cx="1682.88" cy="2227.32" r="22.03" style="fill:none;stroke:#1A476F;stroke-width:8.64"/>
	<circle cx="1746.73" cy="1589.00" r="26.35" style="fill:#1A476F"/>
	<circle cx="1746.73" cy="1589.00" r="22.03" style="fill:none;stroke:#1A476F;stroke-width:8.64"/>
	<circle cx="1531.90" cy="1706.19" r="26.35" style="fill:#1A476F"/>
	<circle cx="1531.90" cy="1706.19" r="22.03" style="fill:none;stroke:#1A476F;stroke-width:8.64"/>
	<circle cx="2437.88" cy="1492.60" r="26.35" style="fill:#1A476F"/>
	<circle cx="2437.88" cy="1492.60" r="22.03" style="fill:none;stroke:#1A476F;stroke-width:8.64"/>
	<circle cx="1617.16" cy="1089.03" r="26.35" style="fill:#1A476F"/>
	<circle cx="1617.16" cy="1089.03" r="22.03" style="fill:none;stroke:#1A476F;stroke-width:8.64"/>
	<circle cx="1871.84" cy="934.59" r="26.35" style="fill:#1A476F"/>
	<circle cx="1871.84" cy="934.59" r="22.03" style="fill:none;stroke:#1A476F;stroke-width:8.64"/>
	<circle cx="2154.24" cy="1056.49" r="26.35" style="fill:#1A476F"/>
	<circle cx="2154.24" cy="1056.49" r="22.03" style="fill:none;stroke:#1A476F;stroke-width:8.64"/>
	<circle cx="2135.43" cy="1253.26" r="26.35" style="fill:#1A476F"/>
	<circle cx="2135.43" cy="1253.26" r="22.03" style="fill:none;stroke:#1A476F;stroke-width:8.64"/>
	<circle cx="2051.40" cy="817.77" r="26.35" style="fill:#1A476F"/>
	<circle cx="2051.40" cy="817.77" r="22.03" style="fill:none;stroke:#1A476F;stroke-width:8.64"/>
	<circle cx="1941.64" cy="1269.34" r="26.35" style="fill:#1A476F"/>
	<circle cx="1941.64" cy="1269.34" r="22.03" style="fill:none;stroke:#1A476F;stroke-width:8.64"/>
	<circle cx="1394.29" cy="2218.41" r="26.35" style="fill:#1A476F"/>
	<circle cx="1394.29" cy="2218.41" r="22.03" style="fill:none;stroke:#1A476F;stroke-width:8.64"/>
	<circle cx="2744.28" cy="1475.89" r="26.35" style="fill:#1A476F"/>
	<circle cx="2744.28" cy="1475.89" r="22.03" style="fill:none;stroke:#1A476F;stroke-width:8.64"/>
	<circle cx="2989.06" cy="1087.80" r="26.35" style="fill:#1A476F"/>
	<circle cx="2989.06" cy="1087.80" r="22.03" style="fill:none;stroke:#1A476F;stroke-width:8.64"/>
	<circle cx="2589.59" cy="1434.31" r="26.35" style="fill:#1A476F"/>
	<circle cx="2589.59" cy="1434.31" r="22.03" style="fill:none;stroke:#1A476F;stroke-width:8.64"/>
	<circle cx="2743.04" cy="1307.46" r="26.35" style="fill:#1A476F"/>
	<circle cx="2743.04" cy="1307.46" r="22.03" style="fill:none;stroke:#1A476F;stroke-width:8.64"/>
	<circle cx="2730.30" cy="1313.03" r="26.35" style="fill:#1A476F"/>
	<circle cx="2730.30" cy="1313.03" r="22.03" style="fill:none;stroke:#1A476F;stroke-width:8.64"/>
	<circle cx="2625.73" cy="1383.07" r="26.35" style="fill:#1A476F"/>
	<circle cx="2625.73" cy="1383.07" r="22.03" style="fill:none;stroke:#1A476F;stroke-width:8.64"/>
	<circle cx="2211.78" cy="1760.65" r="26.35" style="fill:#1A476F"/>
	<circle cx="2211.78" cy="1760.65" r="22.03" style="fill:none;stroke:#1A476F;stroke-width:8.64"/>
	<circle cx="3035.71" cy="1083.47" r="26.35" style="fill:#1A476F"/>
	<circle cx="3035.71" cy="1083.47" r="22.03" style="fill:none;stroke:#1A476F;stroke-width:8.64"/>
	<circle cx="1888.18" cy="1981.79" r="26.35" style="fill:#1A476F"/>
	<circle cx="1888.18" cy="1981.79" r="22.03" style="fill:none;stroke:#1A476F;stroke-width:8.64"/>
	<circle cx="2604.44" cy="1423.54" r="26.35" style="fill:#1A476F"/>
	<circle cx="2604.44" cy="1423.54" r="22.03" style="fill:none;stroke:#1A476F;stroke-width:8.64"/>
	<circle cx="2301.26" cy="1677.85" r="26.35" style="fill:#1A476F"/>
	<circle cx="2301.26" cy="1677.85" r="22.03" style="fill:none;stroke:#1A476F;stroke-width:8.64"/>
	<circle cx="2156.96" cy="1609.05" r="26.35" style="fill:#1A476F"/>
	<circle cx="2156.96" cy="1609.05" r="22.03" style="fill:none;stroke:#1A476F;stroke-width:8.64"/>
	<circle cx="2407.93" cy="1126.53" r="26.35" style="fill:#1A476F"/>
	<circle cx="2407.93" cy="1126.53" r="22.03" style="fill:none;stroke:#1A476F;stroke-width:8.64"/>
	<circle cx="2438.00" cy="1294.34" r="26.35" style="fill:#1A476F"/>
	<circle cx="2438.00" cy="1294.34" r="22.03" style="fill:none;stroke:#1A476F;stroke-width:8.64"/>
	<circle cx="2310.54" cy="1567.84" r="26.35" style="fill:#1A476F"/>
	<circle cx="2310.54" cy="1567.84" r="22.03" style="fill:none;stroke:#1A476F;stroke-width:8.64"/>
	<circle cx="2281.70" cy="1629.84" r="26.35" style="fill:#1A476F"/>
	<circle cx="2281.70" cy="1629.84" r="22.03" style="fill:none;stroke:#1A476F;stroke-width:8.64"/>
	<circle cx="2488.12" cy="1435.79" r="26.35" style="fill:#1A476F"/>
	<circle cx="2488.12" cy="1435.79" r="22.03" style="fill:none;stroke:#1A476F;stroke-width:8.64"/>
	<circle cx="2299.03" cy="1631.32" r="26.35" style="fill:#1A476F"/>
	<circle cx="2299.03" cy="1631.32" r="22.03" style="fill:none;stroke:#1A476F;stroke-width:8.64"/>
	<circle cx="2440.84" cy="1514.62" r="26.35" style="fill:#1A476F"/>
	<circle cx="2440.84" cy="1514.62" r="22.03" style="fill:none;stroke:#1A476F;stroke-width:8.64"/>
	<circle cx="1860.70" cy="2137.48" r="26.35" style="fill:#1A476F"/>
	<circle cx="1860.70" cy="2137.48" r="22.03" style="fill:none;stroke:#1A476F;stroke-width:8.64"/>
	<circle cx="2402.73" cy="1304.49" r="26.35" style="fill:#1A476F"/>
	<circle cx="2402.73" cy="1304.49" r="22.03" style="fill:none;stroke:#1A476F;stroke-width:8.64"/>
	<circle cx="2015.64" cy="1875.98" r="26.35" style="fill:#1A476F"/>
	<circle cx="2015.64" cy="1875.98" r="22.03" style="fill:none;stroke:#1A476F;stroke-width:8.64"/>
	<circle cx="2272.67" cy="1696.79" r="26.35" style="fill:#1A476F"/>
	<circle cx="2272.67" cy="1696.79" r="22.03" style="fill:none;stroke:#1A476F;stroke-width:8.64"/>
	<circle cx="2390.60" cy="2086.61" r="26.35" style="fill:#1A476F"/>
	<circle cx="2390.60" cy="2086.61" r="22.03" style="fill:none;stroke:#1A476F;stroke-width:8.64"/>
	<circle cx="1802.91" cy="2037.98" r="26.35" style="fill:#1A476F"/>
	<circle cx="1802.91" cy="2037.98" r="22.03" style="fill:none;stroke:#1A476F;stroke-width:8.64"/>
	<circle cx="2243.59" cy="1742.33" r="26.35" style="fill:#1A476F"/>
	<circle cx="2243.59" cy="1742.33" r="22.03" style="fill:none;stroke:#1A476F;stroke-width:8.64"/>
	<circle cx="2049.55" cy="1880.69" r="26.35" style="fill:#1A476F"/>
	<circle cx="2049.55" cy="1880.69" r="22.03" style="fill:none;stroke:#1A476F;stroke-width:8.64"/>
	<circle cx="1599.35" cy="2194.40" r="26.35" style="fill:#1A476F"/>
	<circle cx="1599.35" cy="2194.40" r="22.03" style="fill:none;stroke:#1A476F;stroke-width:8.64"/>
	<circle cx="2560.14" cy="1468.83" r="26.35" style="fill:#1A476F"/>
	<circle cx="2560.14" cy="1468.83" r="22.03" style="fill:none;stroke:#1A476F;stroke-width:8.64"/>
	<circle cx="1706.51" cy="2166.81" r="26.35" style="fill:#1A476F"/>
	<circle cx="1706.51" cy="2166.81" r="22.03" style="fill:none;stroke:#1A476F;stroke-width:8.64"/>
	<circle cx="2164.26" cy="1786.76" r="26.35" style="fill:#1A476F"/>
	<circle cx="2164.26" cy="1786.76" r="22.03" style="fill:none;stroke:#1A476F;stroke-width:8.64"/>
	<circle cx="2292.72" cy="1690.23" r="26.35" style="fill:#1A476F"/>
	<circle cx="2292.72" cy="1690.23" r="22.03" style="fill:none;stroke:#1A476F;stroke-width:8.64"/>
	<circle cx="1370.16" cy="2425.95" r="26.35" style="fill:#1A476F"/>
	<circle cx="1370.16" cy="2425.95" r="22.03" style="fill:none;stroke:#1A476F;stroke-width:8.64"/>
	<circle cx="2502.10" cy="1632.68" r="26.35" style="fill:#1A476F"/>
	<circle cx="2502.10" cy="1632.68" r="22.03" style="fill:none;stroke:#1A476F;stroke-width:8.64"/>
	<circle cx="2332.81" cy="1560.04" r="26.35" style="fill:#1A476F"/>
	<circle cx="2332.81" cy="1560.04" r="22.03" style="fill:none;stroke:#1A476F;stroke-width:8.64"/>
	<circle cx="2344.20" cy="1694.31" r="26.35" style="fill:#1A476F"/>
	<circle cx="2344.20" cy="1694.31" r="22.03" style="fill:none;stroke:#1A476F;stroke-width:8.64"/>
	<circle cx="2233.93" cy="1677.11" r="26.35" style="fill:#1A476F"/>
	<circle cx="2233.93" cy="1677.11" r="22.03" style="fill:none;stroke:#1A476F;stroke-width:8.64"/>
	<circle cx="2459.53" cy="1527.37" r="26.35" style="fill:#1A476F"/>
	<circle cx="2459.53" cy="1527.37" r="22.03" style="fill:none;stroke:#1A476F;stroke-width:8.64"/>
	<circle cx="2498.14" cy="1467.72" r="26.35" style="fill:#1A476F"/>
	<circle cx="2498.14" cy="1467.72" r="22.03" style="fill:none;stroke:#1A476F;stroke-width:8.64"/>
	<circle cx="2595.28" cy="1337.78" r="26.35" style="fill:#1A476F"/>
	<circle cx="2595.28" cy="1337.78" r="22.03" style="fill:none;stroke:#1A476F;stroke-width:8.64"/>
	<circle cx="2522.52" cy="1286.55" r="26.35" style="fill:#1A476F"/>
	<circle cx="2522.52" cy="1286.55" r="22.03" style="fill:none;stroke:#1A476F;stroke-width:8.64"/>
	<circle cx="2431.81" cy="1408.07" r="26.35" style="fill:#1A476F"/>
	<circle cx="2431.81" cy="1408.07" r="22.03" style="fill:none;stroke:#1A476F;stroke-width:8.64"/>
	<circle cx="1813.18" cy="2166.81" r="26.35" style="fill:#1A476F"/>
	<circle cx="1813.18" cy="2166.81" r="22.03" style="fill:none;stroke:#1A476F;stroke-width:8.64"/>
	<circle cx="2029.25" cy="1973.26" r="26.35" style="fill:#1A476F"/>
	<circle cx="2029.25" cy="1973.26" r="22.03" style="fill:none;stroke:#1A476F;stroke-width:8.64"/>
	<circle cx="2090.39" cy="1818.32" r="26.35" style="fill:#1A476F"/>
	<circle cx="2090.39" cy="1818.32" r="22.03" style="fill:none;stroke:#1A476F;stroke-width:8.64"/>
	<circle cx="2608.40" cy="1580.34" r="26.35" style="fill:#1A476F"/>
	<circle cx="2608.40" cy="1580.34" r="22.03" style="fill:none;stroke:#1A476F;stroke-width:8.64"/>
	<circle cx="1881.49" cy="1832.42" r="26.35" style="fill:#1A476F"/>
	<circle cx="1881.49" cy="1832.42" r="22.03" style="fill:none;stroke:#1A476F;stroke-width:8.64"/>
	<circle cx="2158.08" cy="2202.08" r="26.35" style="fill:#1A476F"/>
	<circle cx="2158.08" cy="2202.08" r="22.03" style="fill:none;stroke:#1A476F;stroke-width:8.64"/>
	<circle cx="2456.31" cy="1554.47" r="26.35" style="fill:#1A476F"/>
	<circle cx="2456.31" cy="1554.47" r="22.03" style="fill:none;stroke:#1A476F;stroke-width:8.64"/>
	<circle cx="1872.96" cy="2035.01" r="26.35" style="fill:#1A476F"/>
	<circle cx="1872.96" cy="2035.01" r="22.03" style="fill:none;stroke:#1A476F;stroke-width:8.64"/>
	<circle cx="1633.25" cy="2112.48" r="26.35" style="fill:#1A476F"/>
	<circle cx="1633.25" cy="2112.48" r="22.03" style="fill:none;stroke:#1A476F;stroke-width:8.64"/>
	<circle cx="2090.14" cy="1465.25" r="26.35" style="fill:#1A476F"/>
	<circle cx="2090.14" cy="1465.25" r="22.03" style="fill:none;stroke:#1A476F;stroke-width:8.64"/>
	<circle cx="2224.03" cy="1740.72" r="26.35" style="fill:#1A476F"/>
	<circle cx="2224.03" cy="1740.72" r="22.03" style="fill:none;stroke:#1A476F;stroke-width:8.64"/>
	<circle cx="1710.22" cy="2321.50" r="26.35" style="fill:#1A476F"/>
	<circle cx="1710.22" cy="2321.50" r="22.03" style="fill:none;stroke:#1A476F;stroke-width:8.64"/>
	<circle cx="1933.84" cy="2194.40" r="26.35" style="fill:#1A476F"/>
	<circle cx="1933.84" cy="2194.40" r="22.03" style="fill:none;stroke:#1A476F;stroke-width:8.64"/>
	<circle cx="1806.38" cy="2292.66" r="26.35" style="fill:#1A476F"/>
	<circle cx="1806.38" cy="2292.66" r="22.03" style="fill:none;stroke:#1A476F;stroke-width:8.64"/>
	<circle cx="1985.32" cy="1953.70" r="26.35" style="fill:#1A476F"/>
	<circle cx="1985.32" cy="1953.70" r="22.03" style="fill:none;stroke:#1A476F;stroke-width:8.64"/>
	<circle cx="1811.33" cy="2246.50" r="26.35" style="fill:#1A476F"/>
	<circle cx="1811.33" cy="2246.50" r="22.03" style="fill:none;stroke:#1A476F;stroke-width:8.64"/>
	<circle cx="1923.82" cy="1967.19" r="26.35" style="fill:#1A476F"/>
	<circle cx="1923.82" cy="1967.19" r="22.03" style="fill:none;stroke:#1A476F;stroke-width:8.64"/>
	<circle cx="2205.84" cy="1750.75" r="26.35" style="fill:#1A476F"/>
	<circle cx="2205.84" cy="1750.75" r="22.03" style="fill:none;stroke:#1A476F;stroke-width:8.64"/>
	<circle cx="1978.52" cy="1993.06" r="26.35" style="fill:#1A476F"/>
	<circle cx="1978.52" cy="1993.06" r="22.03" style="fill:none;stroke:#1A476F;stroke-width:8.64"/>
	<circle cx="2146.07" cy="1805.32" r="26.35" style="fill:#1A476F"/>
	<circle cx="2146.07" cy="1805.32" r="22.03" style="fill:none;stroke:#1A476F;stroke-width:8.64"/>
	<circle cx="2023.19" cy="1918.56" r="26.35" style="fill:#1A476F"/>
	<circle cx="2023.19" cy="1918.56" r="22.03" style="fill:none;stroke:#1A476F;stroke-width:8.64"/>
	<circle cx="2129.24" cy="1839.85" r="26.35" style="fill:#1A476F"/>
	<circle cx="2129.24" cy="1839.85" r="22.03" style="fill:none;stroke:#1A476F;stroke-width:8.64"/>
	<circle cx="2288.51" cy="1684.29" r="26.35" style="fill:#1A476F"/>
	<circle cx="2288.51" cy="1684.29" r="22.03" style="fill:none;stroke:#1A476F;stroke-width:8.64"/>
	<circle cx="2018.98" cy="1906.92" r="26.35" style="fill:#1A476F"/>
	<circle cx="2018.98" cy="1906.92" r="22.03" style="fill:none;stroke:#1A476F;stroke-width:8.64"/>
	<circle cx="1990.52" cy="1944.67" r="26.35" style="fill:#1A476F"/>
	<circle cx="1990.52" cy="1944.67" r="22.03" style="fill:none;stroke:#1A476F;stroke-width:8.64"/>
	<circle cx="1605.66" cy="2227.32" r="26.35" style="fill:#1A476F"/>
	<circle cx="1605.66" cy="2227.32" r="22.03" style="fill:none;stroke:#1A476F;stroke-width:8.64"/>
	<circle cx="2317.47" cy="2399.34" r="26.35" style="fill:#1A476F"/>
	<circle cx="2317.47" cy="2399.34" r="22.03" style="fill:none;stroke:#1A476F;stroke-width:8.64"/>
	<circle cx="2377.49" cy="1489.87" r="26.35" style="fill:#1A476F"/>
	<circle cx="2377.49" cy="1489.87" r="22.03" style="fill:none;stroke:#1A476F;stroke-width:8.64"/>
	<circle cx="2827.93" cy="1692.21" r="26.35" style="fill:#1A476F"/>
	<circle cx="2827.93" cy="1692.21" r="22.03" style="fill:none;stroke:#1A476F;stroke-width:8.64"/>
	<circle cx="2575.61" cy="1714.36" r="26.35" style="fill:#1A476F"/>
	<circle cx="2575.61" cy="1714.36" r="22.03" style="fill:none;stroke:#1A476F;stroke-width:8.64"/>
	<circle cx="2376.37" cy="2376.32" r="26.35" style="fill:#1A476F"/>
	<circle cx="2376.37" cy="2376.32" r="22.03" style="fill:none;stroke:#1A476F;stroke-width:8.64"/>
	<circle cx="2543.31" cy="1550.02" r="26.35" style="fill:#1A476F"/>
	<circle cx="2543.31" cy="1550.02" r="22.03" style="fill:none;stroke:#1A476F;stroke-width:8.64"/>
	<circle cx="1904.02" cy="2306.52" r="26.35" style="fill:#1A476F"/>
	<circle cx="1904.02" cy="2306.52" r="22.03" style="fill:none;stroke:#1A476F;stroke-width:8.64"/>
	<circle cx="2011.43" cy="2078.69" r="26.35" style="fill:#1A476F"/>
	<circle cx="2011.43" cy="2078.69" r="22.03" style="fill:none;stroke:#1A476F;stroke-width:8.64"/>
	<circle cx="1950.80" cy="2306.52" r="26.35" style="fill:#1A476F"/>
	<circle cx="1950.80" cy="2306.52" r="22.03" style="fill:none;stroke:#1A476F;stroke-width:8.64"/>
	<circle cx="2080.11" cy="2005.06" r="26.35" style="fill:#1A476F"/>
	<circle cx="2080.11" cy="2005.06" r="22.03" style="fill:none;stroke:#1A476F;stroke-width:8.64"/>
	<circle cx="2505.44" cy="1572.79" r="26.35" style="fill:#1A476F"/>
	<circle cx="2505.44" cy="1572.79" r="22.03" style="fill:none;stroke:#1A476F;stroke-width:8.64"/>
	<circle cx="1927.28" cy="1858.04" r="26.35" style="fill:#1A476F"/>
	<circle cx="1927.28" cy="1858.04" r="22.03" style="fill:none;stroke:#1A476F;stroke-width:8.64"/>
	<circle cx="2843.28" cy="1233.95" r="26.35" style="fill:#1A476F"/>
	<circle cx="2843.28" cy="1233.95" r="22.03" style="fill:none;stroke:#1A476F;stroke-width:8.64"/>
	<circle cx="2468.32" cy="1529.85" r="26.35" style="fill:#1A476F"/>
	<circle cx="2468.32" cy="1529.85" r="22.03" style="fill:none;stroke:#1A476F;stroke-width:8.64"/>
	<circle cx="1935.20" cy="1939.47" r="26.35" style="fill:#1A476F"/>
	<circle cx="1935.20" cy="1939.47" r="22.03" style="fill:none;stroke:#1A476F;stroke-width:8.64"/>
	<circle cx="2831.89" cy="1223.31" r="26.35" style="fill:#1A476F"/>
	<circle cx="2831.89" cy="1223.31" r="22.03" style="fill:none;stroke:#1A476F;stroke-width:8.64"/>
	<circle cx="2896.37" cy="1197.44" r="26.35" style="fill:#1A476F"/>
	<circle cx="2896.37" cy="1197.44" r="22.03" style="fill:none;stroke:#1A476F;stroke-width:8.64"/>
	<circle cx="2043.98" cy="1895.91" r="26.35" style="fill:#1A476F"/>
	<circle cx="2043.98" cy="1895.91" r="22.03" style="fill:none;stroke:#1A476F;stroke-width:8.64"/>
	<circle cx="2250.52" cy="1714.36" r="26.35" style="fill:#1A476F"/>
	<circle cx="2250.52" cy="1714.36" r="22.03" style="fill:none;stroke:#1A476F;stroke-width:8.64"/>
	<circle cx="2477.23" cy="1514.87" r="26.35" style="fill:#1A476F"/>
	<circle cx="2477.23" cy="1514.87" r="22.03" style="fill:none;stroke:#1A476F;stroke-width:8.64"/>
	<circle cx="1611.97" cy="2050.48" r="26.35" style="fill:#1A476F"/>
	<circle cx="1611.97" cy="2050.48" r="22.03" style="fill:none;stroke:#1A476F;stroke-width:8.64"/>
	<circle cx="2852.31" cy="1075.42" r="26.35" style="fill:#1A476F"/>
	<circle cx="2852.31" cy="1075.42" r="22.03" style="fill:none;stroke:#1A476F;stroke-width:8.64"/>
	<circle cx="2534.89" cy="1719.44" r="26.35" style="fill:#1A476F"/>
	<circle cx="2534.89" cy="1719.44" r="22.03" style="fill:none;stroke:#1A476F;stroke-width:8.64"/>
	<circle cx="2829.17" cy="1278.87" r="26.35" style="fill:#1A476F"/>
	<circle cx="2829.17" cy="1278.87" r="22.03" style="fill:none;stroke:#1A476F;stroke-width:8.64"/>
	<circle cx="2504.08" cy="1509.43" r="26.35" style="fill:#1A476F"/>
	<circle cx="2504.08" cy="1509.43" r="22.03" style="fill:none;stroke:#1A476F;stroke-width:8.64"/>
	<circle cx="2162.90" cy="1746.17" r="26.35" style="fill:#1A476F"/>
	<circle cx="2162.90" cy="1746.17" r="22.03" style="fill:none;stroke:#1A476F;stroke-width:8.64"/>
	<circle cx="2855.41" cy="1272.68" r="26.35" style="fill:#1A476F"/>
	<circle cx="2855.41" cy="1272.68" r="22.03" style="fill:none;stroke:#1A476F;stroke-width:8.64"/>
	<circle cx="2333.55" cy="1688.62" r="26.35" style="fill:#1A476F"/>
	<circle cx="2333.55" cy="1688.62" r="22.03" style="fill:none;stroke:#1A476F;stroke-width:8.64"/>
	<circle cx="2030.61" cy="1790.97" r="26.35" style="fill:#1A476F"/>
	<circle cx="2030.61" cy="1790.97" r="22.03" style="fill:none;stroke:#1A476F;stroke-width:8.64"/>
	<circle cx="2210.92" cy="1750.13" r="26.35" style="fill:#1A476F"/>
	<circle cx="2210.92" cy="1750.13" r="22.03" style="fill:none;stroke:#1A476F;stroke-width:8.64"/>
	<circle cx="2457.55" cy="1545.07" r="26.35" style="fill:#1A476F"/>
	<circle cx="2457.55" cy="1545.07" r="22.03" style="fill:none;stroke:#1A476F;stroke-width:8.64"/>
	<circle cx="1891.52" cy="2015.33" r="26.35" style="fill:#1A476F"/>
	<circle cx="1891.52" cy="2015.33" r="22.03" style="fill:none;stroke:#1A476F;stroke-width:8.64"/>
	<circle cx="2197.68" cy="1766.83" r="26.35" style="fill:#1A476F"/>
	<circle cx="2197.68" cy="1766.83" r="22.03" style="fill:none;stroke:#1A476F;stroke-width:8.64"/>
	<circle cx="1981.73" cy="1793.19" r="26.35" style="fill:#1A476F"/>
	<circle cx="1981.73" cy="1793.19" r="22.03" style="fill:none;stroke:#1A476F;stroke-width:8.64"/>
	<circle cx="2752.82" cy="1476.38" r="26.35" style="fill:#1A476F"/>
	<circle cx="2752.82" cy="1476.38" r="22.03" style="fill:none;stroke:#1A476F;stroke-width:8.64"/>
	<circle cx="2238.64" cy="1633.55" r="26.35" style="fill:#1A476F"/>
	<circle cx="2238.64" cy="1633.55" r="22.03" style="fill:none;stroke:#1A476F;stroke-width:8.64"/>
	<circle cx="2060.93" cy="2067.56" r="26.35" style="fill:#1A476F"/>
	<circle cx="2060.93" cy="2067.56" r="22.03" style="fill:none;stroke:#1A476F;stroke-width:8.64"/>
	<circle cx="2476.61" cy="1657.44" r="26.35" style="fill:#1A476F"/>
	<circle cx="2476.61" cy="1657.44" r="22.03" style="fill:none;stroke:#1A476F;stroke-width:8.64"/>
	<circle cx="1833.23" cy="2218.41" r="26.35" style="fill:#1A476F"/>
	<circle cx="1833.23" cy="2218.41" r="22.03" style="fill:none;stroke:#1A476F;stroke-width:8.64"/>
	<circle cx="1966.76" cy="2154.43" r="26.35" style="fill:#1A476F"/>
	<circle cx="1966.76" cy="2154.43" r="22.03" style="fill:none;stroke:#1A476F;stroke-width:8.64"/>
	<circle cx="2261.78" cy="1965.09" r="26.35" style="fill:#1A476F"/>
	<circle cx="2261.78" cy="1965.09" r="22.03" style="fill:none;stroke:#1A476F;stroke-width:8.64"/>
	<circle cx="1650.08" cy="1914.10" r="26.35" style="fill:#1A476F"/>
	<circle cx="1650.08" cy="1914.10" r="22.03" style="fill:none;stroke:#1A476F;stroke-width:8.64"/>
	<circle cx="2378.47" cy="1501.51" r="26.35" style="fill:#1A476F"/>
	<circle cx="2378.47" cy="1501.51" r="22.03" style="fill:none;stroke:#1A476F;stroke-width:8.64"/>
	<circle cx="1901.91" cy="1359.93" r="26.35" style="fill:#1A476F"/>
	<circle cx="1901.91" cy="1359.93" r="22.03" style="fill:none;stroke:#1A476F;stroke-width:8.64"/>
	<circle cx="2604.44" cy="1184.70" r="26.35" style="fill:#1A476F"/>
	<circle cx="2604.44" cy="1184.70" r="22.03" style="fill:none;stroke:#1A476F;stroke-width:8.64"/>
	<circle cx="2035.07" cy="1434.93" r="26.35" style="fill:#1A476F"/>
	<circle cx="2035.07" cy="1434.93" r="22.03" style="fill:none;stroke:#1A476F;stroke-width:8.64"/>
	<circle cx="1658.00" cy="1681.57" r="26.35" style="fill:#1A476F"/>
	<circle cx="1658.00" cy="1681.57" r="22.03" style="fill:none;stroke:#1A476F;stroke-width:8.64"/>
	<circle cx="2331.45" cy="1472.79" r="26.35" style="fill:#1A476F"/>
	<circle cx="2331.45" cy="1472.79" r="22.03" style="fill:none;stroke:#1A476F;stroke-width:8.64"/>
	<circle cx="1587.34" cy="2010.13" r="26.35" style="fill:#1A476F"/>
	<circle cx="1587.34" cy="2010.13" r="22.03" style="fill:none;stroke:#1A476F;stroke-width:8.64"/>
	<circle cx="2128.38" cy="1735.40" r="26.35" style="fill:#1A476F"/>
	<circle cx="2128.38" cy="1735.40" r="22.03" style="fill:none;stroke:#1A476F;stroke-width:8.64"/>
	<circle cx="1703.79" cy="1814.11" r="26.35" style="fill:#1A476F"/>
	<circle cx="1703.79" cy="1814.11" r="22.03" style="fill:none;stroke:#1A476F;stroke-width:8.64"/>
	<circle cx="1949.31" cy="1756.56" r="26.35" style="fill:#1A476F"/>
	<circle cx="1949.31" cy="1756.56" r="22.03" style="fill:none;stroke:#1A476F;stroke-width:8.64"/>
	<circle cx="1379.07" cy="2187.10" r="26.35" style="fill:#1A476F"/>
	<circle cx="1379.07" cy="2187.10" r="22.03" style="fill:none;stroke:#1A476F;stroke-width:8.64"/>
	<circle cx="2405.70" cy="1555.59" r="26.35" style="fill:#1A476F"/>
	<circle cx="2405.70" cy="1555.59" r="22.03" style="fill:none;stroke:#1A476F;stroke-width:8.64"/>
	<circle cx="2067.00" cy="1842.82" r="26.35" style="fill:#1A476F"/>
	<circle cx="2067.00" cy="1842.82" r="22.03" style="fill:none;stroke:#1A476F;stroke-width:8.64"/>
	<circle cx="1845.48" cy="1885.64" r="26.35" style="fill:#1A476F"/>
	<circle cx="1845.48" cy="1885.64" r="22.03" style="fill:none;stroke:#1A476F;stroke-width:8.64"/>
	<circle cx="1273.02" cy="2166.81" r="26.35" style="fill:#1A476F"/>
	<circle cx="1273.02" cy="2166.81" r="22.03" style="fill:none;stroke:#1A476F;stroke-width:8.64"/>
	<circle cx="1818.51" cy="1597.91" r="26.35" style="fill:#1A476F"/>
	<circle cx="1818.51" cy="1597.91" r="22.03" style="fill:none;stroke:#1A476F;stroke-width:8.64"/>
	<circle cx="1954.26" cy="1975.36" r="26.35" style="fill:#1A476F"/>
	<circle cx="1954.26" cy="1975.36" r="22.03" style="fill:none;stroke:#1A476F;stroke-width:8.64"/>
	<circle cx="1678.67" cy="1898.63" r="26.35" style="fill:#1A476F"/>
	<circle cx="1678.67" cy="1898.63" r="22.03" style="fill:none;stroke:#1A476F;stroke-width:8.64"/>
	<circle cx="2144.84" cy="1801.36" r="26.35" style="fill:#1A476F"/>
	<circle cx="2144.84" cy="1801.36" r="22.03" style="fill:none;stroke:#1A476F;stroke-width:8.64"/>
	<circle cx="2324.15" cy="1648.40" r="26.35" style="fill:#1A476F"/>
	<circle cx="2324.15" cy="1648.40" r="22.03" style="fill:none;stroke:#1A476F;stroke-width:8.64"/>
	<circle cx="1862.31" cy="1941.20" r="26.35" style="fill:#1A476F"/>
	<circle cx="1862.31" cy="1941.20" r="22.03" style="fill:none;stroke:#1A476F;stroke-width:8.64"/>
	<circle cx="1416.07" cy="1988.48" r="26.35" style="fill:#1A476F"/>
	<circle cx="1416.07" cy="1988.48" r="22.03" style="fill:none;stroke:#1A476F;stroke-width:8.64"/>
	<circle cx="2438.86" cy="1587.89" r="26.35" style="fill:#1A476F"/>
	<circle cx="2438.86" cy="1587.89" r="22.03" style="fill:none;stroke:#1A476F;stroke-width:8.64"/>
	<circle cx="2405.20" cy="1595.06" r="26.35" style="fill:#1A476F"/>
	<circle cx="2405.20" cy="1595.06" r="22.03" style="fill:none;stroke:#1A476F;stroke-width:8.64"/>
	<circle cx="1766.65" cy="2041.07" r="26.35" style="fill:#1A476F"/>
	<circle cx="1766.65" cy="2041.07" r="22.03" style="fill:none;stroke:#1A476F;stroke-width:8.64"/>
	<circle cx="1626.32" cy="2337.83" r="26.35" style="fill:#1A476F"/>
	<circle cx="1626.32" cy="2337.83" r="22.03" style="fill:none;stroke:#1A476F;stroke-width:8.64"/>
	<circle cx="2330.21" cy="1640.11" r="26.35" style="fill:#1A476F"/>
	<circle cx="2330.21" cy="1640.11" r="22.03" style="fill:none;stroke:#1A476F;stroke-width:8.64"/>
	<circle cx="1581.90" cy="2306.52" r="26.35" style="fill:#1A476F"/>
	<circle cx="1581.90" cy="2306.52" r="22.03" style="fill:none;stroke:#1A476F;stroke-width:8.64"/>
	<circle cx="1934.21" cy="2268.04" r="26.35" style="fill:#1A476F"/>
	<circle cx="1934.21" cy="2268.04" r="22.03" style="fill:none;stroke:#1A476F;stroke-width:8.64"/>
	<circle cx="2132.95" cy="1773.27" r="26.35" style="fill:#1A476F"/>
	<circle cx="2132.95" cy="1773.27" r="22.03" style="fill:none;stroke:#1A476F;stroke-width:8.64"/>
	<circle cx="2082.84" cy="1888.11" r="26.35" style="fill:#1A476F"/>
	<circle cx="2082.84" cy="1888.11" r="22.03" style="fill:none;stroke:#1A476F;stroke-width:8.64"/>
	<circle cx="2176.89" cy="2086.61" r="26.35" style="fill:#1A476F"/>
	<circle cx="2176.89" cy="2086.61" r="22.03" style="fill:none;stroke:#1A476F;stroke-width:8.64"/>
	<circle cx="2180.97" cy="1779.21" r="26.35" style="fill:#1A476F"/>
	<circle cx="2180.97" cy="1779.21" r="22.03" style="fill:none;stroke:#1A476F;stroke-width:8.64"/>
	<circle cx="2022.82" cy="1963.23" r="26.35" style="fill:#1A476F"/>
	<circle cx="2022.82" cy="1963.23" r="22.03" style="fill:none;stroke:#1A476F;stroke-width:8.64"/>
	<circle cx="1737.82" cy="2137.48" r="26.35" style="fill:#1A476F"/>
	<circle cx="1737.82" cy="2137.48" r="22.03" style="fill:none;stroke:#1A476F;stroke-width:8.64"/>
	<circle cx="1890.28" cy="2132.16" r="26.35" style="fill:#1A476F"/>
	<circle cx="1890.28" cy="2132.16" r="22.03" style="fill:none;stroke:#1A476F;stroke-width:8.64"/>
	<circle cx="2005.86" cy="2007.54" r="26.35" style="fill:#1A476F"/>
	<circle cx="2005.86" cy="2007.54" r="22.03" style="fill:none;stroke:#1A476F;stroke-width:8.64"/>
	<circle cx="1384.27" cy="2321.50" r="26.35" style="fill:#1A476F"/>
	<circle cx="1384.27" cy="2321.50" r="22.03" style="fill:none;stroke:#1A476F;stroke-width:8.64"/>
	<circle cx="2348.65" cy="1485.05" r="26.35" style="fill:#1A476F"/>
	<circle cx="2348.65" cy="1485.05" r="22.03" style="fill:none;stroke:#1A476F;stroke-width:8.64"/>
	<circle cx="2222.30" cy="1685.90" r="26.35" style="fill:#1A476F"/>
	<circle cx="2222.30" cy="1685.90" r="22.03" style="fill:none;stroke:#1A476F;stroke-width:8.64"/>
	<circle cx="2730.79" cy="1346.69" r="26.35" style="fill:#1A476F"/>
	<circle cx="2730.79" cy="1346.69" r="22.03" style="fill:none;stroke:#1A476F;stroke-width:8.64"/>
	<circle cx="2309.67" cy="1725.25" r="26.35" style="fill:#1A476F"/>
	<circle cx="2309.67" cy="1725.25" r="22.03" style="fill:none;stroke:#1A476F;stroke-width:8.64"/>
	<circle cx="2028.76" cy="1773.89" r="26.35" style="fill:#1A476F"/>
	<circle cx="2028.76" cy="1773.89" r="22.03" style="fill:none;stroke:#1A476F;stroke-width:8.64"/>
	<circle cx="2683.39" cy="1324.41" r="26.35" style="fill:#1A476F"/>
	<circle cx="2683.39" cy="1324.41" r="22.03" style="fill:none;stroke:#1A476F;stroke-width:8.64"/>
	<circle cx="2363.38" cy="1647.04" r="26.35" style="fill:#1A476F"/>
	<circle cx="2363.38" cy="1647.04" r="22.03" style="fill:none;stroke:#1A476F;stroke-width:8.64"/>
	<circle cx="2124.66" cy="1951.85" r="26.35" style="fill:#1A476F"/>
	<circle cx="2124.66" cy="1951.85" r="22.03" style="fill:none;stroke:#1A476F;stroke-width:8.64"/>
	<circle cx="2101.77" cy="1883.16" r="26.35" style="fill:#1A476F"/>
	<circle cx="2101.77" cy="1883.16" r="22.03" style="fill:none;stroke:#1A476F;stroke-width:8.64"/>
	<circle cx="2354.22" cy="1703.10" r="26.35" style="fill:#1A476F"/>
	<circle cx="2354.22" cy="1703.10" r="22.03" style="fill:none;stroke:#1A476F;stroke-width:8.64"/>
	<circle cx="2009.08" cy="1917.07" r="26.35" style="fill:#1A476F"/>
	<circle cx="2009.08" cy="1917.07" r="22.03" style="fill:none;stroke:#1A476F;stroke-width:8.64"/>
	<circle cx="2184.43" cy="1640.36" r="26.35" style="fill:#1A476F"/>
	<circle cx="2184.43" cy="1640.36" r="22.03" style="fill:none;stroke:#1A476F;stroke-width:8.64"/>
	<circle cx="1976.29" cy="1520.44" r="26.35" style="fill:#1A476F"/>
	<circle cx="1976.29" cy="1520.44" r="22.03" style="fill:none;stroke:#1A476F;stroke-width:8.64"/>
	<circle cx="2556.18" cy="1406.71" r="26.35" style="fill:#1A476F"/>
	<circle cx="2556.18" cy="1406.71" r="22.03" style="fill:none;stroke:#1A476F;stroke-width:8.64"/>
	<circle cx="2370.43" cy="1499.40" r="26.35" style="fill:#1A476F"/>
	<circle cx="2370.43" cy="1499.40" r="22.03" style="fill:none;stroke:#1A476F;stroke-width:8.64"/>
	<circle cx="1682.26" cy="1665.60" r="26.35" style="fill:#1A476F"/>
	<circle cx="1682.26" cy="1665.60" r="22.03" style="fill:none;stroke:#1A476F;stroke-width:8.64"/>
	<circle cx="2383.30" cy="1430.59" r="26.35" style="fill:#1A476F"/>
	<circle cx="2383.30" cy="1430.59" r="22.03" style="fill:none;stroke:#1A476F;stroke-width:8.64"/>
	<circle cx="1843.63" cy="1749.51" r="26.35" style="fill:#1A476F"/>
	<circle cx="1843.63" cy="1749.51" r="22.03" style="fill:none;stroke:#1A476F;stroke-width:8.64"/>
	<circle cx="1943.74" cy="1601.25" r="26.35" style="fill:#1A476F"/>
	<circle cx="1943.74" cy="1601.25" r="22.03" style="fill:none;stroke:#1A476F;stroke-width:8.64"/>
	<circle cx="1684.98" cy="1870.17" r="26.35" style="fill:#1A476F"/>
	<circle cx="1684.98" cy="1870.17" r="22.03" style="fill:none;stroke:#1A476F;stroke-width:8.64"/>
	<circle cx="2626.72" cy="1587.89" r="26.35" style="fill:#1A476F"/>
	<circle cx="2626.72" cy="1587.89" r="22.03" style="fill:none;stroke:#1A476F;stroke-width:8.64"/>
	<circle cx="1581.28" cy="1874.75" r="26.35" style="fill:#1A476F"/>
	<circle cx="1581.28" cy="1874.75" r="22.03" style="fill:none;stroke:#1A476F;stroke-width:8.64"/>
	<path d=" M2391.84 1600.76 L2416.96 1580.71 L2798.73 1275.65 L2430.82 1569.57 L2434.29 1566.85 L2675.35 1374.16 L2248.04 1715.72 L2646.27 1397.43 L2987.94 1124.43 L1950.30 1953.70 L2528.34 1491.73 L1608.01 2227.32 L2406.57 1589.00 L2259.92 1706.19 L2527.22 1492.60 L3032.12 1089.03 L3225.30 934.59 L3072.71 1056.49 L2826.57 1253.26 L3371.57 817.77 L2041.63 1880.69 L2806.53 1269.34 L1619.02 2218.41 L2548.01 1475.89 L3033.73 1087.80 L2600.24 1434.31 L2758.88 1307.46 L2751.83 1313.03 L2664.21 1383.07 L2191.74 1760.65 L3039.05 1083.47 L2946.12 1157.84 L1915.15 1981.79 L2613.48 1423.54 L2295.44 1677.85 L2381.45 1609.05 L2985.22 1126.53 L2775.22 1294.34 L2433.05 1567.84 L2355.46 1629.84 L2598.26 1435.79 L2353.72 1631.32 L2499.75 1514.62 L2696.26 1357.46 L1720.37 2137.48 L2762.59 1304.49 L2047.57 1875.98 L2271.80 1696.79 L2390.97 1601.50 L1784.10 2086.61 L1844.87 2037.98 L2214.75 1742.33 L2041.63 1880.69 L1649.09 2194.40 L2557.05 1468.83 L1683.74 2166.81 L2159.19 1786.76 L2569.30 1458.93 L2279.97 1690.23 L1359.52 2425.95 L2351.87 1632.68 L2442.82 1560.04 L2274.90 1694.31 L2296.43 1677.11 L2483.66 1527.37 L2558.28 1467.72 L2720.89 1337.78 L2784.99 1286.55 L2672.38 1376.64 L2632.91 1408.07 L1683.74 2166.81 L1925.80 1973.26 L2119.71 1818.32 L2417.46 1580.34 L2102.14 1832.42 L1639.56 2202.08 L2449.76 1554.47 L1848.58 2035.01 L1751.68 2112.48 L2217.48 1740.23 L2561.38 1465.25 L2216.73 1740.72 L1490.20 2321.50 L1649.09 2194.40 L1526.21 2292.66 L2199.16 1754.71 L1950.30 1953.70 L1584.00 2246.50 L1933.47 1967.19 L2204.24 1750.75 L1901.05 1993.06 L2135.93 1805.32 L1994.23 1918.56 L2092.74 1839.85 L2287.39 1684.29 L2249.78 1714.36 L2008.83 1906.92 L1961.68 1944.67 L1608.01 2227.32 L1392.68 2399.34 L2530.56 1489.87 L2277.37 1692.21 L2249.78 1714.36 L1421.52 2376.32 L2455.32 1550.02 L1508.88 2306.52 L1793.88 2078.69 L2602.59 1432.33 L1508.88 2306.52 L1885.95 2005.06 L2426.86 1572.79 L2069.97 1858.04 L2850.83 1233.95 L2480.57 1529.85 L1968.12 1939.47 L2864.07 1223.31 L2896.37 1197.44 L2022.57 1895.91 L2585.76 1445.82 L2249.78 1714.36 L2499.38 1514.87 L1829.15 2050.48 L3049.20 1075.42 L2243.34 1719.44 L2794.52 1278.87 L2506.18 1509.43 L2209.93 1746.17 L2802.44 1272.68 L2281.95 1688.62 L2153.87 1790.97 L2599.24 1434.93 L2204.98 1750.13 L2461.51 1545.07 L1873.08 2015.33 L2184.06 1766.83 L2151.15 1793.19 L2547.52 1476.38 L2350.88 1633.55 L1807.74 2067.56 L2321.05 1657.44 L1619.02 2218.41 L1699.09 2154.43 L3012.57 1104.63 L1935.94 1965.09 L1999.80 1914.10 L2516.09 1501.51 L2693.30 1359.93 L2912.46 1184.70 L2599.37 1434.93 L2290.74 1681.57 L2551.97 1472.79 L1879.64 2010.13 L2223.42 1735.40 L3059.10 1067.50 L2124.91 1814.11 L2197.06 1756.56 L1658.37 2187.10 L2448.39 1555.59 L2089.02 1842.82 L2035.44 1885.64 L1683.74 2166.81 L2395.43 1597.91 L1923.20 1975.36 L2071.33 1856.93 L2019.23 1898.63 L2140.75 1801.36 L2332.32 1648.40 L1966.02 1941.20 L1906.86 1988.48 L2408.05 1587.89 L2398.89 1595.06 L1841.03 2041.07 L2750.84 1313.77 L1469.53 2337.83 L2342.71 1640.11 L1508.88 2306.52 L1557.02 2268.04 L2176.14 1773.27 L2032.22 1888.11 L1784.10 2086.61 L2168.59 1779.21 L1938.42 1963.23 L1720.37 2137.48 L1726.93 2132.16 L2568.55 1459.55 L1882.86 2007.54 L1490.20 2321.50 L2525.12 1494.20 L2536.63 1485.05 L2285.41 1685.90 L2709.75 1346.69 L2236.04 1725.25 L2175.28 1773.89 L2737.60 1324.41 L2333.93 1647.04 L1952.65 1951.85 L2839.32 1243.23 L2038.53 1883.16 L2263.76 1703.10 L1996.09 1917.07 L2160.92 1785.40 L2342.34 1640.36 L2492.32 1520.44 L2634.76 1406.71 L2518.56 1499.40 L2310.78 1665.60 L2604.81 1430.59 L2205.72 1749.51 L2391.22 1601.25 L2794.40 1279.00 L2054.87 1870.17 L2408.05 1587.89 L2049.05 1874.75 L2569.17 1459.06 L3142.38 1000.92 L2705.05 1350.40 L2936.34 1165.64 L3094.62 1039.04 L3077.04 1053.15 L2685.87 1365.87 L2996.61 1117.37 L1930.99 1969.17 L2257.20 1708.42 L2630.43 1410.18 L2873.72 1215.63 L2487.62 1524.28 L2535.02 1486.28 L2548.26 1475.76 L2549.37 1474.90 L2012.42 1904.08 L2303.24 1671.54 L2248.04 1715.72 L3601.12 634.24 L2061.80 1864.48 L2495.91 1517.59 L2756.66 1309.19 L2258.81 1707.06 L2768.04 1300.16 L1972.33 1936.01 L1667.16 2180.05 L2267.47 1700.13 L2404.59 1590.61 L2776.58 1293.23 L2412.88 1583.93 L2641.57 1401.14 L2863.70 1223.68 L2623.01 1416.12 L2662.36 1384.56 L3181.98 969.24 L3152.66 992.75 L2994.63 1118.98 L3106.00 1030.00 L2727.20 1332.71 L2430.33 1569.94 L2420.43 1577.99 L2724.97 1334.56 L2442.58 1560.29 L1997.94 1915.59 L2395.68 1597.66 L2504.33 1510.79 L2591.20 1441.36 L1733.37 2127.08 L2420.92 1577.49 L3087.93 1044.36 L2787.59 1284.57 L2598.38 1435.67 L1733.37 2127.08 L1683.74 2166.81 L2432.80 1567.96 L1928.40 1971.15 L2507.67 1508.19 L3013.07 1104.26 L2269.08 1698.89 L2613.85 1423.29 L2653.08 1391.98 L2600.48 1433.94 L2143.72 1799.13 L2975.82 1134.08 L2355.46 1629.84 L1608.01 2227.32 L2152.88 1791.71 L1976.54 1932.79 L2153.87 1790.97 L2529.95 1490.37 L1757.37 2107.90 L2085.43 1845.67 L2419.07 1578.98 L2583.90 1447.30 L2221.44 1737.01 L2408.79 1587.27 L2504.70 1510.54 L2066.01 1861.26 L1825.07 2053.82 L2202.13 1752.48 L1762.94 2103.44 L2066.01 1861.26 L2581.92 1448.91 L2032.22 1888.11 L1833.11 2047.26 L1982.60 1927.84 L2445.05 1558.18 L2469.43 1538.76 L1844.87 2037.98 L2558.53 1467.60 L1990.39 1921.65 L1421.52 2376.32 L1570.88 2256.90 L2415.85 1581.57 L2100.90 1833.29 L1557.02 2268.04 L2184.81 1766.22 L2676.59 1373.17 L2694.41 1358.94 L2075.29 1853.83 L2170.33 1777.85 L2489.85 1522.42 L2479.33 1530.84 L2633.40 1407.70 L2410.16 1586.15 L2020.84 1897.27 L1667.16 2180.05 L2257.20 1708.42 L1798.58 2074.98 L2935.10 1166.63 L2646.64 1397.18 L2182.45 1768.07 L2601.22 1433.44 L1584.00 2246.50 L2440.60 1561.77 L1596.25 2236.60 L2643.30 1399.78 L2962.82 1144.35 L2172.80 1775.87 L1658.37 2187.10 L2056.23 1869.05 L1999.80 1914.10 L1469.53 2337.83 L2579.32 1451.01 L2871.49 1217.49 L2189.51 1762.50 L2520.42 1498.04 L2658.64 1387.53 L2248.04 1715.72 L2508.29 1507.69 L2913.57 1183.83 L2054.87 1870.17 L1526.21 2292.66 L2479.58 1530.71 L1833.11 2047.26 L2263.26 1703.60 L1892.14 2000.11 L2488.12 1523.78 L2063.28 1863.36 L2010.57 1905.44 L2146.44 1796.91 L1542.17 2279.92 L2079.12 1850.74 L1359.52 2425.95 L2329.10 1650.88 L3326.89 853.53 L2800.59 1274.17 L1446.88 2356.03 L2576.60 1453.12 L2573.13 1455.96 L2358.30 1627.61 L2452.97 1552.00 L2557.17 1468.71 L2477.35 1532.44 L1925.80 1973.26 L2452.23 1552.49 L2068.61 1859.03 L1882.86 2007.54 L2269.70 1698.40 L1930.99 1969.17" stroke-linejoin="round" style="fill:none;stroke:#90353B;stroke-width:8.64"/>
	<line x1="390.80" y1="2489.19" x2="390.80" y2="415.32" style="stroke:#000000;stroke-width:5.76"/>
	<line x1="390.80" y1="2201.83" x2="350.83" y2="2201.83" style="stroke:#000000;stroke-width:5.76"/>
	<text x="300.72" y="2201.83" style="font-family:'Helvetica';font-size:99.99px;fill:#000000" transform="rotate(-90 300.72,2201.83)" text-anchor="middle">10</text>
	<line x1="390.80" y1="1340.25" x2="350.83" y2="1340.25" style="stroke:#000000;stroke-width:5.76"/>
	<text x="300.72" y="1340.25" style="font-family:'Helvetica';font-size:99.99px;fill:#000000" transform="rotate(-90 300.72,1340.25)" text-anchor="middle">15</text>
	<line x1="390.80" y1="478.68" x2="350.83" y2="478.68" style="stroke:#000000;stroke-width:5.76"/>
	<text x="300.72" y="478.68" style="font-family:'Helvetica';font-size:99.99px;fill:#000000" transform="rotate(-90 300.72,478.68)" text-anchor="middle">20</text>
	<text x="190.71" y="1452.25" style="font-family:'Helvetica';font-size:99.99px;fill:#000000" transform="rotate(-90 190.71,1452.25)" text-anchor="middle">Source : Résumé</text>
	<line x1="390.80" y1="2489.19" x2="3859.02" y2="2489.19" style="stroke:#000000;stroke-width:5.76"/>
	<line x1="561.95" y1="2489.19" x2="561.95" y2="2529.16" style="stroke:#000000;stroke-width:5.76"/>
	<text x="561.95" y="2619.14" style="font-family:'Helvetica';font-size:99.99px;fill:#000000" text-anchor="middle">5</text>
	<line x1="1639.93" y1="2489.19" x2="1639.93" y2="2529.16" style="stroke:#000000;stroke-width:5.76"/>
	<text x="1639.93" y="2619.14" style="font-family:'Helvetica';font-size:99.99px;fill:#000000" text-anchor="middle">10</text>
	<line x1="2717.80" y1="2489.19" x2="2717.80" y2="2529.16" style="stroke:#000000;stroke-width:5.76"/>
	<text x="2717.80" y="2619.14" style="font-family:'Helvetica';font-size:99.99px;fill:#000000" text-anchor="middle">15</text>
	<line x1="3795.66" y1="2489.19" x2="3795.66" y2="2529.16" style="stroke:#000000;stroke-width:5.76"/>
	<text x="3795.66" y="2619.14" style="font-family:'Helvetica';font-size:99.99px;fill:#000000" text-anchor="middle">20</text>
	<text x="2124.91" y="2729.16" style="font-family:'Helvetica';font-size:99.99px;fill:#000000" text-anchor="middle">Sources : autres</text>
	<text x="2124.91" y="215.98" style="font-family:'Helvetica';font-size:139.96px;fill:#1E2D53" text-anchor="middle">Valeurs résumées VS Valeurs non résumées</text>
	<text x="2124.91" y="356.06" style="font-family:'Helvetica';font-size:139.96px;fill:#1E2D53" text-anchor="middle"> par partenaire et produit (Exports 1789)</text>
</svg>
