<?xml version="1.0" encoding="UTF-8" standalone="no"?>
<!-- This is a Stata 17.0 generated SVG file (http://www.stata.com) -->

<svg version="1.1" width="5.50in" height="4.00in" viewBox="0 0 3960 2880" xmlns="http://www.w3.org/2000/svg" xmlns:xlink="http://www.w3.org/1999/xlink">
	<desc>Stata Graph - graph3</desc>
	<rect x="0" y="0" width="3960" height="2880" style="fill:#EAF2F3;stroke:none"/>
	<rect x="0.00" y="0.00" width="3959.88" height="2880.00" style="fill:#EAF2F3"/>
	<rect x="2.88" y="2.88" width="3954.12" height="2874.24" style="fill:none;stroke:#EAF2F3;stroke-width:5.76"/>
	<rect x="390.80" y="415.32" width="3468.22" height="2073.87" style="fill:#FFFFFF"/>
	<rect x="393.68" y="418.20" width="3462.46" height="2068.11" style="fill:none;stroke:#FFFFFF;stroke-width:5.76"/>
	<line x1="390.80" y1="2425.82" x2="3859.02" y2="2425.82" style="stroke:#EAF2F3;stroke-width:8.64"/>
	<line x1="390.80" y1="2055.55" x2="3859.02" y2="2055.55" style="stroke:#EAF2F3;stroke-width:8.64"/>
	<line x1="390.80" y1="1685.28" x2="3859.02" y2="1685.28" style="stroke:#EAF2F3;stroke-width:8.64"/>
	<line x1="390.80" y1="1315.01" x2="3859.02" y2="1315.01" style="stroke:#EAF2F3;stroke-width:8.64"/>
	<line x1="390.80" y1="944.86" x2="3859.02" y2="944.86" style="stroke:#EAF2F3;stroke-width:8.64"/>
	<line x1="390.80" y1="574.59" x2="3859.02" y2="574.59" style="stroke:#EAF2F3;stroke-width:8.64"/>
	<circle cx="2779.05" cy="1302.63" r="26.35" style="fill:#1A476F"/>
	<circle cx="2779.05" cy="1302.63" r="22.03" style="fill:none;stroke:#1A476F;stroke-width:8.64"/>
	<text x="2821.01" y="1330.64" style="font-family:'Helvetica';font-size:79.94px;fill:#1A476f">Allemagne</text>
	<circle cx="2740.82" cy="1177.15" r="26.35" style="fill:#1A476F"/>
	<circle cx="2740.82" cy="1177.15" r="22.03" style="fill:none;stroke:#1A476F;stroke-width:8.64"/>
	<text x="2782.77" y="1205.16" style="font-family:'Helvetica';font-size:79.94px;fill:#1A476f">Angleterre</text>
	<circle cx="3007.37" cy="1118.36" r="26.35" style="fill:#1A476F"/>
	<circle cx="3007.37" cy="1118.36" r="22.03" style="fill:none;stroke:#1A476F;stroke-width:8.64"/>
	<text x="3049.32" y="1146.38" style="font-family:'Helvetica';font-size:79.94px;fill:#1A476f">Espagne</text>
	<circle cx="2631.05" cy="1258.58" r="26.35" style="fill:#1A476F"/>
	<circle cx="2631.05" cy="1258.58" r="22.03" style="fill:none;stroke:#1A476F;stroke-width:8.64"/>
	<text x="2673.00" y="1286.59" style="font-family:'Helvetica';font-size:79.94px;fill:#1A476f">Flandre et autres états de l'Empereur</text>
	<circle cx="2500.24" cy="1100.17" r="26.35" style="fill:#1A476F"/>
	<circle cx="2500.24" cy="1100.17" r="22.03" style="fill:none;stroke:#1A476F;stroke-width:8.64"/>
	<text x="2542.20" y="1128.18" style="font-family:'Helvetica';font-size:79.94px;fill:#1A476f">Hollande</text>
	<circle cx="2907.63" cy="1048.20" r="26.35" style="fill:#1A476F"/>
	<circle cx="2907.63" cy="1048.20" r="22.03" style="fill:none;stroke:#1A476F;stroke-width:8.64"/>
	<text x="2949.58" y="1076.21" style="font-family:'Helvetica';font-size:79.94px;fill:#1A476f">Italie</text>
	<circle cx="2662.23" cy="1385.05" r="26.35" style="fill:#1A476F"/>
	<circle cx="2662.23" cy="1385.05" r="22.03" style="fill:none;stroke:#1A476F;stroke-width:8.64"/>
	<text x="2704.18" y="1413.06" style="font-family:'Helvetica';font-size:79.94px;fill:#1A476f">Levant et Barbarie</text>
	<circle cx="2782.27" cy="816.78" r="26.35" style="fill:#1A476F"/>
	<circle cx="2782.27" cy="816.78" r="22.03" style="fill:none;stroke:#1A476F;stroke-width:8.64"/>
	<text x="2824.22" y="844.79" style="font-family:'Helvetica';font-size:79.94px;fill:#1A476f">Nord</text>
	<circle cx="3257.59" cy="864.05" r="26.35" style="fill:#1A476F"/>
	<circle cx="3257.59" cy="864.05" r="22.03" style="fill:none;stroke:#1A476F;stroke-width:8.64"/>
	<text x="3299.55" y="892.06" style="font-family:'Helvetica';font-size:79.94px;fill:#1A476f">Outre-mers</text>
	<circle cx="1998.07" cy="2074.36" r="26.35" style="fill:#1A476F"/>
	<circle cx="1998.07" cy="2074.36" r="22.03" style="fill:none;stroke:#1A476F;stroke-width:8.64"/>
	<text x="2040.02" y="2102.37" style="font-family:'Helvetica';font-size:79.94px;fill:#1A476f">Portugal</text>
	<circle cx="2630.06" cy="1383.94" r="26.35" style="fill:#1A476F"/>
	<circle cx="2630.06" cy="1383.94" r="22.03" style="fill:none;stroke:#1A476F;stroke-width:8.64"/>
	<text x="2672.01" y="1411.95" style="font-family:'Helvetica';font-size:79.94px;fill:#1A476f">Suisse</text>
	<circle cx="1849.07" cy="2413.94" r="26.35" style="fill:#1A476F"/>
	<circle cx="1849.07" cy="2413.94" r="22.03" style="fill:none;stroke:#1A476F;stroke-width:8.64"/>
	<text x="1891.02" y="2441.95" style="font-family:'Helvetica';font-size:79.94px;fill:#1A476f">États-Unis d'Amérique</text>
	<path d=" M2859.00 1302.63 L2522.77 1696.91 L2966.04 1177.27 L3140.40 972.71 L3016.16 1118.49 L2939.56 1208.21 L2896.62 1258.58 L2924.83 1225.53 L3031.63 1100.30 L2981.39 1159.20 L3075.93 1048.32 L3186.07 919.12 L2788.71 1385.18 L3003.29 1133.59 L3273.31 816.90 L3000.32 1137.05 L3232.97 864.17 L3561.65 478.80 L2200.89 2074.49 L2476.86 1750.87 L2789.70 1383.94 L2436.89 1797.65 L1911.32 2413.94 L2656.17 1540.61" stroke-linejoin="round" style="fill:none;stroke:#90353B;stroke-width:8.64"/>
	<line x1="390.80" y1="2489.19" x2="390.80" y2="415.32" style="stroke:#000000;stroke-width:5.76"/>
	<line x1="390.80" y1="2425.82" x2="350.83" y2="2425.82" style="stroke:#000000;stroke-width:5.76"/>
	<text x="300.72" y="2425.82" style="font-family:'Helvetica';font-size:99.99px;fill:#000000" transform="rotate(-90 300.72,2425.82)" text-anchor="middle">14</text>
	<line x1="390.80" y1="2055.55" x2="350.83" y2="2055.55" style="stroke:#000000;stroke-width:5.76"/>
	<text x="300.72" y="2055.55" style="font-family:'Helvetica';font-size:99.99px;fill:#000000" transform="rotate(-90 300.72,2055.55)" text-anchor="middle">15</text>
	<line x1="390.80" y1="1685.28" x2="350.83" y2="1685.28" style="stroke:#000000;stroke-width:5.76"/>
	<text x="300.72" y="1685.28" style="font-family:'Helvetica';font-size:99.99px;fill:#000000" transform="rotate(-90 300.72,1685.28)" text-anchor="middle">16</text>
	<line x1="390.80" y1="1315.01" x2="350.83" y2="1315.01" style="stroke:#000000;stroke-width:5.76"/>
	<text x="300.72" y="1315.01" style="font-family:'Helvetica';font-size:99.99px;fill:#000000" transform="rotate(-90 300.72,1315.01)" text-anchor="middle">17</text>
	<line x1="390.80" y1="944.86" x2="350.83" y2="944.86" style="stroke:#000000;stroke-width:5.76"/>
	<text x="300.72" y="944.86" style="font-family:'Helvetica';font-size:99.99px;fill:#000000" transform="rotate(-90 300.72,944.86)" text-anchor="middle">18</text>
	<line x1="390.80" y1="574.59" x2="350.83" y2="574.59" style="stroke:#000000;stroke-width:5.76"/>
	<text x="300.72" y="574.59" style="font-family:'Helvetica';font-size:99.99px;fill:#000000" transform="rotate(-90 300.72,574.59)" text-anchor="middle">19</text>
	<text x="190.71" y="1452.25" style="font-family:'Helvetica';font-size:99.99px;fill:#000000" transform="rotate(-90 190.71,1452.25)" text-anchor="middle">Source : Résumé</text>
	<line x1="390.80" y1="2489.19" x2="3859.02" y2="2489.19" style="stroke:#000000;stroke-width:5.76"/>
	<line x1="638.18" y1="2489.19" x2="638.18" y2="2529.16" style="stroke:#000000;stroke-width:5.76"/>
	<text x="638.18" y="2619.14" style="font-family:'Helvetica';font-size:99.99px;fill:#000000" text-anchor="middle">10</text>
	<line x1="1269.67" y1="2489.19" x2="1269.67" y2="2529.16" style="stroke:#000000;stroke-width:5.76"/>
	<text x="1269.67" y="2619.14" style="font-family:'Helvetica';font-size:99.99px;fill:#000000" text-anchor="middle">12</text>
	<line x1="1901.17" y1="2489.19" x2="1901.17" y2="2529.16" style="stroke:#000000;stroke-width:5.76"/>
	<text x="1901.17" y="2619.14" style="font-family:'Helvetica';font-size:99.99px;fill:#000000" text-anchor="middle">14</text>
	<line x1="2532.67" y1="2489.19" x2="2532.67" y2="2529.16" style="stroke:#000000;stroke-width:5.76"/>
	<text x="2532.67" y="2619.14" style="font-family:'Helvetica';font-size:99.99px;fill:#000000" text-anchor="middle">16</text>
	<line x1="3164.16" y1="2489.19" x2="3164.16" y2="2529.16" style="stroke:#000000;stroke-width:5.76"/>
	<text x="3164.16" y="2619.14" style="font-family:'Helvetica';font-size:99.99px;fill:#000000" text-anchor="middle">18</text>
	<line x1="3795.66" y1="2489.19" x2="3795.66" y2="2529.16" style="stroke:#000000;stroke-width:5.76"/>
	<text x="3795.66" y="2619.14" style="font-family:'Helvetica';font-size:99.99px;fill:#000000" text-anchor="middle">20</text>
	<text x="2124.91" y="2729.16" style="font-family:'Helvetica';font-size:99.99px;fill:#000000" text-anchor="middle">Sources : autres</text>
	<text x="2124.91" y="215.98" style="font-family:'Helvetica';font-size:139.96px;fill:#1E2D53" text-anchor="middle">Valeurs résumées VS Valeurs non résumées</text>
	<text x="2124.91" y="356.06" style="font-family:'Helvetica';font-size:139.96px;fill:#1E2D53" text-anchor="middle"> par partenaire (Exports 1789)</text>
</svg>
