<?xml version="1.0" encoding="UTF-8" standalone="no"?>
<!-- This is a Stata 17.0 generated SVG file (http://www.stata.com) -->

<svg version="1.1" width="5.500in" height="4.000in" viewBox="0 0 3960 2880" xmlns="http://www.w3.org/2000/svg" xmlns:xlink="http://www.w3.org/1999/xlink">
	<desc>Stata Graph - graph3</desc>
	<rect x="0" y="0" width="3960" height="2880" style="fill:#EAF2F3;stroke:none"/>
	<rect x="0.00" y="0.00" width="3959.88" height="2880.00" style="fill:#EAF2F3"/>
	<rect x="2.88" y="2.88" width="3954.12" height="2874.24" style="fill:none;stroke:#EAF2F3;stroke-width:5.76"/>
	<rect x="390.80" y="415.32" width="3468.22" height="2073.87" style="fill:#FFFFFF"/>
	<rect x="393.68" y="418.20" width="3462.46" height="2068.11" style="fill:none;stroke:#FFFFFF;stroke-width:5.76"/>
	<line x1="390.80" y1="2425.82" x2="3859.02" y2="2425.82" style="stroke:#EAF2F3;stroke-width:8.64"/>
	<line x1="390.80" y1="2036.37" x2="3859.02" y2="2036.37" style="stroke:#EAF2F3;stroke-width:8.64"/>
	<line x1="390.80" y1="1647.04" x2="3859.02" y2="1647.04" style="stroke:#EAF2F3;stroke-width:8.64"/>
	<line x1="390.80" y1="1257.59" x2="3859.02" y2="1257.59" style="stroke:#EAF2F3;stroke-width:8.64"/>
	<line x1="390.80" y1="868.13" x2="3859.02" y2="868.13" style="stroke:#EAF2F3;stroke-width:8.64"/>
	<circle cx="884.94" cy="2048.62" r="26.35" style="fill:#1A476F"/>
	<circle cx="884.94" cy="2048.62" r="22.03" style="fill:none;stroke:#1A476F;stroke-width:8.64"/>
	<text x="926.89" y="2076.63" style="font-family:'Helvetica';font-size:79.94px;fill:#1A476f">Allemagne</text>
	<circle cx="2359.67" cy="1286.79" r="26.35" style="fill:#1A476F"/>
	<circle cx="2359.67" cy="1286.79" r="22.03" style="fill:none;stroke:#1A476F;stroke-width:8.64"/>
	<text x="2401.62" y="1314.80" style="font-family:'Helvetica';font-size:79.94px;fill:#1A476f">Angleterre</text>
	<circle cx="1824.20" cy="1534.55" r="26.35" style="fill:#1A476F"/>
	<circle cx="1824.20" cy="1534.55" r="22.03" style="fill:none;stroke:#1A476F;stroke-width:8.64"/>
	<text x="1866.15" y="1562.56" style="font-family:'Helvetica';font-size:79.94px;fill:#1A476f">Espagne</text>
	<circle cx="1945.60" cy="1552.74" r="26.35" style="fill:#1A476F"/>
	<circle cx="1945.60" cy="1552.74" r="22.03" style="fill:none;stroke:#1A476F;stroke-width:8.64"/>
	<text x="1987.55" y="1580.75" style="font-family:'Helvetica';font-size:79.94px;fill:#1A476f">Flandre et autres états de l'Empereur</text>
	<circle cx="2072.57" cy="1483.07" r="26.35" style="fill:#1A476F"/>
	<circle cx="2072.57" cy="1483.07" r="22.03" style="fill:none;stroke:#1A476F;stroke-width:8.64"/>
	<text x="2114.52" y="1511.08" style="font-family:'Helvetica';font-size:79.94px;fill:#1A476f">Hollande</text>
	<circle cx="2499.87" cy="1230.61" r="26.35" style="fill:#1A476F"/>
	<circle cx="2499.87" cy="1230.61" r="22.03" style="fill:none;stroke:#1A476F;stroke-width:8.64"/>
	<text x="2541.82" y="1258.62" style="font-family:'Helvetica';font-size:79.94px;fill:#1A476f">Italie</text>
	<circle cx="2119.84" cy="1456.09" r="26.35" style="fill:#1A476F"/>
	<circle cx="2119.84" cy="1456.09" r="22.03" style="fill:none;stroke:#1A476F;stroke-width:8.64"/>
	<text x="2161.79" y="1484.10" style="font-family:'Helvetica';font-size:79.94px;fill:#1A476f">Levant et Barbarie</text>
	<circle cx="2051.65" cy="1459.68" r="26.35" style="fill:#1A476F"/>
	<circle cx="2051.65" cy="1459.68" r="22.03" style="fill:none;stroke:#1A476F;stroke-width:8.64"/>
	<text x="2093.60" y="1487.69" style="font-family:'Helvetica';font-size:79.94px;fill:#1A476f">Nord</text>
	<circle cx="3300.54" cy="767.40" r="26.35" style="fill:#1A476F"/>
	<circle cx="3300.54" cy="767.40" r="22.03" style="fill:none;stroke:#1A476F;stroke-width:8.64"/>
	<text x="3342.49" y="795.41" style="font-family:'Helvetica';font-size:79.94px;fill:#1A476f">Outre-mers</text>
	<circle cx="899.66" cy="2105.30" r="26.35" style="fill:#1A476F"/>
	<circle cx="899.66" cy="2105.30" r="22.03" style="fill:none;stroke:#1A476F;stroke-width:8.64"/>
	<text x="941.61" y="2133.31" style="font-family:'Helvetica';font-size:79.94px;fill:#1A476f">Portugal</text>
	<circle cx="697.58" cy="2154.55" r="26.35" style="fill:#1A476F"/>
	<circle cx="697.58" cy="2154.55" r="22.03" style="fill:none;stroke:#1A476F;stroke-width:8.64"/>
	<text x="739.53" y="2182.57" style="font-family:'Helvetica';font-size:79.94px;fill:#1A476f">Suisse</text>
	<circle cx="1373.13" cy="1884.15" r="26.35" style="fill:#1A476F"/>
	<circle cx="1373.13" cy="1884.15" r="22.03" style="fill:none;stroke:#1A476F;stroke-width:8.64"/>
	<text x="1415.08" y="1912.16" style="font-family:'Helvetica';font-size:79.94px;fill:#1A476f">États-Unis d'Amérique</text>
	<path d=" M1643.65 1732.68 L884.81 2174.97 L1562.84 1779.83 L2359.67 1315.50 L2126.89 1451.14 L1824.20 1627.49 L1330.44 1915.21 L1945.60 1556.82 L1053.48 2076.59 L2072.57 1482.82 L1915.90 1574.15 L2499.87 1233.83 L1396.40 1876.85 L2119.71 1455.35 L1650.70 1728.72 L2051.53 1495.07 L2656.67 1142.50 L3300.41 767.40 L899.66 2166.31 L1328.33 1916.45 L697.46 2284.00 L1373.13 1890.34" stroke-linejoin="round" style="fill:none;stroke:#90353B;stroke-width:8.64"/>
	<line x1="390.80" y1="2489.19" x2="390.80" y2="415.32" style="stroke:#000000;stroke-width:5.76"/>
	<line x1="390.80" y1="2425.82" x2="350.83" y2="2425.82" style="stroke:#000000;stroke-width:5.76"/>
	<text x="300.72" y="2425.82" style="font-family:'Helvetica';font-size:99.99px;fill:#000000" transform="rotate(-90 300.72,2425.82)" text-anchor="middle">15</text>
	<line x1="390.80" y1="2036.37" x2="350.83" y2="2036.37" style="stroke:#000000;stroke-width:5.76"/>
	<text x="300.72" y="2036.37" style="font-family:'Helvetica';font-size:99.99px;fill:#000000" transform="rotate(-90 300.72,2036.37)" text-anchor="middle">16</text>
	<line x1="390.80" y1="1647.04" x2="350.83" y2="1647.04" style="stroke:#000000;stroke-width:5.76"/>
	<text x="300.72" y="1647.04" style="font-family:'Helvetica';font-size:99.99px;fill:#000000" transform="rotate(-90 300.72,1647.04)" text-anchor="middle">17</text>
	<line x1="390.80" y1="1257.59" x2="350.83" y2="1257.59" style="stroke:#000000;stroke-width:5.76"/>
	<text x="300.72" y="1257.59" style="font-family:'Helvetica';font-size:99.99px;fill:#000000" transform="rotate(-90 300.72,1257.59)" text-anchor="middle">18</text>
	<line x1="390.80" y1="868.13" x2="350.83" y2="868.13" style="stroke:#000000;stroke-width:5.76"/>
	<text x="300.72" y="868.13" style="font-family:'Helvetica';font-size:99.99px;fill:#000000" transform="rotate(-90 300.72,868.13)" text-anchor="middle">19</text>
	<text x="190.71" y="1452.25" style="font-family:'Helvetica';font-size:99.99px;fill:#000000" transform="rotate(-90 190.71,1452.25)" text-anchor="middle">Source : Résumé</text>
	<line x1="390.80" y1="2489.19" x2="3859.02" y2="2489.19" style="stroke:#000000;stroke-width:5.76"/>
	<line x1="454.16" y1="2489.19" x2="454.16" y2="2529.16" style="stroke:#000000;stroke-width:5.76"/>
	<text x="454.16" y="2619.14" style="font-family:'Helvetica';font-size:99.99px;fill:#000000" text-anchor="middle">15</text>
	<line x1="1122.41" y1="2489.19" x2="1122.41" y2="2529.16" style="stroke:#000000;stroke-width:5.76"/>
	<text x="1122.41" y="2619.14" style="font-family:'Helvetica';font-size:99.99px;fill:#000000" text-anchor="middle">16</text>
	<line x1="1790.79" y1="2489.19" x2="1790.79" y2="2529.16" style="stroke:#000000;stroke-width:5.76"/>
	<text x="1790.79" y="2619.14" style="font-family:'Helvetica';font-size:99.99px;fill:#000000" text-anchor="middle">17</text>
	<line x1="2459.04" y1="2489.19" x2="2459.04" y2="2529.16" style="stroke:#000000;stroke-width:5.76"/>
	<text x="2459.04" y="2619.14" style="font-family:'Helvetica';font-size:99.99px;fill:#000000" text-anchor="middle">18</text>
	<line x1="3127.41" y1="2489.19" x2="3127.41" y2="2529.16" style="stroke:#000000;stroke-width:5.76"/>
	<text x="3127.41" y="2619.14" style="font-family:'Helvetica';font-size:99.99px;fill:#000000" text-anchor="middle">19</text>
	<text x="2124.91" y="2729.16" style="font-family:'Helvetica';font-size:99.99px;fill:#000000" text-anchor="middle">Sources : Autres</text>
	<text x="2124.91" y="215.98" style="font-family:'Helvetica';font-size:139.96px;fill:#1E2D53" text-anchor="middle">Comparaison des sources</text>
	<text x="2124.91" y="356.06" style="font-family:'Helvetica';font-size:139.96px;fill:#1E2D53" text-anchor="middle"> par partenaire (Imports 1789)</text>
</svg>
