<?xml version="1.0" encoding="UTF-8" standalone="no"?>
<!-- This is a Stata 17.0 generated SVG file (http://www.stata.com) -->

<svg version="1.1" width="5.50in" height="4.00in" viewBox="0 0 3960 2880" xmlns="http://www.w3.org/2000/svg" xmlns:xlink="http://www.w3.org/1999/xlink">
	<desc>Stata Graph - graph3</desc>
	<rect x="0" y="0" width="3960" height="2880" style="fill:#EAF2F3;stroke:none"/>
	<rect x="0.00" y="0.00" width="3959.88" height="2880.00" style="fill:#EAF2F3"/>
	<rect x="2.88" y="2.88" width="3954.12" height="2874.24" style="fill:none;stroke:#EAF2F3;stroke-width:5.76"/>
	<rect x="390.80" y="415.32" width="3468.22" height="2073.87" style="fill:#FFFFFF"/>
	<rect x="393.68" y="418.20" width="3462.46" height="2068.11" style="fill:none;stroke:#FFFFFF;stroke-width:5.76"/>
	<line x1="390.80" y1="2425.82" x2="3859.02" y2="2425.82" style="stroke:#EAF2F3;stroke-width:8.64"/>
	<line x1="390.80" y1="1939.10" x2="3859.02" y2="1939.10" style="stroke:#EAF2F3;stroke-width:8.64"/>
	<line x1="390.80" y1="1452.25" x2="3859.02" y2="1452.25" style="stroke:#EAF2F3;stroke-width:8.64"/>
	<line x1="390.80" y1="965.53" x2="3859.02" y2="965.53" style="stroke:#EAF2F3;stroke-width:8.64"/>
	<line x1="390.80" y1="478.68" x2="3859.02" y2="478.68" style="stroke:#EAF2F3;stroke-width:8.64"/>
	<circle cx="1695.99" cy="1767.21" r="26.35" style="fill:#1A476F"/>
	<circle cx="1695.99" cy="1767.21" r="22.03" style="fill:none;stroke:#1A476F;stroke-width:8.64"/>
	<text x="1737.94" y="1795.22" style="font-family:'Helvetica';font-size:79.94px;fill:#1A476f">Articles manufacturés divers n.d.a</text>
	<circle cx="1543.90" cy="1952.71" r="26.35" style="fill:#1A476F"/>
	<circle cx="1543.90" cy="1952.71" r="22.03" style="fill:none;stroke:#1A476F;stroke-width:8.64"/>
	<text x="1585.86" y="1980.72" style="font-family:'Helvetica';font-size:79.94px;fill:#1A476f">Articles minéraux non métalliques manufacturés, n.d.a.</text>
	<circle cx="1249.63" cy="1358.45" r="26.35" style="fill:#1A476F"/>
	<circle cx="1249.63" cy="1358.45" r="22.03" style="fill:none;stroke:#1A476F;stroke-width:8.64"/>
	<text x="1291.58" y="1386.46" style="font-family:'Helvetica';font-size:79.94px;fill:#1A476f">Autres filés ou tissés</text>
	<circle cx="2086.43" cy="1326.77" r="26.35" style="fill:#1A476F"/>
	<circle cx="2086.43" cy="1326.77" r="22.03" style="fill:none;stroke:#1A476F;stroke-width:8.64"/>
	<text x="2128.38" y="1354.78" style="font-family:'Helvetica';font-size:79.94px;fill:#1A476f">Autres filés ou tissés mélangés de fibres végétales dont toiles</text>
	<circle cx="3110.95" cy="869.62" r="26.35" style="fill:#1A476F"/>
	<circle cx="3110.95" cy="869.62" r="22.03" style="fill:none;stroke:#1A476F;stroke-width:8.64"/>
	<text x="3152.90" y="897.63" style="font-family:'Helvetica';font-size:79.94px;fill:#1A476f">Autres produits alimentaires et animaux</text>
	<circle cx="2232.08" cy="1321.69" r="26.35" style="fill:#1A476F"/>
	<circle cx="2232.08" cy="1321.69" r="22.03" style="fill:none;stroke:#1A476F;stroke-width:8.64"/>
	<text x="2274.03" y="1349.70" style="font-family:'Helvetica';font-size:79.94px;fill:#1A476f">Boissons et tabac</text>
	<circle cx="1829.64" cy="1585.41" r="26.35" style="fill:#1A476F"/>
	<circle cx="1829.64" cy="1585.41" r="22.03" style="fill:none;stroke:#1A476F;stroke-width:8.64"/>
	<text x="1871.60" y="1613.42" style="font-family:'Helvetica';font-size:79.94px;fill:#1A476f">Combustibles</text>
	<circle cx="1979.01" cy="1509.18" r="26.35" style="fill:#1A476F"/>
	<circle cx="1979.01" cy="1509.18" r="22.03" style="fill:none;stroke:#1A476F;stroke-width:8.64"/>
	<text x="2020.96" y="1537.19" style="font-family:'Helvetica';font-size:79.94px;fill:#1A476f">Cuirs, peaux et produits dérivés hors sellerie</text>
	<circle cx="1492.18" cy="1440.50" r="26.35" style="fill:#1A476F"/>
	<circle cx="1492.18" cy="1440.50" r="22.03" style="fill:none;stroke:#1A476F;stroke-width:8.64"/>
	<text x="1534.13" y="1468.51" style="font-family:'Helvetica';font-size:79.94px;fill:#1A476f">Divers mélangés</text>
	<circle cx="2447.65" cy="1391.61" r="26.35" style="fill:#1A476F"/>
	<circle cx="2447.65" cy="1391.61" r="22.03" style="fill:none;stroke:#1A476F;stroke-width:8.64"/>
	<text x="2489.60" y="1419.62" style="font-family:'Helvetica';font-size:79.94px;fill:#1A476f">Filés ou tissés de coton</text>
	<circle cx="2322.91" cy="1706.94" r="26.35" style="fill:#1A476F"/>
	<circle cx="2322.91" cy="1706.94" r="22.03" style="fill:none;stroke:#1A476F;stroke-width:8.64"/>
	<text x="2364.86" y="1734.95" style="font-family:'Helvetica';font-size:79.94px;fill:#1A476f">Filés ou tissés de fibre végétale non mélangée (lin, chanvre, jute, etc.)</text>
	<circle cx="2175.65" cy="1962.98" r="26.35" style="fill:#1A476F"/>
	<circle cx="2175.65" cy="1962.98" r="22.03" style="fill:none;stroke:#1A476F;stroke-width:8.64"/>
	<text x="2217.60" y="1991.00" style="font-family:'Helvetica';font-size:79.94px;fill:#1A476f">Filés ou tissés de laine et de poil</text>
	<circle cx="2036.43" cy="1718.07" r="26.35" style="fill:#1A476F"/>
	<circle cx="2036.43" cy="1718.07" r="22.03" style="fill:none;stroke:#1A476F;stroke-width:8.64"/>
	<text x="2078.38" y="1746.09" style="font-family:'Helvetica';font-size:79.94px;fill:#1A476f">Filés ou tissés de soie et soie mélangée</text>
	<circle cx="2621.27" cy="1160.81" r="26.35" style="fill:#1A476F"/>
	<circle cx="2621.27" cy="1160.81" r="22.03" style="fill:none;stroke:#1A476F;stroke-width:8.64"/>
	<text x="2663.22" y="1188.82" style="font-family:'Helvetica';font-size:79.94px;fill:#1A476f">Huiles, graisses et cires d'origine animale et végétale</text>
	<circle cx="1371.03" cy="2208.76" r="26.35" style="fill:#1A476F"/>
	<circle cx="1371.03" cy="2208.76" r="22.03" style="fill:none;stroke:#1A476F;stroke-width:8.64"/>
	<text x="1412.98" y="2236.77" style="font-family:'Helvetica';font-size:79.94px;fill:#1A476f">Machines et moyens de transport y compris sellerie</text>
	<circle cx="3054.27" cy="854.52" r="26.35" style="fill:#1A476F"/>
	<circle cx="3054.27" cy="854.52" r="22.03" style="fill:none;stroke:#1A476F;stroke-width:8.64"/>
	<text x="3096.22" y="882.53" style="font-family:'Helvetica';font-size:79.94px;fill:#1A476f">Matières brutes non-comestibles non transformées n.d.a.</text>
	<circle cx="1541.43" cy="987.68" r="26.35" style="fill:#1A476F"/>
	<circle cx="1541.43" cy="987.68" r="22.03" style="fill:none;stroke:#1A476F;stroke-width:8.64"/>
	<text x="1583.38" y="1015.69" style="font-family:'Helvetica';font-size:79.94px;fill:#1A476f">Monnaies et métaux précieux</text>
	<circle cx="2488.98" cy="1227.89" r="26.35" style="fill:#1A476F"/>
	<circle cx="2488.98" cy="1227.89" r="22.03" style="fill:none;stroke:#1A476F;stroke-width:8.64"/>
	<text x="2530.93" y="1255.90" style="font-family:'Helvetica';font-size:79.94px;fill:#1A476f">Métaux, produits métalliques et outils</text>
	<circle cx="3430.60" cy="690.30" r="26.35" style="fill:#1A476F"/>
	<circle cx="3430.60" cy="690.30" r="22.03" style="fill:none;stroke:#1A476F;stroke-width:8.64"/>
	<text x="3472.55" y="718.31" style="font-family:'Helvetica';font-size:79.94px;fill:#1A476f">Produits agricoles alimentaires des régions de colonisation européenne</text>
	<circle cx="2632.91" cy="1134.08" r="26.35" style="fill:#1A476F"/>
	<circle cx="2632.91" cy="1134.08" r="22.03" style="fill:none;stroke:#1A476F;stroke-width:8.64"/>
	<text x="2674.86" y="1162.09" style="font-family:'Helvetica';font-size:79.94px;fill:#1A476f">Produits chimiques transformés n.d.a.</text>
	<circle cx="1907.11" cy="2247.99" r="26.35" style="fill:#1A476F"/>
	<circle cx="1907.11" cy="2247.99" r="22.03" style="fill:none;stroke:#1A476F;stroke-width:8.64"/>
	<text x="1949.06" y="2276.00" style="font-family:'Helvetica';font-size:79.94px;fill:#1A476f">Produits du bois, liège, jonc</text>
	<path d=" M2404.71 1289.27 L1584.49 1767.21 L1608.75 1753.10 L1266.09 1952.84 L1308.90 1927.84 L2286.03 1358.45 L2672.51 1133.21 L2340.24 1326.77 L2578.95 1187.79 L3124.93 869.62 L2883.62 1010.20 L2348.90 1321.82 L1263.86 1954.07 L1896.35 1585.53 L1847.22 1614.12 L2027.27 1509.18 L2327.61 1334.19 L2145.08 1440.50 L2376.87 1305.48 L2228.99 1391.74 L1901.54 1582.44 L1687.83 1707.06 L2568.55 1193.73 L1248.39 1963.11 L2640.58 1151.90 L1668.77 1718.07 L1839.05 1618.95 L2625.11 1160.81 L1334.03 1913.11 L826.53 2208.88 L2612.73 1167.99 L3150.80 854.52 L628.28 2324.35 L2922.23 987.68 L2021.21 1512.77 L2510.02 1227.89 L1512.10 1809.41 L3294.97 770.49 L3432.58 690.30 L2413.25 1284.32 L2670.90 1134.20 L864.76 2186.61 L759.33 2247.99" stroke-linejoin="round" style="fill:none;stroke:#90353B;stroke-width:8.64"/>
	<line x1="390.80" y1="2489.19" x2="390.80" y2="415.32" style="stroke:#000000;stroke-width:5.76"/>
	<line x1="390.80" y1="2425.82" x2="350.83" y2="2425.82" style="stroke:#000000;stroke-width:5.76"/>
	<text x="300.72" y="2425.82" style="font-family:'Helvetica';font-size:99.99px;fill:#000000" transform="rotate(-90 300.72,2425.82)" text-anchor="middle">12</text>
	<line x1="390.80" y1="1939.10" x2="350.83" y2="1939.10" style="stroke:#000000;stroke-width:5.76"/>
	<text x="300.72" y="1939.10" style="font-family:'Helvetica';font-size:99.99px;fill:#000000" transform="rotate(-90 300.72,1939.10)" text-anchor="middle">14</text>
	<line x1="390.80" y1="1452.25" x2="350.83" y2="1452.25" style="stroke:#000000;stroke-width:5.76"/>
	<text x="300.72" y="1452.25" style="font-family:'Helvetica';font-size:99.99px;fill:#000000" transform="rotate(-90 300.72,1452.25)" text-anchor="middle">16</text>
	<line x1="390.80" y1="965.53" x2="350.83" y2="965.53" style="stroke:#000000;stroke-width:5.76"/>
	<text x="300.72" y="965.53" style="font-family:'Helvetica';font-size:99.99px;fill:#000000" transform="rotate(-90 300.72,965.53)" text-anchor="middle">18</text>
	<line x1="390.80" y1="478.68" x2="350.83" y2="478.68" style="stroke:#000000;stroke-width:5.76"/>
	<text x="300.72" y="478.68" style="font-family:'Helvetica';font-size:99.99px;fill:#000000" transform="rotate(-90 300.72,478.68)" text-anchor="middle">20</text>
	<text x="190.71" y="1452.25" style="font-family:'Helvetica';font-size:99.99px;fill:#000000" transform="rotate(-90 190.71,1452.25)" text-anchor="middle">Sources : Résumés</text>
	<line x1="390.80" y1="2489.19" x2="3859.02" y2="2489.19" style="stroke:#000000;stroke-width:5.76"/>
	<line x1="454.16" y1="2489.19" x2="454.16" y2="2529.16" style="stroke:#000000;stroke-width:5.76"/>
	<text x="454.16" y="2619.14" style="font-family:'Helvetica';font-size:99.99px;fill:#000000" text-anchor="middle">12</text>
	<line x1="1289.47" y1="2489.19" x2="1289.47" y2="2529.16" style="stroke:#000000;stroke-width:5.76"/>
	<text x="1289.47" y="2619.14" style="font-family:'Helvetica';font-size:99.99px;fill:#000000" text-anchor="middle">14</text>
	<line x1="2124.91" y1="2489.19" x2="2124.91" y2="2529.16" style="stroke:#000000;stroke-width:5.76"/>
	<text x="2124.91" y="2619.14" style="font-family:'Helvetica';font-size:99.99px;fill:#000000" text-anchor="middle">16</text>
	<line x1="2960.35" y1="2489.19" x2="2960.35" y2="2529.16" style="stroke:#000000;stroke-width:5.76"/>
	<text x="2960.35" y="2619.14" style="font-family:'Helvetica';font-size:99.99px;fill:#000000" text-anchor="middle">18</text>
	<line x1="3795.66" y1="2489.19" x2="3795.66" y2="2529.16" style="stroke:#000000;stroke-width:5.76"/>
	<text x="3795.66" y="2619.14" style="font-family:'Helvetica';font-size:99.99px;fill:#000000" text-anchor="middle">20</text>
	<text x="2124.91" y="2729.16" style="font-family:'Helvetica';font-size:99.99px;fill:#000000" text-anchor="middle">Source : autre</text>
	<text x="2124.91" y="215.98" style="font-family:'Helvetica';font-size:139.96px;fill:#1E2D53" text-anchor="middle">Valeurs résumées VS Valeurs non résumées</text>
	<text x="2124.91" y="356.06" style="font-family:'Helvetica';font-size:139.96px;fill:#1E2D53" text-anchor="middle"> par produit (Imports 1789)</text>
</svg>
