<?xml version="1.0" encoding="UTF-8" standalone="no"?>
<!-- This is a Stata 17.0 generated SVG file (http://www.stata.com) -->

<svg version="1.1" width="5.50in" height="4.00in" viewBox="0 0 3960 2880" xmlns="http://www.w3.org/2000/svg" xmlns:xlink="http://www.w3.org/1999/xlink">
	<desc>Stata Graph - graph3</desc>
	<rect x="0" y="0" width="3960" height="2880" style="fill:#EAF2F3;stroke:none"/>
	<rect x="0.00" y="0.00" width="3959.88" height="2880.00" style="fill:#EAF2F3"/>
	<rect x="2.88" y="2.88" width="3954.12" height="2874.24" style="fill:none;stroke:#EAF2F3;stroke-width:5.76"/>
	<rect x="390.80" y="415.32" width="3468.22" height="2073.87" style="fill:#FFFFFF"/>
	<rect x="393.68" y="418.20" width="3462.46" height="2068.11" style="fill:none;stroke:#FFFFFF;stroke-width:5.76"/>
	<line x1="390.80" y1="2425.82" x2="3859.02" y2="2425.82" style="stroke:#EAF2F3;stroke-width:8.64"/>
	<line x1="390.80" y1="2055.55" x2="3859.02" y2="2055.55" style="stroke:#EAF2F3;stroke-width:8.64"/>
	<line x1="390.80" y1="1685.28" x2="3859.02" y2="1685.28" style="stroke:#EAF2F3;stroke-width:8.64"/>
	<line x1="390.80" y1="1315.01" x2="3859.02" y2="1315.01" style="stroke:#EAF2F3;stroke-width:8.64"/>
	<line x1="390.80" y1="944.86" x2="3859.02" y2="944.86" style="stroke:#EAF2F3;stroke-width:8.64"/>
	<line x1="390.80" y1="574.59" x2="3859.02" y2="574.59" style="stroke:#EAF2F3;stroke-width:8.64"/>
	<circle cx="1370.04" cy="1696.91" r="26.35" style="fill:#1A476F"/>
	<circle cx="1370.04" cy="1696.91" r="22.03" style="fill:none;stroke:#1A476F;stroke-width:8.64"/>
	<text x="1411.99" y="1724.92" style="font-family:'Helvetica';font-size:79.94px;fill:#1A476f">Allemagne</text>
	<circle cx="2599.00" cy="972.58" r="26.35" style="fill:#1A476F"/>
	<circle cx="2599.00" cy="972.58" r="22.03" style="fill:none;stroke:#1A476F;stroke-width:8.64"/>
	<text x="2640.95" y="1000.59" style="font-family:'Helvetica';font-size:79.94px;fill:#1A476f">Angleterre</text>
	<circle cx="2152.88" cy="1208.21" r="26.35" style="fill:#1A476F"/>
	<circle cx="2152.88" cy="1208.21" r="22.03" style="fill:none;stroke:#1A476F;stroke-width:8.64"/>
	<text x="2194.83" y="1236.22" style="font-family:'Helvetica';font-size:79.94px;fill:#1A476f">Espagne</text>
	<circle cx="2253.98" cy="1225.41" r="26.35" style="fill:#1A476F"/>
	<circle cx="2253.98" cy="1225.41" r="22.03" style="fill:none;stroke:#1A476F;stroke-width:8.64"/>
	<text x="2295.93" y="1253.42" style="font-family:'Helvetica';font-size:79.94px;fill:#1A476f">Flandre et autres états de l'Empereur</text>
	<circle cx="2359.79" cy="1159.20" r="26.35" style="fill:#1A476F"/>
	<circle cx="2359.79" cy="1159.20" r="22.03" style="fill:none;stroke:#1A476F;stroke-width:8.64"/>
	<text x="2401.74" y="1187.21" style="font-family:'Helvetica';font-size:79.94px;fill:#1A476f">Hollande</text>
	<circle cx="2715.82" cy="919.12" r="26.35" style="fill:#1A476F"/>
	<circle cx="2715.82" cy="919.12" r="22.03" style="fill:none;stroke:#1A476F;stroke-width:8.64"/>
	<text x="2757.77" y="947.13" style="font-family:'Helvetica';font-size:79.94px;fill:#1A476f">Italie</text>
	<circle cx="2399.14" cy="1133.46" r="26.35" style="fill:#1A476F"/>
	<circle cx="2399.14" cy="1133.46" r="22.03" style="fill:none;stroke:#1A476F;stroke-width:8.64"/>
	<text x="2441.09" y="1161.47" style="font-family:'Helvetica';font-size:79.94px;fill:#1A476f">Levant et Barbarie</text>
	<circle cx="2342.34" cy="1136.93" r="26.35" style="fill:#1A476F"/>
	<circle cx="2342.34" cy="1136.93" r="22.03" style="fill:none;stroke:#1A476F;stroke-width:8.64"/>
	<text x="2384.29" y="1164.94" style="font-family:'Helvetica';font-size:79.94px;fill:#1A476f">Nord</text>
	<circle cx="3383.08" cy="478.68" r="26.35" style="fill:#1A476F"/>
	<circle cx="3383.08" cy="478.68" r="22.03" style="fill:none;stroke:#1A476F;stroke-width:8.64"/>
	<text x="3425.03" y="506.69" style="font-family:'Helvetica';font-size:79.94px;fill:#1A476f">Outre-mers</text>
	<circle cx="1382.41" cy="1750.75" r="26.35" style="fill:#1A476F"/>
	<circle cx="1382.41" cy="1750.75" r="22.03" style="fill:none;stroke:#1A476F;stroke-width:8.64"/>
	<text x="1424.36" y="1778.76" style="font-family:'Helvetica';font-size:79.94px;fill:#1A476f">Portugal</text>
	<circle cx="1213.99" cy="1797.65" r="26.35" style="fill:#1A476F"/>
	<circle cx="1213.99" cy="1797.65" r="22.03" style="fill:none;stroke:#1A476F;stroke-width:8.64"/>
	<text x="1255.94" y="1825.66" style="font-family:'Helvetica';font-size:79.94px;fill:#1A476f">Suisse</text>
	<circle cx="1776.93" cy="1540.49" r="26.35" style="fill:#1A476F"/>
	<circle cx="1776.93" cy="1540.49" r="22.03" style="fill:none;stroke:#1A476F;stroke-width:8.64"/>
	<text x="1818.88" y="1568.50" style="font-family:'Helvetica';font-size:79.94px;fill:#1A476f">États-Unis d'Amérique</text>
	<path d=" M2143.60 1302.63 L1550.59 1696.91 L2332.32 1177.27 L2639.96 972.71 L2420.67 1118.49 L2285.66 1208.21 L2209.80 1258.58 L2259.68 1225.53 L2448.15 1100.30 L2359.29 1159.20 L2526.23 1048.32 L2720.40 919.12 L2019.60 1385.18 L2397.90 1133.59 L2874.34 816.90 L2392.71 1137.05 L2803.31 864.17 L3382.83 478.80 L982.70 2074.49 L1469.41 1750.87 L2021.33 1383.94 L1398.99 1797.65 L471.98 2413.94 L1785.71 1540.61" stroke-linejoin="round" style="fill:none;stroke:#90353B;stroke-width:8.64"/>
	<line x1="390.80" y1="2489.19" x2="390.80" y2="415.32" style="stroke:#000000;stroke-width:5.76"/>
	<line x1="390.80" y1="2425.82" x2="350.83" y2="2425.82" style="stroke:#000000;stroke-width:5.76"/>
	<text x="300.72" y="2425.82" style="font-family:'Helvetica';font-size:99.99px;fill:#000000" transform="rotate(-90 300.72,2425.82)" text-anchor="middle">14</text>
	<line x1="390.80" y1="2055.55" x2="350.83" y2="2055.55" style="stroke:#000000;stroke-width:5.76"/>
	<text x="300.72" y="2055.55" style="font-family:'Helvetica';font-size:99.99px;fill:#000000" transform="rotate(-90 300.72,2055.55)" text-anchor="middle">15</text>
	<line x1="390.80" y1="1685.28" x2="350.83" y2="1685.28" style="stroke:#000000;stroke-width:5.76"/>
	<text x="300.72" y="1685.28" style="font-family:'Helvetica';font-size:99.99px;fill:#000000" transform="rotate(-90 300.72,1685.28)" text-anchor="middle">16</text>
	<line x1="390.80" y1="1315.01" x2="350.83" y2="1315.01" style="stroke:#000000;stroke-width:5.76"/>
	<text x="300.72" y="1315.01" style="font-family:'Helvetica';font-size:99.99px;fill:#000000" transform="rotate(-90 300.72,1315.01)" text-anchor="middle">17</text>
	<line x1="390.80" y1="944.86" x2="350.83" y2="944.86" style="stroke:#000000;stroke-width:5.76"/>
	<text x="300.72" y="944.86" style="font-family:'Helvetica';font-size:99.99px;fill:#000000" transform="rotate(-90 300.72,944.86)" text-anchor="middle">18</text>
	<line x1="390.80" y1="574.59" x2="350.83" y2="574.59" style="stroke:#000000;stroke-width:5.76"/>
	<text x="300.72" y="574.59" style="font-family:'Helvetica';font-size:99.99px;fill:#000000" transform="rotate(-90 300.72,574.59)" text-anchor="middle">19</text>
	<text x="190.71" y="1452.25" style="font-family:'Helvetica';font-size:99.99px;fill:#000000" transform="rotate(-90 190.71,1452.25)" text-anchor="middle">Source : Résumé</text>
	<line x1="390.80" y1="2489.19" x2="3859.02" y2="2489.19" style="stroke:#000000;stroke-width:5.76"/>
	<line x1="454.16" y1="2489.19" x2="454.16" y2="2529.16" style="stroke:#000000;stroke-width:5.76"/>
	<text x="454.16" y="2619.14" style="font-family:'Helvetica';font-size:99.99px;fill:#000000" text-anchor="middle">14</text>
	<line x1="1011.04" y1="2489.19" x2="1011.04" y2="2529.16" style="stroke:#000000;stroke-width:5.76"/>
	<text x="1011.04" y="2619.14" style="font-family:'Helvetica';font-size:99.99px;fill:#000000" text-anchor="middle">15</text>
	<line x1="1568.04" y1="2489.19" x2="1568.04" y2="2529.16" style="stroke:#000000;stroke-width:5.76"/>
	<text x="1568.04" y="2619.14" style="font-family:'Helvetica';font-size:99.99px;fill:#000000" text-anchor="middle">16</text>
	<line x1="2124.91" y1="2489.19" x2="2124.91" y2="2529.16" style="stroke:#000000;stroke-width:5.76"/>
	<text x="2124.91" y="2619.14" style="font-family:'Helvetica';font-size:99.99px;fill:#000000" text-anchor="middle">17</text>
	<line x1="2681.91" y1="2489.19" x2="2681.91" y2="2529.16" style="stroke:#000000;stroke-width:5.76"/>
	<text x="2681.91" y="2619.14" style="font-family:'Helvetica';font-size:99.99px;fill:#000000" text-anchor="middle">18</text>
	<line x1="3238.78" y1="2489.19" x2="3238.78" y2="2529.16" style="stroke:#000000;stroke-width:5.76"/>
	<text x="3238.78" y="2619.14" style="font-family:'Helvetica';font-size:99.99px;fill:#000000" text-anchor="middle">19</text>
	<text x="2124.91" y="2729.16" style="font-family:'Helvetica';font-size:99.99px;fill:#000000" text-anchor="middle">Sources : autres</text>
	<text x="2124.91" y="215.98" style="font-family:'Helvetica';font-size:139.96px;fill:#1E2D53" text-anchor="middle">Valeurs résumées VS Valeurs non résumées</text>
	<text x="2124.91" y="356.06" style="font-family:'Helvetica';font-size:139.96px;fill:#1E2D53" text-anchor="middle"> par partenaire (Imports 1789)</text>
</svg>
